PowerhouseFilarOcto-BoldItalic.ufo
<glyph name="exclam" format="2">
  <advance width="300"/>
  <unicode hex="0021"/>
  <outline>
    <contour>
      <point x="308" y="700" type="line"/>
      <point x="149" y="700" type="line"/>
      <point x="99" y="217" type="line"/>
      <point x="188" y="217" type="line"/>
    </contour>
    <component base="period" xScale="-1" yScale="-1" xOffset="240" yOffset="158" identifier="E3C5D1DD"/>
  </outline>
</glyph>
<glyph name="quotedbl" format="2">
  <advance width="500"/>
  <unicode hex="0022"/>
  <outline>
    <contour>
      <point x="153" y="700" type="line"/>
      <point x="120" y="364" type="line"/>
      <point x="226" y="364" type="line"/>
      <point x="311" y="700" type="line"/>
    </contour>
    <contour>
      <point x="350" y="700" type="line"/>
      <point x="317" y="364" type="line"/>
      <point x="423" y="364" type="line"/>
      <point x="508" y="700" type="line"/>
    </contour>
  </outline>
</glyph>
<glyph name="numbersign" format="2">
  <advance width="680"/>
  <unicode hex="0023"/>
  <outline>
    <contour>
      <point x="443" y="700" type="line"/>
      <point x="316" y="700" type="line"/>
      <point x="26" y="0" type="line"/>
      <point x="153" y="0" type="line"/>
    </contour>
    <contour>
      <point x="709" y="539" type="line"/>
      <point x="124" y="539" type="line"/>
      <point x="104" y="425" type="line"/>
      <point x="689" y="425" type="line"/>
    </contour>
    <contour>
      <point x="681" y="700" type="line"/>
      <point x="554" y="700" type="line"/>
      <point x="264" y="0" type="line"/>
      <point x="391" y="0" type="line"/>
    </contour>
    <contour>
      <point x="617" y="303" type="line"/>
      <point x="32" y="303" type="line"/>
      <point x="12" y="189" type="line"/>
      <point x="597" y="189" type="line"/>
    </contour>
  </outline>
</glyph>
<glyph name="percent" format="2">
  <advance width="760"/>
  <unicode hex="0025"/>
  <outline>
    <contour>
      <point x="238" y="617" type="curve" smooth="yes"/>
      <point x="265" y="617"/>
      <point x="278" y="594"/>
      <point x="278" y="556" type="curve" smooth="yes"/>
      <point x="278" y="499"/>
      <point x="255" y="431"/>
      <point x="208" y="431" type="curve" smooth="yes"/>
      <point x="181" y="431"/>
      <point x="168" y="454"/>
      <point x="168" y="492" type="curve" smooth="yes"/>
      <point x="168" y="548"/>
      <point x="191" y="617"/>
    </contour>
    <contour>
      <point x="588" y="269" type="curve" smooth="yes"/>
      <point x="615" y="269"/>
      <point x="628" y="246"/>
      <point x="628" y="208" type="curve" smooth="yes"/>
      <point x="628" y="151"/>
      <point x="605" y="83"/>
      <point x="558" y="83" type="curve" smooth="yes"/>
      <point x="531" y="83"/>
      <point x="518" y="106"/>
      <point x="518" y="144" type="curve" smooth="yes"/>
      <point x="518" y="200"/>
      <point x="541" y="269"/>
    </contour>
    <contour>
      <point x="248" y="707" type="curve" smooth="yes"/>
      <point x="128" y="707"/>
      <point x="65" y="596"/>
      <point x="65" y="485" type="curve" smooth="yes"/>
      <point x="65" y="396"/>
      <point x="118" y="341"/>
      <point x="198" y="341" type="curve" smooth="yes"/>
      <point x="318" y="341"/>
      <point x="381" y="452"/>
      <point x="381" y="563" type="curve" smooth="yes"/>
      <point x="381" y="652"/>
      <point x="328" y="707"/>
    </contour>
    <contour>
      <point x="598" y="359" type="curve" smooth="yes"/>
      <point x="478" y="359"/>
      <point x="415" y="248"/>
      <point x="415" y="137" type="curve" smooth="yes"/>
      <point x="415" y="48"/>
      <point x="468" y="-7"/>
      <point x="548" y="-7" type="curve" smooth="yes"/>
      <point x="668" y="-7"/>
      <point x="731" y="104"/>
      <point x="731" y="215" type="curve" smooth="yes"/>
      <point x="731" y="304"/>
      <point x="678" y="359"/>
    </contour>
    <contour>
      <point x="646" y="700" type="line"/>
      <point x="27" y="0" type="line"/>
      <point x="150" y="0" type="line"/>
      <point x="769" y="700" type="line"/>
    </contour>
  </outline>
</glyph>
<glyph name="asterisk" format="2">
  <advance width="450"/>
  <unicode hex="002A"/>
  <outline>
    <contour>
      <point x="149" y="291" type="line"/>
      <point x="254" y="407" type="line"/>
      <point x="318" y="291" type="line"/>
      <point x="402" y="346" type="line"/>
      <point x="337" y="466" type="line"/>
      <point x="484" y="512" type="line"/>
      <point x="470" y="603" type="line"/>
      <point x="327" y="559" type="line"/>
      <point x="352" y="700" type="line"/>
      <point x="254" y="700" type="line"/>
      <point x="230" y="566" type="line"/>
      <point x="103" y="609" type="line"/>
      <point x="60" y="521" type="line"/>
      <point x="188" y="477" type="line"/>
      <point x="76" y="352" type="line"/>
    </contour>
  </outline>
</glyph>
<glyph name="comma" format="2">
  <advance width="300"/>
  <unicode hex="002C"/>
  <outline>
    <contour>
      <point x="60" y="158" type="line"/>
      <point x="32" y="0" type="line"/>
      <point x="109" y="0" type="line"/>
      <point x="107" y="-13" type="line" smooth="yes"/>
      <point x="98" y="-64"/>
      <point x="61" y="-99"/>
      <point x="-8" y="-99" type="curve"/>
      <point x="-18" y="-160" type="line"/>
      <point x="113" y="-160"/>
      <point x="168" y="-66"/>
      <point x="178" y="-12" type="curve" smooth="yes"/>
      <point x="208" y="158" type="line"/>
    </contour>
  </outline>
</glyph>
<glyph name="period" format="2">
  <advance width="300"/>
  <unicode hex="002E"/>
  <outline>
    <contour>
      <point x="60" y="158" type="line"/>
      <point x="32" y="0" type="line"/>
      <point x="180" y="0" type="line"/>
      <point x="208" y="158" type="line"/>
    </contour>
  </outline>
</glyph>
<glyph name="zero" format="2">
  <advance width="600"/>
  <unicode hex="0030"/>
  <outline>
    <contour>
      <point x="370" y="712" type="curve" smooth="yes"/>
      <point x="158" y="712"/>
      <point x="43" y="476"/>
      <point x="43" y="258" type="curve" smooth="yes"/>
      <point x="43" y="88"/>
      <point x="125" y="-12"/>
      <point x="266" y="-12" type="curve" smooth="yes"/>
      <point x="478" y="-12"/>
      <point x="593" y="224"/>
      <point x="593" y="442" type="curve" smooth="yes"/>
      <point x="593" y="612"/>
      <point x="511" y="712"/>
    </contour>
    <contour>
      <point x="357" y="589" type="curve" smooth="yes"/>
      <point x="417" y="589"/>
      <point x="449" y="542"/>
      <point x="449" y="445" type="curve" smooth="yes"/>
      <point x="449" y="312"/>
      <point x="399" y="111"/>
      <point x="279" y="111" type="curve" smooth="yes"/>
      <point x="219" y="111"/>
      <point x="187" y="159"/>
      <point x="187" y="255" type="curve" smooth="yes"/>
      <point x="187" y="389"/>
      <point x="237" y="589"/>
    </contour>
  </outline>
</glyph>
<glyph name="one" format="2">
  <advance width="450"/>
  <unicode hex="0031"/>
  <outline>
    <contour>
      <point x="284" y="700" type="line"/>
      <point x="264" y="589"/>
      <point x="209" y="555"/>
      <point x="84" y="555" type="curve"/>
      <point x="66" y="450" type="line"/>
      <point x="312" y="450" type="line"/>
      <point x="245" y="540" type="line"/>
      <point x="149" y="0" type="line"/>
      <point x="292" y="0" type="line"/>
      <point x="416" y="700" type="line"/>
    </contour>
    <contour>
      <point x="149" y="0" type="line"/>
      <point x="292" y="0" type="line"/>
      <point x="313" y="120" type="line"/>
      <point x="171" y="120" type="line"/>
    </contour>
  </outline>
</glyph>
<glyph name="six" format="2">
  <advance width="600"/>
  <unicode hex="0036"/>
  <outline>
    <contour>
      <point x="413" y="712" type="curve" smooth="yes"/>
      <point x="248" y="712"/>
      <point x="100" y="583"/>
      <point x="58" y="340" type="curve" smooth="yes"/>
      <point x="49" y="293"/>
      <point x="45" y="252"/>
      <point x="45" y="217" type="curve" smooth="yes"/>
      <point x="45" y="71"/>
      <point x="137" y="-12"/>
      <point x="272" y="-12" type="curve" smooth="yes"/>
      <point x="449" y="-12"/>
      <point x="559" y="124"/>
      <point x="559" y="272" type="curve" smooth="yes"/>
      <point x="559" y="395"/>
      <point x="477" y="467"/>
      <point x="370" y="467" type="curve" smooth="yes"/>
      <point x="276" y="467"/>
      <point x="182" y="411"/>
      <point x="149" y="311" type="curve"/>
      <point x="196" y="309" type="line"/>
      <point x="207" y="373" type="line" smooth="yes"/>
      <point x="231" y="506"/>
      <point x="313" y="596"/>
      <point x="393" y="596" type="curve" smooth="yes"/>
      <point x="437" y="596"/>
      <point x="469" y="569"/>
      <point x="466" y="519" type="curve"/>
      <point x="597" y="500" type="line"/>
      <point x="599" y="510"/>
      <point x="600" y="521"/>
      <point x="600" y="533" type="curve" smooth="yes"/>
      <point x="600" y="636"/>
      <point x="535" y="712"/>
    </contour>
    <contour>
      <point x="320" y="355" type="curve" smooth="yes"/>
      <point x="382" y="355"/>
      <point x="416" y="312"/>
      <point x="416" y="253" type="curve" smooth="yes"/>
      <point x="416" y="181"/>
      <point x="368" y="105"/>
      <point x="286" y="105" type="curve" smooth="yes"/>
      <point x="224" y="105"/>
      <point x="186" y="147"/>
      <point x="186" y="206" type="curve" smooth="yes"/>
      <point x="186" y="278"/>
      <point x="238" y="355"/>
    </contour>
  </outline>
</glyph>
<glyph name="seven" format="2">
  <advance width="600"/>
  <unicode hex="0037"/>
  <outline>
    <contour>
      <point x="132" y="700" type="line"/>
      <point x="88" y="452" type="line"/>
      <point x="226" y="452" type="line"/>
      <point x="252" y="612" type="line"/>
      <point x="195" y="580" type="line"/>
      <point x="575" y="580" type="line"/>
      <point x="524" y="628" type="line"/>
      <point x="350" y="422"/>
      <point x="184" y="243"/>
      <point x="130" y="0" type="curve"/>
      <point x="282" y="0" type="line"/>
      <point x="333" y="239"/>
      <point x="482" y="397"/>
      <point x="645" y="591" type="curve"/>
      <point x="665" y="700" type="line"/>
    </contour>
  </outline>
</glyph>
<glyph name="less" format="2">
  <advance width="600"/>
  <unicode hex="003C"/>
  <outline>
    <contour>
      <point x="81" y="402" type="line"/>
      <point x="59" y="279" type="line"/>
      <point x="508" y="55" type="line"/>
      <point x="529" y="179" type="line"/>
      <point x="141" y="372" type="line"/>
      <point x="127" y="293" type="line"/>
      <point x="583" y="486" type="line"/>
      <point x="608" y="626" type="line"/>
    </contour>
  </outline>
</glyph>
<glyph name="question" format="2">
  <advance width="500"/>
  <unicode hex="003F"/>
  <outline>
    <contour>
      <point x="173" y="217" type="line"/>
      <point x="306" y="217" type="line"/>
      <point x="309" y="233" type="line" smooth="yes"/>
      <point x="318" y="279"/>
      <point x="338" y="305"/>
      <point x="391" y="339" type="curve" smooth="yes"/>
      <point x="463" y="386"/>
      <point x="538" y="442"/>
      <point x="538" y="549" type="curve" smooth="yes"/>
      <point x="538" y="647"/>
      <point x="462" y="712"/>
      <point x="333" y="712" type="curve" smooth="yes"/>
      <point x="202" y="712"/>
      <point x="106" y="639"/>
      <point x="67" y="524" type="curve"/>
      <point x="199" y="491" type="line"/>
      <point x="217" y="552"/>
      <point x="251" y="591"/>
      <point x="313" y="591" type="curve" smooth="yes"/>
      <point x="362" y="591"/>
      <point x="392" y="564"/>
      <point x="392" y="526" type="curve" smooth="yes"/>
      <point x="392" y="487"/>
      <point x="361" y="461"/>
      <point x="292" y="414" type="curve" smooth="yes"/>
      <point x="214" y="360"/>
      <point x="196" y="326"/>
      <point x="179" y="246" type="curve" smooth="yes"/>
    </contour>
    <contour>
      <point x="129" y="0" type="line"/>
      <point x="276" y="0" type="line"/>
      <point x="302" y="149" type="line"/>
      <point x="155" y="149" type="line"/>
    </contour>
  </outline>
</glyph>
<glyph name="at" format="2">
  <advance width="760"/>
  <unicode hex="0040"/>
  <outline>
    <contour>
      <point x="39" y="253" type="curve" smooth="yes"/>
      <point x="3" y="67"/>
      <point x="63" y="-140"/>
      <point x="336" y="-140" type="curve" smooth="yes"/>
      <point x="415" y="-140"/>
      <point x="495" y="-121"/>
      <point x="560" y="-85" type="curve"/>
      <point x="538" y="-4" type="line"/>
      <point x="479" y="-32"/>
      <point x="414" y="-50"/>
      <point x="341" y="-50" type="curve" smooth="yes"/>
      <point x="134" y="-50"/>
      <point x="107" y="114"/>
      <point x="132" y="243" type="curve" smooth="yes"/>
      <point x="162" y="411"/>
      <point x="282" y="558"/>
      <point x="463" y="558" type="curve" smooth="yes"/>
      <point x="569" y="558"/>
      <point x="654" y="507"/>
      <point x="654" y="372" type="curve" smooth="yes"/>
      <point x="654" y="307"/>
      <point x="625" y="146"/>
      <point x="544" y="146" type="curve" smooth="yes"/>
      <point x="515" y="146"/>
      <point x="508" y="163"/>
      <point x="516" y="192" type="curve" smooth="yes"/>
      <point x="590" y="451" type="line"/>
      <point x="487" y="451" type="line"/>
      <point x="474" y="405" type="line"/>
      <point x="463" y="438"/>
      <point x="435" y="457"/>
      <point x="396" y="457" type="curve" smooth="yes"/>
      <point x="296" y="457"/>
      <point x="225" y="349"/>
      <point x="206" y="243" type="curve" smooth="yes"/>
      <point x="192" y="161"/>
      <point x="206" y="52"/>
      <point x="313" y="52" type="curve" smooth="yes"/>
      <point x="351" y="52"/>
      <point x="385" y="70"/>
      <point x="413" y="105" type="curve"/>
      <point x="426" y="70"/>
      <point x="465" y="52"/>
      <point x="513" y="52" type="curve" smooth="yes"/>
      <point x="690" y="52"/>
      <point x="749" y="249"/>
      <point x="749" y="374" type="curve" smooth="yes"/>
      <point x="749" y="543"/>
      <point x="638" y="646"/>
      <point x="470" y="646" type="curve" smooth="yes"/>
      <point x="237" y="646"/>
      <point x="76" y="467"/>
    </contour>
    <contour>
      <point x="439" y="272" type="curve" smooth="yes"/>
      <point x="429" y="216"/>
      <point x="400" y="142"/>
      <point x="347" y="142" type="curve" smooth="yes"/>
      <point x="297" y="142"/>
      <point x="302" y="200"/>
      <point x="309" y="237" type="curve" smooth="yes"/>
      <point x="319" y="293"/>
      <point x="347" y="367"/>
      <point x="402" y="367" type="curve" smooth="yes"/>
      <point x="451" y="367"/>
      <point x="446" y="309"/>
    </contour>
  </outline>
</glyph>
<glyph name="A" format="2">
  <advance width="680"/>
  <unicode hex="0041"/>
  <outline>
    <contour>
      <point x="169" y="272" type="line"/>
      <point x="148" y="150" type="line"/>
      <point x="497" y="150" type="line"/>
      <point x="518" y="272" type="line"/>
    </contour>
    <contour>
      <point x="478" y="0" type="line"/>
      <point x="618" y="0" type="line"/>
      <point x="499" y="700" type="line"/>
      <point x="343" y="700" type="line"/>
      <point x="-25" y="0" type="line"/>
      <point x="126" y="0" type="line"/>
      <point x="458" y="644" type="line"/>
      <point x="375" y="644" type="line"/>
    </contour>
  </outline>
</glyph>
<glyph name="B" format="2">
  <advance width="680"/>
  <unicode hex="0042"/>
  <guideline x="333.14" y="1.56" angle="90" name="center"/>
  <outline>
    <contour>
      <point x="147" y="700" type="line"/>
      <point x="23" y="0" type="line"/>
      <point x="172" y="0" type="line"/>
      <point x="296" y="700" type="line"/>
    </contour>
    <contour>
      <point x="362" y="0" type="line" smooth="yes"/>
      <point x="546" y="0"/>
      <point x="643" y="121"/>
      <point x="643" y="233" type="curve" smooth="yes"/>
      <point x="643" y="308"/>
      <point x="598" y="347"/>
      <point x="550" y="370" type="curve"/>
      <point x="547" y="352" type="line"/>
      <point x="615" y="370"/>
      <point x="680" y="433"/>
      <point x="680" y="531" type="curve" smooth="yes"/>
      <point x="680" y="628"/>
      <point x="615" y="700"/>
      <point x="486" y="700" type="curve" smooth="yes"/>
      <point x="211" y="700" type="line"/>
      <point x="189" y="577" type="line"/>
      <point x="453" y="577" type="line" smooth="yes"/>
      <point x="500" y="577"/>
      <point x="533" y="556"/>
      <point x="533" y="511" type="curve" smooth="yes"/>
      <point x="533" y="469"/>
      <point x="502" y="420"/>
      <point x="429" y="420" type="curve" smooth="yes"/>
      <point x="160" y="420" type="line"/>
      <point x="139" y="298" type="line"/>
      <point x="405" y="298" type="line" smooth="yes"/>
      <point x="451" y="298"/>
      <point x="493" y="277"/>
      <point x="493" y="223" type="curve" smooth="yes"/>
      <point x="493" y="160"/>
      <point x="440" y="123"/>
      <point x="376" y="123" type="curve" smooth="yes"/>
      <point x="109" y="123" type="line"/>
      <point x="87" y="0" type="line"/>
    </contour>
  </outline>
</glyph>
<glyph name="E" format="2">
  <advance width="600"/>
  <unicode hex="0045"/>
  <outline>
    <contour>
      <point x="137" y="700" type="line"/>
      <point x="14" y="0" type="line"/>
      <point x="164" y="0" type="line"/>
      <point x="287" y="700" type="line"/>
    </contour>
    <contour>
      <point x="176" y="576" type="line"/>
      <point x="593" y="576" type="line"/>
      <point x="615" y="700" type="line"/>
      <point x="198" y="700" type="line"/>
    </contour>
    <contour>
      <point x="137" y="294" type="line"/>
      <point x="433" y="294" type="line"/>
      <point x="454" y="417" type="line"/>
      <point x="158" y="417" type="line"/>
    </contour>
    <contour>
      <point x="79" y="0" type="line"/>
      <point x="506" y="0" type="line"/>
      <point x="528" y="124" type="line"/>
      <point x="101" y="124" type="line"/>
    </contour>
  </outline>
</glyph>
<glyph name="F" format="2">
  <advance width="600"/>
  <unicode hex="0046"/>
  <outline>
    <contour>
      <point x="169" y="700" type="line"/>
      <point x="46" y="0" type="line"/>
      <point x="197" y="0" type="line"/>
      <point x="320" y="700" type="line"/>
    </contour>
    <contour>
      <point x="208" y="576" type="line"/>
      <point x="615" y="576" type="line"/>
      <point x="637" y="700" type="line"/>
      <point x="230" y="700" type="line"/>
    </contour>
    <contour>
      <point x="167" y="285" type="line"/>
      <point x="490" y="285" type="line"/>
      <point x="512" y="409" type="line"/>
      <point x="189" y="409" type="line"/>
    </contour>
  </outline>
</glyph>
<glyph name="I" format="2">
  <advance width="300"/>
  <unicode hex="0049"/>
  <outline>
    <contour>
      <point x="154" y="700" type="line"/>
      <point x="31" y="0" type="line"/>
      <point x="182" y="0" type="line"/>
      <point x="305" y="700" type="line"/>
    </contour>
    <contour>
      <point x="31" y="0" type="line"/>
      <point x="182" y="0" type="line"/>
      <point x="196" y="82" type="line"/>
      <point x="46" y="82" type="line"/>
    </contour>
    <contour>
      <point x="140" y="618" type="line"/>
      <point x="290" y="618" type="line"/>
      <point x="305" y="700" type="line"/>
      <point x="154" y="700" type="line"/>
    </contour>
  </outline>
</glyph>
<glyph name="J" format="2">
  <advance width="600"/>
  <unicode hex="004A"/>
  <outline>
    <contour>
      <point x="540" y="212" type="curve" smooth="yes"/>
      <point x="627" y="700" type="line"/>
      <point x="477" y="700" type="line"/>
      <point x="392" y="222" type="line" smooth="yes"/>
      <point x="381" y="162"/>
      <point x="348" y="109"/>
      <point x="274" y="109" type="curve" smooth="yes"/>
      <point x="214" y="109"/>
      <point x="180" y="149"/>
      <point x="180" y="214" type="curve" smooth="yes"/>
      <point x="180" y="225"/>
      <point x="181" y="237"/>
      <point x="183" y="250" type="curve"/>
      <point x="37" y="269" type="line"/>
      <point x="33" y="245"/>
      <point x="31" y="223"/>
      <point x="31" y="202" type="curve" smooth="yes"/>
      <point x="31" y="67"/>
      <point x="122" y="-12"/>
      <point x="268" y="-12" type="curve" smooth="yes"/>
      <point x="427" y="-12"/>
      <point x="515" y="74"/>
    </contour>
  </outline>
</glyph>
<glyph name="K" format="2">
  <advance width="680"/>
  <unicode hex="004B"/>
  <guideline x="346.77" y="697.9" angle="90" name="center"/>
  <outline>
    <contour>
      <point x="127" y="315" type="line"/>
      <point x="113" y="131" type="line"/>
      <point x="319" y="332" type="line"/>
      <point x="358" y="360" type="line"/>
      <point x="711" y="700" type="line"/>
      <point x="523" y="700" type="line"/>
    </contour>
    <contour>
      <point x="137" y="700" type="line"/>
      <point x="14" y="0" type="line"/>
      <point x="165" y="0" type="line"/>
      <point x="288" y="700" type="line"/>
    </contour>
    <contour>
      <point x="254" y="334" type="line"/>
      <point x="453" y="0" type="line"/>
      <point x="620" y="0" type="line"/>
      <point x="360" y="436" type="line"/>
    </contour>
  </outline>
</glyph>
<glyph name="M" format="2">
  <advance width="880"/>
  <unicode hex="004D"/>
  <outline>
    <contour>
      <point x="243" y="613" type="line"/>
      <point x="365" y="0" type="line"/>
      <point x="428" y="0" type="line"/>
      <point x="765" y="612" type="line"/>
      <point x="728" y="612" type="line"/>
      <point x="620" y="0" type="line"/>
      <point x="765" y="0" type="line"/>
      <point x="888" y="700" type="line"/>
      <point x="675" y="700" type="line"/>
      <point x="378" y="156" type="line"/>
      <point x="459" y="156" type="line"/>
      <point x="351" y="700" type="line"/>
      <point x="152" y="700" type="line"/>
      <point x="29" y="0" type="line"/>
      <point x="173" y="0" type="line"/>
      <point x="281" y="613" type="line"/>
    </contour>
  </outline>
</glyph>
<glyph name="N" format="2">
  <advance width="760"/>
  <unicode hex="004E"/>
  <outline>
    <contour>
      <point x="584" y="118" type="line"/>
      <point x="342" y="700" type="line"/>
      <point x="154" y="700" type="line"/>
      <point x="31" y="0" type="line"/>
      <point x="177" y="0" type="line"/>
      <point x="277" y="580" type="line"/>
      <point x="244" y="580" type="line"/>
      <point x="485" y="0" type="line"/>
      <point x="641" y="0" type="line"/>
      <point x="764" y="700" type="line"/>
      <point x="619" y="700" type="line"/>
      <point x="517" y="118" type="line"/>
    </contour>
  </outline>
</glyph>
<glyph name="O" format="2">
  <advance width="760"/>
  <unicode hex="004F"/>
  <outline>
    <contour>
      <point x="588" y="405" type="curve" smooth="yes"/>
      <point x="588" y="257"/>
      <point x="502" y="116"/>
      <point x="364" y="116" type="curve" smooth="yes"/>
      <point x="269" y="116"/>
      <point x="207" y="180"/>
      <point x="207" y="295" type="curve" smooth="yes"/>
      <point x="207" y="443"/>
      <point x="293" y="584"/>
      <point x="431" y="584" type="curve" smooth="yes"/>
      <point x="526" y="584"/>
      <point x="588" y="520"/>
    </contour>
    <contour>
      <point x="52" y="288" type="curve" smooth="yes"/>
      <point x="52" y="106"/>
      <point x="170" y="-12"/>
      <point x="352" y="-12" type="curve" smooth="yes"/>
      <point x="594" y="-12"/>
      <point x="743" y="192"/>
      <point x="743" y="412" type="curve" smooth="yes"/>
      <point x="743" y="594"/>
      <point x="625" y="712"/>
      <point x="443" y="712" type="curve" smooth="yes"/>
      <point x="201" y="712"/>
      <point x="52" y="508"/>
    </contour>
  </outline>
</glyph>
<glyph name="P" format="2">
  <advance width="680"/>
  <unicode hex="0050"/>
  <guideline x="334" y="700" angle="90" name="center"/>
  <outline>
    <contour>
      <point x="147" y="700" type="line"/>
      <point x="23" y="0" type="line"/>
      <point x="173" y="0" type="line"/>
      <point x="297" y="700" type="line"/>
    </contour>
    <contour>
      <point x="445" y="577" type="line" smooth="yes"/>
      <point x="503" y="577"/>
      <point x="533" y="551"/>
      <point x="533" y="504" type="curve" smooth="yes"/>
      <point x="533" y="456"/>
      <point x="502" y="407"/>
      <point x="415" y="407" type="curve" smooth="yes"/>
      <point x="168" y="407" type="line"/>
      <point x="146" y="284" type="line"/>
      <point x="408" y="284" type="line" smooth="yes"/>
      <point x="615" y="284"/>
      <point x="688" y="406"/>
      <point x="688" y="524" type="curve" smooth="yes"/>
      <point x="688" y="630"/>
      <point x="624" y="700"/>
      <point x="477" y="700" type="curve" smooth="yes"/>
      <point x="220" y="700" type="line"/>
      <point x="198" y="577" type="line"/>
    </contour>
  </outline>
</glyph>
<glyph name="S" format="2">
  <advance width="600"/>
  <unicode hex="0053"/>
  <outline>
    <contour>
      <point x="13" y="209" type="curve" smooth="yes"/>
      <point x="13" y="75"/>
      <point x="132" y="-12"/>
      <point x="286" y="-12" type="curve" smooth="yes"/>
      <point x="448" y="-12"/>
      <point x="569" y="89"/>
      <point x="569" y="237" type="curve" smooth="yes"/>
      <point x="569" y="328"/>
      <point x="512" y="378"/>
      <point x="424" y="399" type="curve" smooth="yes"/>
      <point x="304" y="427" type="line" smooth="yes"/>
      <point x="250" y="440"/>
      <point x="227" y="459"/>
      <point x="227" y="498" type="curve" smooth="yes"/>
      <point x="227" y="555"/>
      <point x="273" y="592"/>
      <point x="340" y="592" type="curve" smooth="yes"/>
      <point x="409" y="592"/>
      <point x="443" y="557"/>
      <point x="443" y="507" type="curve" smooth="yes"/>
      <point x="443" y="504"/>
      <point x="443" y="501"/>
      <point x="443" y="498" type="curve"/>
      <point x="601" y="490" type="line"/>
      <point x="601" y="496"/>
      <point x="602" y="501"/>
      <point x="602" y="507" type="curve" smooth="yes"/>
      <point x="602" y="645"/>
      <point x="482" y="712"/>
      <point x="349" y="712" type="curve" smooth="yes"/>
      <point x="185" y="712"/>
      <point x="76" y="610"/>
      <point x="76" y="478" type="curve" smooth="yes"/>
      <point x="76" y="380"/>
      <point x="140" y="327"/>
      <point x="242" y="303" type="curve" smooth="yes"/>
      <point x="335" y="281" type="line" smooth="yes"/>
      <point x="398" y="266"/>
      <point x="417" y="241"/>
      <point x="417" y="207" type="curve" smooth="yes"/>
      <point x="417" y="165"/>
      <point x="389" y="108"/>
      <point x="298" y="108" type="curve" smooth="yes"/>
      <point x="219" y="108"/>
      <point x="173" y="150"/>
      <point x="173" y="222" type="curve"/>
      <point x="14" y="235" type="line"/>
      <point x="13" y="226"/>
      <point x="13" y="217"/>
    </contour>
  </outline>
</glyph>
<glyph name="V" format="2">
  <advance width="680"/>
  <unicode hex="0056"/>
  <outline>
    <contour>
      <point x="247" y="700" type="line"/>
      <point x="97" y="700" type="line"/>
      <point x="223" y="0" type="line"/>
      <point x="373" y="0" type="line"/>
      <point x="740" y="700" type="line"/>
      <point x="575" y="700" type="line"/>
      <point x="251" y="57" type="line"/>
      <point x="359" y="57" type="line"/>
    </contour>
  </outline>
</glyph>
<glyph name="W" format="2">
  <advance width="880"/>
  <unicode hex="0057"/>
  <outline>
    <contour>
      <point x="655" y="0" type="line"/>
      <point x="944" y="700" type="line"/>
      <point x="786" y="700" type="line"/>
      <point x="570" y="148" type="line"/>
      <point x="618" y="148" type="line"/>
      <point x="584" y="700" type="line"/>
      <point x="443" y="700" type="line"/>
      <point x="222" y="159" type="line"/>
      <point x="266" y="159" type="line"/>
      <point x="241" y="700" type="line"/>
      <point x="96" y="700" type="line"/>
      <point x="140" y="0" type="line"/>
      <point x="286" y="0" type="line"/>
      <point x="551" y="647" type="line"/>
      <point x="465" y="647" type="line"/>
      <point x="507" y="0" type="line"/>
    </contour>
  </outline>
</glyph>
<glyph name="Y" format="2">
  <advance width="680"/>
  <unicode hex="0059"/>
  <outline>
    <contour>
      <point x="410" y="352" type="line"/>
      <point x="241" y="700" type="line"/>
      <point x="81" y="700" type="line"/>
      <point x="273" y="307" type="line"/>
      <point x="219" y="0" type="line"/>
      <point x="370" y="0" type="line"/>
      <point x="424" y="307" type="line"/>
      <point x="757" y="700" type="line"/>
      <point x="589" y="700" type="line"/>
      <point x="295" y="352" type="line"/>
    </contour>
  </outline>
</glyph>
<glyph name="Z" format="2">
  <advance width="600"/>
  <unicode hex="005A"/>
  <outline>
    <contour>
      <point x="13" y="0" type="line"/>
      <point x="503" y="0" type="line"/>
      <point x="525" y="124" type="line"/>
      <point x="115" y="124" type="line"/>
      <point x="175" y="60" type="line"/>
      <point x="603" y="602" type="line"/>
      <point x="620" y="700" type="line"/>
      <point x="134" y="700" type="line"/>
      <point x="112" y="576" type="line"/>
      <point x="523" y="576" type="line"/>
      <point x="444" y="623" type="line"/>
      <point x="30" y="99" type="line"/>
    </contour>
  </outline>
</glyph>
<glyph name="asciicircum" format="2">
  <advance width="600"/>
  <unicode hex="005E"/>
  <outline>
    <contour>
      <point x="448" y="700" type="line"/>
      <point x="310" y="700" type="line"/>
      <point x="45" y="361" type="line"/>
      <point x="200" y="361" type="line"/>
      <point x="426" y="649" type="line"/>
      <point x="333" y="649" type="line"/>
      <point x="459" y="361" type="line"/>
      <point x="595" y="361" type="line"/>
    </contour>
  </outline>
</glyph>
<glyph name="a" format="2">
  <advance width="550"/>
  <unicode hex="0061"/>
  <outline>
    <contour>
      <point x="336" y="97" type="line"/>
      <point x="335" y="90"/>
      <point x="335" y="83"/>
      <point x="335" y="76" type="curve" smooth="yes"/>
      <point x="335" y="5"/>
      <point x="391" y="-7"/>
      <point x="456" y="-7" type="curve" smooth="yes"/>
      <point x="465" y="-7"/>
      <point x="475" y="-6"/>
      <point x="482" y="-5" type="curve"/>
      <point x="500" y="100" type="line"/>
      <point x="497" y="100"/>
      <point x="496" y="100"/>
      <point x="492" y="100" type="curve" smooth="yes"/>
      <point x="477" y="100"/>
      <point x="468" y="107"/>
      <point x="468" y="124" type="curve" smooth="yes"/>
      <point x="468" y="127"/>
      <point x="468" y="129"/>
      <point x="469" y="134" type="curve" smooth="yes"/>
      <point x="505" y="338" type="line" smooth="yes"/>
      <point x="507" y="350"/>
      <point x="508" y="362"/>
      <point x="508" y="373" type="curve" smooth="yes"/>
      <point x="508" y="461"/>
      <point x="436" y="512"/>
      <point x="308" y="512" type="curve" smooth="yes"/>
      <point x="163" y="512"/>
      <point x="93" y="432"/>
      <point x="75" y="357" type="curve"/>
      <point x="209" y="328" type="line"/>
      <point x="219" y="374"/>
      <point x="240" y="405"/>
      <point x="299" y="405" type="curve" smooth="yes"/>
      <point x="345" y="405"/>
      <point x="368" y="386"/>
      <point x="368" y="353" type="curve" smooth="yes"/>
      <point x="368" y="347"/>
      <point x="367" y="340"/>
      <point x="366" y="333" type="curve" smooth="yes"/>
      <point x="340" y="183" type="line" smooth="yes"/>
      <point x="330" y="129"/>
      <point x="279" y="91"/>
      <point x="223" y="91" type="curve" smooth="yes"/>
      <point x="182" y="91"/>
      <point x="158" y="112"/>
      <point x="158" y="145" type="curve" smooth="yes"/>
      <point x="158" y="179"/>
      <point x="185" y="205"/>
      <point x="260" y="211" type="curve" smooth="yes"/>
      <point x="417" y="223" type="line"/>
      <point x="434" y="317" type="line"/>
      <point x="217" y="301" type="line" smooth="yes"/>
      <point x="94" y="292"/>
      <point x="17" y="226"/>
      <point x="17" y="127" type="curve" smooth="yes"/>
      <point x="17" y="41"/>
      <point x="82" y="-12"/>
      <point x="180" y="-12" type="curve" smooth="yes"/>
      <point x="265" y="-12"/>
      <point x="325" y="29"/>
      <point x="371" y="96" type="curve"/>
    </contour>
  </outline>
</glyph>
<glyph name="c" format="2">
  <advance width="550"/>
  <unicode hex="0063"/>
  <guideline x="37" y="250" angle="80"/>
  <outline>
    <contour>
      <point x="536" y="341" type="line"/>
      <point x="528" y="441"/>
      <point x="447" y="512"/>
      <point x="330" y="512" type="curve" smooth="yes"/>
      <point x="152" y="512"/>
      <point x="45" y="356"/>
      <point x="45" y="205" type="curve" smooth="yes"/>
      <point x="45" y="69"/>
      <point x="129" y="-12"/>
      <point x="263" y="-12" type="curve" smooth="yes"/>
      <point x="369" y="-12"/>
      <point x="463" y="42"/>
      <point x="504" y="139" type="curve"/>
      <point x="374" y="178" type="line"/>
      <point x="351" y="121"/>
      <point x="318" y="102"/>
      <point x="276" y="102" type="curve" smooth="yes"/>
      <point x="222" y="102"/>
      <point x="186" y="134"/>
      <point x="186" y="210" type="curve" smooth="yes"/>
      <point x="186" y="306"/>
      <point x="231" y="398"/>
      <point x="320" y="398" type="curve" smooth="yes"/>
      <point x="360" y="398"/>
      <point x="400" y="377"/>
      <point x="400" y="312" type="curve"/>
    </contour>
  </outline>
</glyph>
<glyph name="e" format="2">
  <advance width="550"/>
  <unicode hex="0065"/>
  <outline>
    <contour>
      <point x="34" y="206" type="curve" smooth="yes"/>
      <point x="34" y="73"/>
      <point x="117" y="-12"/>
      <point x="251" y="-12" type="curve" smooth="yes"/>
      <point x="362" y="-12"/>
      <point x="453" y="46"/>
      <point x="493" y="130" type="curve"/>
      <point x="374" y="168" type="line"/>
      <point x="350" y="123"/>
      <point x="316" y="98"/>
      <point x="265" y="98" type="curve" smooth="yes"/>
      <point x="208" y="98"/>
      <point x="174" y="132"/>
      <point x="174" y="205" type="curve" smooth="yes"/>
      <point x="174" y="297"/>
      <point x="215" y="400"/>
      <point x="307" y="400" type="curve" smooth="yes"/>
      <point x="360" y="400"/>
      <point x="388" y="366"/>
      <point x="388" y="303" type="curve" smooth="yes"/>
      <point x="388" y="287"/>
      <point x="386" y="269"/>
      <point x="382" y="248" type="curve"/>
      <point x="439" y="308" type="line"/>
      <point x="117" y="308" type="line"/>
      <point x="100" y="204" type="line"/>
      <point x="513" y="204" type="line"/>
      <point x="519" y="236" type="line" smooth="yes"/>
      <point x="523" y="258"/>
      <point x="525" y="278"/>
      <point x="525" y="299" type="curve" smooth="yes"/>
      <point x="525" y="425"/>
      <point x="450" y="512"/>
      <point x="320" y="512" type="curve" smooth="yes"/>
      <point x="148" y="512"/>
      <point x="34" y="371"/>
    </contour>
  </outline>
</glyph>
<glyph name="f" format="2">
  <advance width="450"/>
  <unicode hex="0066"/>
  <outline>
    <contour>
      <point x="62" y="393" type="line"/>
      <point x="446" y="393" type="line"/>
      <point x="465" y="500" type="line"/>
      <point x="81" y="500" type="line"/>
    </contour>
    <contour>
      <point x="338" y="530" type="line" smooth="yes"/>
      <point x="346" y="573"/>
      <point x="375" y="594"/>
      <point x="426" y="594" type="curve" smooth="yes"/>
      <point x="444" y="594"/>
      <point x="463" y="592"/>
      <point x="480" y="588" type="curve"/>
      <point x="499" y="696" type="line"/>
      <point x="479" y="702"/>
      <point x="450" y="705"/>
      <point x="417" y="705" type="curve" smooth="yes"/>
      <point x="294" y="705"/>
      <point x="218" y="647"/>
      <point x="199" y="537" type="curve" smooth="yes"/>
      <point x="104" y="0" type="line"/>
      <point x="244" y="0" type="line"/>
    </contour>
  </outline>
</glyph>
<glyph name="k" format="2">
  <advance width="550"/>
  <unicode hex="006B"/>
  <outline>
    <contour>
      <point x="17" y="0" type="line"/>
      <point x="157" y="0" type="line"/>
      <point x="281" y="700" type="line"/>
      <point x="141" y="700" type="line"/>
    </contour>
    <contour>
      <point x="140" y="259" type="line"/>
      <point x="112" y="93" type="line"/>
      <point x="290" y="248" type="line"/>
      <point x="332" y="271" type="line"/>
      <point x="594" y="500" type="line"/>
      <point x="416" y="500" type="line"/>
    </contour>
    <contour>
      <point x="219" y="263" type="line"/>
      <point x="356" y="0" type="line"/>
      <point x="506" y="0" type="line"/>
      <point x="326" y="347" type="line"/>
    </contour>
  </outline>
</glyph>
<glyph name="l" format="2">
  <advance width="300"/>
  <unicode hex="006C"/>
  <outline>
    <contour>
      <point x="159" y="700" type="line"/>
      <point x="36" y="0" type="line"/>
      <point x="176" y="0" type="line"/>
      <point x="299" y="700" type="line"/>
    </contour>
    <contour>
      <point x="140" y="593" type="line"/>
      <point x="280" y="593" type="line"/>
      <point x="299" y="700" type="line"/>
      <point x="159" y="700" type="line"/>
    </contour>
    <contour>
      <point x="36" y="0" type="line"/>
      <point x="176" y="0" type="line"/>
      <point x="195" y="107" type="line"/>
      <point x="55" y="107" type="line"/>
    </contour>
  </outline>
</glyph>
<glyph name="m" format="2">
  <advance width="880"/>
  <unicode hex="006D"/>
  <outline>
    <contour>
      <point x="35" y="0" type="line"/>
      <point x="175" y="0" type="line"/>
      <point x="228" y="297" type="line" smooth="yes"/>
      <point x="239" y="355"/>
      <point x="274" y="391"/>
      <point x="325" y="391" type="curve" smooth="yes"/>
      <point x="387" y="391"/>
      <point x="391" y="337"/>
      <point x="383" y="300" type="curve" smooth="yes"/>
      <point x="330" y="0" type="line"/>
      <point x="470" y="0" type="line"/>
      <point x="525" y="305" type="line" smooth="yes"/>
      <point x="534" y="355"/>
      <point x="571" y="392"/>
      <point x="621" y="392" type="curve" smooth="yes"/>
      <point x="685" y="392"/>
      <point x="685" y="336"/>
      <point x="678" y="302" type="curve" smooth="yes"/>
      <point x="625" y="0" type="line"/>
      <point x="765" y="0" type="line"/>
      <point x="824" y="329" type="line" smooth="yes"/>
      <point x="838" y="405"/>
      <point x="821" y="512"/>
      <point x="695" y="512" type="curve" smooth="yes"/>
      <point x="625" y="512"/>
      <point x="566" y="477"/>
      <point x="523" y="432" type="curve"/>
      <point x="504" y="482"/>
      <point x="462" y="512"/>
      <point x="398" y="512" type="curve" smooth="yes"/>
      <point x="336" y="512"/>
      <point x="289" y="482"/>
      <point x="253" y="443" type="curve"/>
      <point x="263" y="500" type="line"/>
      <point x="123" y="500" type="line"/>
    </contour>
  </outline>
</glyph>
<glyph name="n" format="2">
  <advance width="550"/>
  <unicode hex="006E"/>
  <outline>
    <contour>
      <point x="96" y="500" type="line"/>
      <point x="8" y="0" type="line"/>
      <point x="148" y="0" type="line"/>
      <point x="200" y="293" type="line" smooth="yes"/>
      <point x="211" y="353"/>
      <point x="249" y="391"/>
      <point x="304" y="391" type="curve" smooth="yes"/>
      <point x="352" y="391"/>
      <point x="373" y="361"/>
      <point x="373" y="320" type="curve" smooth="yes"/>
      <point x="373" y="312"/>
      <point x="372" y="304"/>
      <point x="371" y="296" type="curve" smooth="yes"/>
      <point x="319" y="0" type="line"/>
      <point x="459" y="0" type="line"/>
      <point x="517" y="327" type="line" smooth="yes"/>
      <point x="520" y="342"/>
      <point x="521" y="355"/>
      <point x="521" y="369" type="curve" smooth="yes"/>
      <point x="521" y="455"/>
      <point x="465" y="512"/>
      <point x="374" y="512" type="curve" smooth="yes"/>
      <point x="289" y="512"/>
      <point x="234" y="460"/>
      <point x="197" y="405" type="curve"/>
      <point x="220" y="405" type="line"/>
      <point x="236" y="500" type="line"/>
    </contour>
  </outline>
</glyph>
<glyph name="o" format="2">
  <advance width="550"/>
  <unicode hex="006F"/>
  <outline>
    <contour>
      <point x="384" y="285" type="curve" smooth="yes"/>
      <point x="384" y="201"/>
      <point x="343" y="104"/>
      <point x="253" y="104" type="curve" smooth="yes"/>
      <point x="198" y="104"/>
      <point x="166" y="142"/>
      <point x="166" y="215" type="curve" smooth="yes"/>
      <point x="166" y="299"/>
      <point x="207" y="396"/>
      <point x="297" y="396" type="curve" smooth="yes"/>
      <point x="352" y="396"/>
      <point x="384" y="358"/>
    </contour>
    <contour>
      <point x="242" y="-12" type="curve" smooth="yes"/>
      <point x="418" y="-12"/>
      <point x="525" y="137"/>
      <point x="525" y="292" type="curve" smooth="yes"/>
      <point x="525" y="427"/>
      <point x="436" y="512"/>
      <point x="308" y="512" type="curve" smooth="yes"/>
      <point x="132" y="512"/>
      <point x="25" y="363"/>
      <point x="25" y="208" type="curve" smooth="yes"/>
      <point x="25" y="73"/>
      <point x="114" y="-12"/>
    </contour>
  </outline>
</glyph>
<glyph name="r" format="2">
  <advance width="450"/>
  <unicode hex="0072"/>
  <outline>
    <contour>
      <point x="200" y="203" type="line" smooth="yes"/>
      <point x="219" y="309"/>
      <point x="278" y="376"/>
      <point x="385" y="376" type="curve" smooth="yes"/>
      <point x="407" y="376"/>
      <point x="422" y="374"/>
      <point x="437" y="371" type="curve"/>
      <point x="461" y="506" type="line"/>
      <point x="450" y="508"/>
      <point x="436" y="510"/>
      <point x="418" y="510" type="curve" smooth="yes"/>
      <point x="320" y="510"/>
      <point x="248" y="447"/>
      <point x="204" y="345" type="curve"/>
      <point x="226" y="347" type="line"/>
      <point x="253" y="500" type="line"/>
      <point x="113" y="500" type="line"/>
      <point x="25" y="0" type="line"/>
      <point x="165" y="0" type="line"/>
    </contour>
  </outline>
</glyph>
<glyph name="s" format="2">
  <advance width="500"/>
  <unicode hex="0073"/>
  <outline>
    <contour>
      <point x="10" y="176" type="line"/>
      <point x="9" y="169"/>
      <point x="8" y="161"/>
      <point x="8" y="151" type="curve" smooth="yes"/>
      <point x="8" y="53"/>
      <point x="82" y="-12"/>
      <point x="229" y="-12" type="curve" smooth="yes"/>
      <point x="381" y="-12"/>
      <point x="464" y="72"/>
      <point x="464" y="172" type="curve" smooth="yes"/>
      <point x="464" y="242"/>
      <point x="420" y="278"/>
      <point x="330" y="298" type="curve" smooth="yes"/>
      <point x="254" y="315" type="line" smooth="yes"/>
      <point x="209" y="325"/>
      <point x="194" y="339"/>
      <point x="194" y="359" type="curve" smooth="yes"/>
      <point x="194" y="384"/>
      <point x="218" y="413"/>
      <point x="269" y="413" type="curve" smooth="yes"/>
      <point x="319" y="413"/>
      <point x="341" y="388"/>
      <point x="341" y="352" type="curve" smooth="yes"/>
      <point x="341" y="349"/>
      <point x="341" y="347"/>
      <point x="341" y="345" type="curve"/>
      <point x="482" y="334" type="line"/>
      <point x="483" y="341"/>
      <point x="484" y="349"/>
      <point x="484" y="358" type="curve" smooth="yes"/>
      <point x="484" y="449"/>
      <point x="410" y="512"/>
      <point x="280" y="512" type="curve" smooth="yes"/>
      <point x="136" y="512"/>
      <point x="48" y="432"/>
      <point x="48" y="328" type="curve" smooth="yes"/>
      <point x="48" y="257"/>
      <point x="92" y="224"/>
      <point x="185" y="203" type="curve" smooth="yes"/>
      <point x="261" y="186" type="line" smooth="yes"/>
      <point x="306" y="176"/>
      <point x="317" y="159"/>
      <point x="317" y="141" type="curve" smooth="yes"/>
      <point x="317" y="117"/>
      <point x="295" y="88"/>
      <point x="238" y="88" type="curve" smooth="yes"/>
      <point x="177" y="88"/>
      <point x="154" y="118"/>
      <point x="154" y="154" type="curve" smooth="yes"/>
      <point x="154" y="156"/>
      <point x="154" y="159"/>
      <point x="154" y="161" type="curve"/>
    </contour>
  </outline>
</glyph>
<glyph name="t" format="2">
  <advance width="450"/>
  <unicode hex="0074"/>
  <guideline x="204" y="692" angle="90" name="center" identifier="juABln0Il6"/>
  <outline>
    <contour>
      <point x="43" y="393" type="line"/>
      <point x="436" y="393" type="line"/>
      <point x="455" y="500" type="line"/>
      <point x="62" y="500" type="line"/>
    </contour>
    <contour>
      <point x="114" y="159" type="line" smooth="yes"/>
      <point x="112" y="146"/>
      <point x="110" y="133"/>
      <point x="110" y="121" type="curve" smooth="yes"/>
      <point x="110" y="37"/>
      <point x="168" y="-12"/>
      <point x="278" y="-12" type="curve" smooth="yes"/>
      <point x="312" y="-12"/>
      <point x="344" y="-9"/>
      <point x="367" y="-4" type="curve"/>
      <point x="387" y="105" type="line"/>
      <point x="370" y="102"/>
      <point x="349" y="101"/>
      <point x="330" y="101" type="curve" smooth="yes"/>
      <point x="277" y="101"/>
      <point x="254" y="118"/>
      <point x="254" y="153" type="curve" smooth="yes"/>
      <point x="254" y="158"/>
      <point x="255" y="164"/>
      <point x="256" y="170" type="curve" smooth="yes"/>
      <point x="339" y="643" type="line"/>
      <point x="199" y="643" type="line"/>
    </contour>
  </outline>
</glyph>
<glyph name="u" format="2">
  <advance width="550"/>
  <unicode hex="0075"/>
  <outline>
    <contour>
      <point x="454" y="0" type="line"/>
      <point x="542" y="500" type="line"/>
      <point x="402" y="500" type="line"/>
      <point x="350" y="207" type="line" smooth="yes"/>
      <point x="339" y="147"/>
      <point x="302" y="109"/>
      <point x="247" y="109" type="curve" smooth="yes"/>
      <point x="199" y="109"/>
      <point x="176" y="139"/>
      <point x="176" y="180" type="curve" smooth="yes"/>
      <point x="176" y="188"/>
      <point x="177" y="196"/>
      <point x="178" y="204" type="curve" smooth="yes"/>
      <point x="230" y="500" type="line"/>
      <point x="90" y="500" type="line"/>
      <point x="32" y="173" type="line" smooth="yes"/>
      <point x="29" y="158"/>
      <point x="28" y="145"/>
      <point x="28" y="131" type="curve" smooth="yes"/>
      <point x="28" y="45"/>
      <point x="87" y="-12"/>
      <point x="177" y="-12" type="curve" smooth="yes"/>
      <point x="263" y="-12"/>
      <point x="316" y="40"/>
      <point x="353" y="95" type="curve"/>
      <point x="330" y="95" type="line"/>
      <point x="314" y="0" type="line"/>
    </contour>
  </outline>
</glyph>
<glyph name="v" format="2">
  <advance width="550"/>
  <unicode hex="0076"/>
  <outline>
    <contour>
      <point x="154" y="0" type="line"/>
      <point x="309" y="0" type="line"/>
      <point x="589" y="500" type="line"/>
      <point x="439" y="500" type="line"/>
      <point x="192" y="39" type="line"/>
      <point x="280" y="39" type="line"/>
      <point x="193" y="500" type="line"/>
      <point x="49" y="500" type="line"/>
    </contour>
  </outline>
</glyph>
<glyph name="x" format="2">
  <advance width="500"/>
  <unicode hex="0078"/>
  <outline>
    <contour>
      <point x="46" y="500" type="line"/>
      <point x="183" y="228" type="line"/>
      <point x="209" y="228" type="line"/>
      <point x="323" y="0" type="line"/>
      <point x="469" y="0" type="line"/>
      <point x="325" y="276" type="line"/>
      <point x="297" y="281" type="line"/>
      <point x="194" y="500" type="line"/>
    </contour>
    <contour>
      <point x="541" y="500" type="line"/>
      <point x="388" y="500" type="line"/>
      <point x="207" y="281" type="line"/>
      <point x="184" y="278" type="line"/>
      <point x="-56" y="0" type="line"/>
      <point x="102" y="0" type="line"/>
      <point x="295" y="229" type="line"/>
      <point x="310" y="226" type="line"/>
    </contour>
  </outline>
</glyph>
<glyph name="y" format="2">
  <advance width="550"/>
  <unicode hex="0079"/>
  <outline>
    <contour>
      <point x="195" y="-180" type="line"/>
      <point x="587" y="500" type="line"/>
      <point x="432" y="500" type="line"/>
      <point x="188" y="58" type="line"/>
      <point x="167" y="32" type="line"/>
      <point x="38" y="-180" type="line"/>
    </contour>
    <contour>
      <point x="52" y="500" type="line"/>
      <point x="180" y="-61" type="line"/>
      <point x="284" y="116" type="line"/>
      <point x="201" y="500" type="line"/>
    </contour>
  </outline>
</glyph>
<glyph name="z" format="2">
  <advance width="500"/>
  <unicode hex="007A"/>
  <outline>
    <contour>
      <point x="10" y="96" type="line"/>
      <point x="-7" y="0" type="line"/>
      <point x="421" y="0" type="line"/>
      <point x="440" y="108" type="line"/>
      <point x="65" y="108" type="line"/>
      <point x="149" y="66" type="line"/>
      <point x="490" y="410" type="line"/>
      <point x="506" y="500" type="line"/>
      <point x="80" y="500" type="line"/>
      <point x="61" y="390" type="line"/>
      <point x="439" y="390" type="line"/>
      <point x="352" y="441" type="line"/>
    </contour>
  </outline>
</glyph>
<glyph name="braceleft" format="2">
  <advance width="600"/>
  <unicode hex="007B"/>
  <outline>
    <contour>
      <point x="351" y="172" type="line"/>
      <point x="365" y="251"/>
      <point x="351" y="299"/>
      <point x="295" y="316" type="curve"/>
      <point x="367" y="326"/>
      <point x="387" y="371"/>
      <point x="399" y="440" type="curve" smooth="yes"/>
      <point x="421" y="566" type="line" smooth="yes"/>
      <point x="431" y="623"/>
      <point x="461" y="642"/>
      <point x="506" y="642" type="curve" smooth="yes"/>
      <point x="552" y="642" type="line"/>
      <point x="570" y="745" type="line"/>
      <point x="489" y="745" type="line" smooth="yes"/>
      <point x="376" y="745"/>
      <point x="296" y="679"/>
      <point x="279" y="584" type="curve" smooth="yes"/>
      <point x="255" y="450" type="line" smooth="yes"/>
      <point x="246" y="397"/>
      <point x="226" y="375"/>
      <point x="183" y="375" type="curve" smooth="yes"/>
      <point x="140" y="375" type="line"/>
      <point x="119" y="257" type="line"/>
      <point x="152" y="257" type="line" smooth="yes"/>
      <point x="197" y="257"/>
      <point x="217" y="235"/>
      <point x="206" y="172" type="curve" smooth="yes"/>
      <point x="188" y="68" type="line" smooth="yes"/>
      <point x="172" y="-25"/>
      <point x="211" y="-113"/>
      <point x="352" y="-113" type="curve" smooth="yes"/>
      <point x="419" y="-113" type="line"/>
      <point x="437" y="-9" type="line"/>
      <point x="394" y="-9" type="line" smooth="yes"/>
      <point x="349" y="-9"/>
      <point x="325" y="24"/>
      <point x="332" y="65" type="curve" smooth="yes"/>
    </contour>
  </outline>
</glyph>
<glyph name="asciitilde" format="2">
  <advance width="550"/>
  <unicode hex="007E"/>
  <outline>
    <contour>
      <point x="373" y="232" type="curve" smooth="yes"/>
      <point x="437" y="232"/>
      <point x="515" y="294" name="inserted"/>
      <point x="541" y="408" type="curve"/>
      <point x="437" y="408" type="line"/>
      <point x="424" y="371"/>
      <point x="397" y="352" name="inserted"/>
      <point x="368" y="352" type="curve" smooth="yes"/>
      <point x="320" y="352"/>
      <point x="261" y="400" name="inserted"/>
      <point x="201" y="400" type="curve" smooth="yes"/>
      <point x="137" y="400"/>
      <point x="59" y="339" name="inserted"/>
      <point x="34" y="225" type="curve"/>
      <point x="138" y="225" type="line"/>
      <point x="150" y="262"/>
      <point x="177" y="280" name="inserted"/>
      <point x="206" y="280" type="curve" smooth="yes"/>
      <point x="254" y="280"/>
      <point x="313" y="232" name="inserted"/>
    </contour>
  </outline>
</glyph>
<glyph name="brokenbar" format="2">
  <advance width="300"/>
  <unicode hex="00A6"/>
  <outline>
    <contour>
      <point x="166" y="745" type="line"/>
      <point x="100" y="367" type="line"/>
      <point x="243" y="367" type="line"/>
      <point x="309" y="745" type="line"/>
    </contour>
    <contour>
      <point x="82" y="265" type="line"/>
      <point x="15" y="-113" type="line"/>
      <point x="158" y="-113" type="line"/>
      <point x="225" y="265" type="line"/>
    </contour>
  </outline>
</glyph>
<glyph name="section" format="2">
  <advance width="550"/>
  <unicode hex="00A7"/>
  <outline>
    <contour>
      <point x="395" y="105" type="line"/>
      <point x="485" y="175"/>
      <point x="525" y="231"/>
      <point x="525" y="307" type="curve" smooth="yes"/>
      <point x="525" y="372"/>
      <point x="488" y="420"/>
      <point x="398" y="453" type="curve" smooth="yes"/>
      <point x="303" y="488" type="line" smooth="yes"/>
      <point x="257" y="505"/>
      <point x="241" y="525"/>
      <point x="241" y="547" type="curve" smooth="yes"/>
      <point x="241" y="569"/>
      <point x="257" y="613"/>
      <point x="327" y="613" type="curve" smooth="yes"/>
      <point x="379" y="613"/>
      <point x="407" y="586"/>
      <point x="407" y="546" type="curve" smooth="yes"/>
      <point x="407" y="543"/>
      <point x="407" y="540"/>
      <point x="407" y="537" type="curve"/>
      <point x="546" y="525" type="line"/>
      <point x="547" y="533"/>
      <point x="548" y="543"/>
      <point x="548" y="553" type="curve" smooth="yes"/>
      <point x="548" y="649"/>
      <point x="469" y="712"/>
      <point x="338" y="712" type="curve" smooth="yes"/>
      <point x="175" y="712"/>
      <point x="98" y="620"/>
      <point x="98" y="518" type="curve" smooth="yes"/>
      <point x="98" y="453"/>
      <point x="139" y="411"/>
      <point x="230" y="377" type="curve" smooth="yes"/>
      <point x="325" y="342" type="line" smooth="yes"/>
      <point x="367" y="326"/>
      <point x="384" y="302"/>
      <point x="384" y="272" type="curve" smooth="yes"/>
      <point x="384" y="249"/>
      <point x="375" y="222"/>
      <point x="309" y="169" type="curve"/>
    </contour>
    <contour>
      <point x="5" y="80" type="line"/>
      <point x="3" y="69"/>
      <point x="2" y="56"/>
      <point x="2" y="44" type="curve" smooth="yes"/>
      <point x="2" y="-64"/>
      <point x="82" y="-126"/>
      <point x="228" y="-126" type="curve" smooth="yes"/>
      <point x="394" y="-126"/>
      <point x="469" y="-39"/>
      <point x="469" y="69" type="curve" smooth="yes"/>
      <point x="469" y="139"/>
      <point x="422" y="186"/>
      <point x="335" y="218" type="curve" smooth="yes"/>
      <point x="240" y="253" type="line" smooth="yes"/>
      <point x="196" y="269"/>
      <point x="181" y="289"/>
      <point x="181" y="318" type="curve" smooth="yes"/>
      <point x="181" y="346"/>
      <point x="205" y="387"/>
      <point x="268" y="424" type="curve"/>
      <point x="198" y="486" type="line"/>
      <point x="98" y="432"/>
      <point x="45" y="362"/>
      <point x="45" y="281" type="curve" smooth="yes"/>
      <point x="45" y="217"/>
      <point x="82" y="172"/>
      <point x="169" y="140" type="curve" smooth="yes"/>
      <point x="264" y="105" type="line" smooth="yes"/>
      <point x="307" y="89"/>
      <point x="325" y="67"/>
      <point x="325" y="40" type="curve" smooth="yes"/>
      <point x="325" y="10"/>
      <point x="301" y="-26"/>
      <point x="236" y="-26" type="curve" smooth="yes"/>
      <point x="178" y="-26"/>
      <point x="147" y="1"/>
      <point x="147" y="48" type="curve" smooth="yes"/>
      <point x="147" y="53"/>
      <point x="147" y="57"/>
      <point x="148" y="63" type="curve"/>
    </contour>
  </outline>
</glyph>
<glyph name="copyright" format="2">
  <advance width="760"/>
  <unicode hex="00A9"/>
  <outline>
    <contour>
      <point x="359" y="48" type="curve" smooth="yes"/>
      <point x="580" y="48"/>
      <point x="737" y="217"/>
      <point x="737" y="424" type="curve" smooth="yes"/>
      <point x="737" y="587"/>
      <point x="618" y="710"/>
      <point x="447" y="710" type="curve" smooth="yes"/>
      <point x="225" y="710"/>
      <point x="68" y="542"/>
      <point x="68" y="336" type="curve" smooth="yes"/>
      <point x="68" y="173"/>
      <point x="187" y="48"/>
    </contour>
    <contour>
      <point x="383" y="196" type="curve" smooth="yes"/>
      <point x="461" y="196"/>
      <point x="531" y="239"/>
      <point x="559" y="307" type="curve"/>
      <point x="476" y="336" type="line"/>
      <point x="459" y="301"/>
      <point x="433" y="279"/>
      <point x="395" y="279" type="curve" smooth="yes"/>
      <point x="352" y="279"/>
      <point x="322" y="308"/>
      <point x="322" y="358" type="curve" smooth="yes"/>
      <point x="322" y="420"/>
      <point x="361" y="479"/>
      <point x="423" y="479" type="curve" smooth="yes"/>
      <point x="463" y="479"/>
      <point x="486" y="456"/>
      <point x="489" y="418" type="curve"/>
      <point x="579" y="440" type="line"/>
      <point x="572" y="513"/>
      <point x="514" y="563"/>
      <point x="434" y="563" type="curve" smooth="yes"/>
      <point x="309" y="563"/>
      <point x="226" y="467"/>
      <point x="226" y="350" type="curve" smooth="yes"/>
      <point x="226" y="260"/>
      <point x="288" y="196"/>
    </contour>
    <contour>
      <point x="369" y="127" type="curve" smooth="yes"/>
      <point x="239" y="127"/>
      <point x="154" y="215"/>
      <point x="154" y="340" type="curve" smooth="yes"/>
      <point x="154" y="502"/>
      <point x="273" y="631"/>
      <point x="437" y="631" type="curve" smooth="yes"/>
      <point x="567" y="631"/>
      <point x="652" y="545"/>
      <point x="652" y="419" type="curve" smooth="yes"/>
      <point x="652" y="257"/>
      <point x="533" y="127"/>
    </contour>
  </outline>
</glyph>
<glyph name="ordfeminine" format="2">
  <advance width="450"/>
  <unicode hex="00AA"/>
  <outline>
    <contour>
      <point x="292" y="712" type="curve" smooth="yes"/>
      <point x="175" y="712"/>
      <point x="120" y="648"/>
      <point x="105" y="589" type="curve"/>
      <point x="219" y="567" type="line"/>
      <point x="226" y="602"/>
      <point x="238" y="624"/>
      <point x="282" y="624" type="curve" smooth="yes"/>
      <point x="323" y="624"/>
      <point x="336.0" y="606.0"/>
      <point x="330" y="570" type="curve" smooth="yes"/>
      <point x="309" y="452" type="line" smooth="yes"/>
      <point x="301" y="410"/>
      <point x="268" y="383"/>
      <point x="224" y="383" type="curve" smooth="yes"/>
      <point x="194" y="383"/>
      <point x="177" y="395"/>
      <point x="177" y="421" type="curve" smooth="yes"/>
      <point x="177" y="448"/>
      <point x="196" y="467"/>
      <point x="247" y="471" type="curve" smooth="yes"/>
      <point x="373" y="482" type="line"/>
      <point x="386" y="558" type="line"/>
      <point x="217" y="545" type="line" smooth="yes"/>
      <point x="118" y="538"/>
      <point x="59" y="490"/>
      <point x="59" y="411" type="curve" smooth="yes"/>
      <point x="59" y="340"/>
      <point x="110" y="300"/>
      <point x="190" y="300" type="curve" smooth="yes"/>
      <point x="257" y="300"/>
      <point x="300" y="331"/>
      <point x="336" y="384" type="curve"/>
      <point x="308" y="385" type="line"/>
      <point x="300" y="318"/>
      <point x="344.78947" y="298.17544"/>
      <point x="397" y="296" type="curve" smooth="yes"/>
      <point x="409" y="296"/>
      <point x="417" y="296"/>
      <point x="427" y="297" type="curve"/>
      <point x="441" y="381" type="line"/>
      <point x="439" y="381"/>
      <point x="438" y="381"/>
      <point x="435" y="381" type="curve" smooth="yes"/>
      <point x="423" y="381"/>
      <point x="414" y="388"/>
      <point x="417" y="408" type="curve" smooth="yes"/>
      <point x="446" y="574" type="line" smooth="yes"/>
      <point x="463" y="661"/>
      <point x="405.04348" y="712.0"/>
    </contour>
  </outline>
</glyph>
<glyph name="logicalnot" format="2">
  <advance width="680"/>
  <unicode hex="00AC"/>
  <outline>
    <contour>
      <point x="448" y="52" type="line"/>
      <point x="582" y="52" type="line"/>
      <point x="644" y="403" type="line"/>
      <point x="91" y="403" type="line"/>
      <point x="68" y="275" type="line"/>
      <point x="554" y="275" type="line"/>
      <point x="499" y="338" type="line"/>
    </contour>
  </outline>
</glyph>
<glyph name="registered" format="2">
  <advance width="550"/>
  <unicode hex="00AE"/>
  <outline>
    <contour>
      <point x="542" y="513" type="curve" smooth="yes"/>
      <point x="542" y="622"/>
      <point x="463" y="705"/>
      <point x="345" y="705" type="curve" smooth="yes"/>
      <point x="197" y="705"/>
      <point x="90" y="593"/>
      <point x="90" y="451" type="curve" smooth="yes"/>
      <point x="90" y="342"/>
      <point x="169" y="259"/>
      <point x="287" y="259" type="curve" smooth="yes"/>
      <point x="435" y="259"/>
      <point x="542" y="371"/>
    </contour>
    <contour>
      <point x="337" y="647" type="curve" smooth="yes"/>
      <point x="426" y="647"/>
      <point x="479" y="590"/>
      <point x="479" y="509" type="curve" smooth="yes"/>
      <point x="479" y="415"/>
      <point x="413" y="317"/>
      <point x="295" y="317" type="curve" smooth="yes"/>
      <point x="206" y="317"/>
      <point x="153" y="374"/>
      <point x="153" y="455" type="curve" smooth="yes"/>
      <point x="153" y="549"/>
      <point x="219" y="647"/>
    </contour>
    <contour>
      <point x="241" y="589" type="line"/>
      <point x="203" y="375" type="line"/>
      <point x="266" y="375" type="line"/>
      <point x="304" y="589" type="line"/>
    </contour>
    <contour>
      <point x="289" y="452" type="line"/>
      <point x="304" y="424"/>
      <point x="323" y="399"/>
      <point x="340" y="375" type="curve"/>
      <point x="408" y="375" type="line"/>
      <point x="408" y="377" type="line"/>
      <point x="392" y="400"/>
      <point x="372" y="425"/>
      <point x="356" y="452" type="curve"/>
    </contour>
    <contour>
      <point x="331" y="494" type="curve" smooth="yes"/>
      <point x="243" y="494" type="line"/>
      <point x="234" y="443" type="line"/>
      <point x="324" y="443" type="line" smooth="yes"/>
      <point x="400" y="443"/>
      <point x="424" y="485"/>
      <point x="424" y="526" type="curve"/>
      <point x="424" y="566"/>
      <point x="398" y="589"/>
      <point x="348" y="589" type="curve" smooth="yes"/>
      <point x="261" y="589" type="line"/>
      <point x="252" y="536" type="line"/>
      <point x="339" y="536" type="line" smooth="yes"/>
      <point x="353" y="536"/>
      <point x="359" y="529"/>
      <point x="359" y="518" type="curve" smooth="yes"/>
      <point x="359" y="504"/>
      <point x="350" y="494"/>
    </contour>
  </outline>
</glyph>
<glyph name="degree" format="2">
  <advance width="450"/>
  <unicode hex="00B0"/>
  <outline>
    <contour>
      <point x="437" y="565" type="curve" smooth="yes"/>
      <point x="437" y="647"/>
      <point x="375" y="708"/>
      <point x="290" y="708" type="curve" smooth="yes"/>
      <point x="185" y="708"/>
      <point x="119" y="623"/>
      <point x="119" y="535" type="curve" smooth="yes"/>
      <point x="119" y="453"/>
      <point x="181" y="392"/>
      <point x="266" y="392" type="curve" smooth="yes"/>
      <point x="371" y="392"/>
      <point x="437" y="477"/>
    </contour>
    <contour>
      <point x="283" y="614" type="curve" smooth="yes"/>
      <point x="316" y="614"/>
      <point x="338" y="591"/>
      <point x="338" y="556" type="curve" smooth="yes"/>
      <point x="338" y="518"/>
      <point x="312" y="486"/>
      <point x="273" y="486" type="curve" smooth="yes"/>
      <point x="240" y="486"/>
      <point x="218" y="509"/>
      <point x="218" y="544" type="curve" smooth="yes"/>
      <point x="218" y="582"/>
      <point x="244" y="614"/>
    </contour>
  </outline>
</glyph>
<glyph name="plusminus" format="2">
  <advance width="600"/>
  <unicode hex="00B1"/>
  <outline>
    <contour>
      <point x="564" y="361" type="line"/>
      <point x="585" y="481" type="line"/>
      <point x="97" y="481" type="line"/>
      <point x="76" y="361" type="line"/>
    </contour>
    <contour>
      <point x="437" y="667" type="line"/>
      <point x="311" y="667" type="line"/>
      <point x="224" y="175" type="line"/>
      <point x="350" y="175" type="line"/>
    </contour>
    <contour>
      <point x="500" y="0" type="line"/>
      <point x="521" y="120" type="line"/>
      <point x="33" y="120" type="line"/>
      <point x="12" y="0" type="line"/>
    </contour>
  </outline>
</glyph>
<glyph name="paragraph" format="2">
  <advance width="680"/>
  <unicode hex="00B6"/>
  <outline>
    <contour>
      <point x="511" y="700" type="line"/>
      <point x="399" y="700" type="line"/>
      <point x="255" y="-113" type="line"/>
      <point x="367" y="-113" type="line"/>
    </contour>
    <contour>
      <point x="673" y="700" type="line"/>
      <point x="561" y="700" type="line"/>
      <point x="417" y="-113" type="line"/>
      <point x="529" y="-113" type="line"/>
    </contour>
    <contour>
      <point x="380" y="280" type="line"/>
      <point x="439" y="610" type="line"/>
      <point x="721" y="610" type="line"/>
      <point x="737" y="700" type="line"/>
      <point x="325" y="700" type="line" smooth="yes"/>
      <point x="171" y="700"/>
      <point x="71" y="591"/>
      <point x="71" y="460" type="curve" smooth="yes"/>
      <point x="71" y="352"/>
      <point x="142" y="280"/>
      <point x="259" y="280" type="curve" smooth="yes"/>
    </contour>
  </outline>
</glyph>
<glyph name="ordmasculine" format="2">
  <advance width="450"/>
  <unicode hex="00BA"/>
  <outline>
    <contour>
      <point x="354" y="537" type="curve" smooth="yes"/>
      <point x="354" y="473"/>
      <point x="324" y="393"/>
      <point x="253" y="393" type="curve" smooth="yes"/>
      <point x="211" y="393"/>
      <point x="186" y="421"/>
      <point x="186" y="473" type="curve" smooth="yes"/>
      <point x="186" y="537"/>
      <point x="216" y="617"/>
      <point x="287" y="617" type="curve" smooth="yes"/>
      <point x="329" y="617"/>
      <point x="354" y="589"/>
    </contour>
    <contour>
      <point x="67" y="469" type="curve" smooth="yes"/>
      <point x="67" y="363"/>
      <point x="137" y="298"/>
      <point x="241" y="298" type="curve" smooth="yes"/>
      <point x="393" y="298"/>
      <point x="473" y="418"/>
      <point x="473" y="541" type="curve" smooth="yes"/>
      <point x="473" y="647"/>
      <point x="403" y="712"/>
      <point x="299" y="712" type="curve" smooth="yes"/>
      <point x="147" y="712"/>
      <point x="67" y="592"/>
    </contour>
  </outline>
</glyph>
<glyph name="AE" format="2">
  <advance width="760"/>
  <unicode hex="00C6"/>
  <outline>
    <contour>
      <point x="-18" y="0" type="line"/>
      <point x="130" y="0" type="line"/>
      <point x="382" y="576" type="line"/>
      <point x="453" y="576" type="line"/>
      <point x="475" y="700" type="line"/>
      <point x="294" y="700" type="line"/>
    </contour>
    <contour>
      <point x="140" y="161" type="line"/>
      <point x="408" y="161" type="line"/>
      <point x="429" y="283" type="line"/>
      <point x="161" y="283" type="line"/>
    </contour>
    <contour>
      <point x="373" y="0" type="line"/>
      <point x="676" y="0" type="line"/>
      <point x="698" y="124" type="line"/>
      <point x="395" y="124" type="line"/>
    </contour>
    <contour>
      <point x="311" y="0" type="line"/>
      <point x="450" y="0" type="line"/>
      <point x="573" y="700" type="line"/>
      <point x="434" y="700" type="line"/>
    </contour>
    <contour>
      <point x="431" y="294" type="line"/>
      <point x="642" y="294" type="line"/>
      <point x="663" y="417" type="line"/>
      <point x="452" y="417" type="line"/>
    </contour>
    <contour>
      <point x="470" y="576" type="line"/>
      <point x="759" y="576" type="line"/>
      <point x="781" y="700" type="line"/>
      <point x="492" y="700" type="line"/>
    </contour>
  </outline>
</glyph>
<glyph name="Icircumflex" format="2">
  <advance width="300"/>
  <unicode hex="00CE"/>
  <outline>
    <contour>
      <point x="218" y="892" type="line"/>
      <point x="74" y="760" type="line"/>
      <point x="201" y="760" type="line"/>
      <point x="337" y="845" type="line"/>
      <point x="229" y="845" type="line"/>
      <point x="335" y="760" type="line"/>
      <point x="454" y="760" type="line"/>
      <point x="358" y="892" type="line"/>
    </contour>
    <component base="I" xOffset="25" identifier="C4CAB994"/>
  </outline>
</glyph>
<glyph name="Idieresis" format="2">
  <advance width="300"/>
  <unicode hex="00CF"/>
  <outline>
    <contour>
      <point x="109" y="899" type="line"/>
      <point x="85" y="760" type="line"/>
      <point x="234" y="760" type="line"/>
      <point x="258" y="899" type="line"/>
    </contour>
    <contour>
      <point x="320" y="899" type="line"/>
      <point x="296" y="760" type="line"/>
      <point x="445" y="760" type="line"/>
      <point x="469" y="899" type="line"/>
    </contour>
    <component base="I" xOffset="25" identifier="2F70B67C"/>
  </outline>
</glyph>
<glyph name="Eth" format="2">
  <advance width="760"/>
  <unicode hex="00D0"/>
  <outline>
    <contour>
      <point x="52" y="0" type="line"/>
      <point x="202" y="0" type="line"/>
      <point x="326" y="700" type="line"/>
      <point x="176" y="700" type="line"/>
    </contour>
    <contour>
      <point x="136" y="123" type="line"/>
      <point x="114" y="0" type="line"/>
      <point x="312" y="0" type="line" smooth="yes"/>
      <point x="593" y="0"/>
      <point x="739" y="186"/>
      <point x="739" y="408" type="curve" smooth="yes"/>
      <point x="739" y="580"/>
      <point x="636" y="700"/>
      <point x="434" y="700" type="curve" smooth="yes"/>
      <point x="238" y="700" type="line"/>
      <point x="216" y="577" type="line"/>
      <point x="407" y="577" type="line" smooth="yes"/>
      <point x="511" y="577"/>
      <point x="583" y="525"/>
      <point x="583" y="396" type="curve" smooth="yes"/>
      <point x="583" y="243"/>
      <point x="484" y="123"/>
      <point x="327" y="123" type="curve" smooth="yes"/>
    </contour>
    <contour>
      <point x="43" y="297" type="line"/>
      <point x="414" y="297" type="line"/>
      <point x="435" y="418" type="line"/>
      <point x="64" y="418" type="line"/>
    </contour>
  </outline>
</glyph>
<glyph name="multiply" format="2">
  <advance width="600"/>
  <unicode hex="00D7"/>
  <outline>
    <contour>
      <point x="45" y="187" type="line"/>
      <point x="116" y="101" type="line"/>
      <point x="577" y="493" type="line"/>
      <point x="506" y="579" type="line"/>
    </contour>
    <contour>
      <point x="427" y="105" type="line"/>
      <point x="518" y="183" type="line"/>
      <point x="195" y="575" type="line"/>
      <point x="104" y="497" type="line"/>
    </contour>
  </outline>
</glyph>
<glyph name="Thorn" format="2">
  <advance width="680"/>
  <unicode hex="00DE"/>
  <outline>
    <contour>
      <point x="147" y="700" type="line"/>
      <point x="23" y="0" type="line"/>
      <point x="173" y="0" type="line"/>
      <point x="297" y="700" type="line"/>
    </contour>
    <contour>
      <point x="422" y="440" type="line" smooth="yes"/>
      <point x="480" y="440"/>
      <point x="510" y="416"/>
      <point x="510" y="368" type="curve" smooth="yes"/>
      <point x="510" y="318"/>
      <point x="474" y="270"/>
      <point x="392" y="270" type="curve" smooth="yes"/>
      <point x="143" y="270" type="line"/>
      <point x="121" y="147" type="line"/>
      <point x="385" y="147" type="line" smooth="yes"/>
      <point x="590" y="147"/>
      <point x="665" y="266"/>
      <point x="665" y="390" type="curve" smooth="yes"/>
      <point x="665" y="493"/>
      <point x="605" y="563"/>
      <point x="457" y="563" type="curve" smooth="yes"/>
      <point x="195" y="563" type="line"/>
      <point x="173" y="440" type="line"/>
    </contour>
  </outline>
</glyph>
<glyph name="germandbls" format="2">
  <advance width="550"/>
  <unicode hex="00DF"/>
  <outline>
    <contour>
      <point x="94" y="513" type="curve" smooth="yes"/>
      <point x="3" y="0" type="line"/>
      <point x="143" y="0" type="line"/>
      <point x="234" y="510" type="line" smooth="yes"/>
      <point x="244" y="564"/>
      <point x="277" y="604"/>
      <point x="335" y="604" type="curve" smooth="yes"/>
      <point x="379" y="604"/>
      <point x="410" y="579"/>
      <point x="410" y="529" type="curve" smooth="yes"/>
      <point x="410" y="478"/>
      <point x="377" y="423"/>
      <point x="298" y="423" type="curve" smooth="yes"/>
      <point x="272" y="423" type="line"/>
      <point x="253" y="316" type="line"/>
      <point x="277" y="316" type="line" smooth="yes"/>
      <point x="347" y="316"/>
      <point x="389" y="289"/>
      <point x="389" y="221" type="curve" smooth="yes"/>
      <point x="389" y="162"/>
      <point x="356" y="101"/>
      <point x="275" y="101" type="curve" smooth="yes"/>
      <point x="247" y="101"/>
      <point x="227" y="108"/>
      <point x="212" y="115" type="curve"/>
      <point x="192" y="2" type="line"/>
      <point x="207" y="-2"/>
      <point x="244" y="-12"/>
      <point x="290" y="-12" type="curve" smooth="yes"/>
      <point x="458" y="-12"/>
      <point x="531" y="122"/>
      <point x="531" y="224" type="curve" smooth="yes"/>
      <point x="531" y="314"/>
      <point x="482" y="356"/>
      <point x="428" y="373" type="curve"/>
      <point x="427" y="367" type="line"/>
      <point x="484" y="388"/>
      <point x="552" y="451"/>
      <point x="552" y="546" type="curve" smooth="yes"/>
      <point x="552" y="647"/>
      <point x="477" y="712"/>
      <point x="349" y="712" type="curve" smooth="yes"/>
      <point x="206" y="712"/>
      <point x="114" y="628"/>
    </contour>
  </outline>
</glyph>
<glyph name="ae" format="2">
  <advance width="760"/>
  <unicode hex="00E6"/>
  <outline>
    <contour>
      <point x="23" y="133" type="curve" smooth="yes"/>
      <point x="23" y="41"/>
      <point x="92" y="-12"/>
      <point x="182" y="-12" type="curve" smooth="yes"/>
      <point x="338" y="-12"/>
      <point x="390" y="125"/>
      <point x="407" y="223" type="curve" smooth="yes"/>
      <point x="438" y="352" type="line" smooth="yes"/>
      <point x="439" y="361"/>
      <point x="440" y="370"/>
      <point x="440" y="378" type="curve" smooth="yes"/>
      <point x="440" y="453"/>
      <point x="383" y="512"/>
      <point x="279" y="512" type="curve" smooth="yes"/>
      <point x="161" y="512"/>
      <point x="96" y="449"/>
      <point x="72" y="355" type="curve"/>
      <point x="194" y="331" type="line"/>
      <point x="207" y="382"/>
      <point x="226" y="406"/>
      <point x="271" y="406" type="curve" smooth="yes"/>
      <point x="305" y="406"/>
      <point x="327" y="392"/>
      <point x="327" y="360" type="curve" smooth="yes"/>
      <point x="327" y="355"/>
      <point x="326" y="349"/>
      <point x="325" y="344" type="curve" smooth="yes"/>
      <point x="293" y="158" type="line" smooth="yes"/>
      <point x="286" y="116"/>
      <point x="251" y="89"/>
      <point x="207" y="89" type="curve" smooth="yes"/>
      <point x="169" y="89"/>
      <point x="149" y="111"/>
      <point x="149" y="141" type="curve" smooth="yes"/>
      <point x="149" y="181"/>
      <point x="179" y="202"/>
      <point x="238" y="205" type="curve" smooth="yes"/>
      <point x="367" y="212" type="line"/>
      <point x="385" y="312" type="line"/>
      <point x="223" y="305" type="line" smooth="yes"/>
      <point x="107" y="300"/>
      <point x="23" y="240"/>
    </contour>
    <contour>
      <point x="320" y="186" type="curve" smooth="yes"/>
      <point x="320" y="58"/>
      <point x="385" y="-12"/>
      <point x="495" y="-12" type="curve" smooth="yes"/>
      <point x="579" y="-12"/>
      <point x="653" y="33"/>
      <point x="697" y="131" type="curve"/>
      <point x="583" y="163" type="line"/>
      <point x="563" y="115"/>
      <point x="536" y="96"/>
      <point x="502" y="96" type="curve" smooth="yes"/>
      <point x="461" y="96"/>
      <point x="433" y="116"/>
      <point x="433" y="184" type="curve" smooth="yes"/>
      <point x="433" y="252"/>
      <point x="459" y="402"/>
      <point x="542" y="402" type="curve" smooth="yes"/>
      <point x="577" y="402"/>
      <point x="602" y="381"/>
      <point x="602" y="321" type="curve" smooth="yes"/>
      <point x="602" y="302"/>
      <point x="600" y="279"/>
      <point x="594" y="250" type="curve"/>
      <point x="666" y="308" type="line"/>
      <point x="382" y="308" type="line"/>
      <point x="366" y="205" type="line"/>
      <point x="712" y="205" type="line"/>
      <point x="716" y="229" type="line" smooth="yes"/>
      <point x="722" y="262"/>
      <point x="725" y="285"/>
      <point x="725" y="314" type="curve" smooth="yes"/>
      <point x="725" y="440"/>
      <point x="661" y="512"/>
      <point x="556" y="512" type="curve" smooth="yes"/>
      <point x="398" y="512"/>
      <point x="320" y="333"/>
    </contour>
  </outline>
</glyph>
<glyph name="icircumflex" format="2">
  <advance width="300"/>
  <unicode hex="00EE"/>
  <outline>
    <contour>
      <point x="161" y="700" type="line"/>
      <point x="27" y="564" type="line"/>
      <point x="144" y="564" type="line"/>
      <point x="277" y="662" type="line"/>
      <point x="171" y="662" type="line"/>
      <point x="270" y="564" type="line"/>
      <point x="381" y="564" type="line"/>
      <point x="295" y="700" type="line"/>
    </contour>
    <component base="dotlessi" identifier="47D53FF1"/>
  </outline>
</glyph>
<glyph name="idieresis" format="2">
  <advance width="300"/>
  <unicode hex="00EF"/>
  <outline>
    <contour>
      <point x="62" y="700" type="line"/>
      <point x="38" y="564" type="line"/>
      <point x="178" y="564" type="line"/>
      <point x="202" y="700" type="line"/>
    </contour>
    <contour>
      <point x="254" y="700" type="line"/>
      <point x="230" y="564" type="line"/>
      <point x="370" y="564" type="line"/>
      <point x="394" y="700" type="line"/>
    </contour>
    <component base="dotlessi" identifier="984128C6"/>
  </outline>
</glyph>
<glyph name="eth" format="2">
  <advance width="550"/>
  <unicode hex="00F0"/>
  <guideline x="534" y="266" angle="80" identifier="IPS2DuyLKu"/>
  <guideline x="20" y="246" angle="80" identifier="HVt4QfZr5l"/>
  <outline>
    <contour>
      <point x="384" y="270" type="curve" smooth="yes"/>
      <point x="384" y="191"/>
      <point x="344" y="104"/>
      <point x="256" y="104" type="curve" smooth="yes"/>
      <point x="200" y="104"/>
      <point x="167" y="141"/>
      <point x="167" y="209" type="curve" smooth="yes"/>
      <point x="167" y="288"/>
      <point x="208" y="376"/>
      <point x="296" y="376" type="curve" smooth="yes"/>
      <point x="352" y="376"/>
      <point x="384" y="339"/>
    </contour>
    <contour>
      <point x="535" y="347" type="curve" smooth="yes"/>
      <point x="535" y="525"/>
      <point x="431" y="648"/>
      <point x="310" y="713" type="curve"/>
      <point x="170" y="695" type="line"/>
      <point x="289" y="604"/>
      <point x="366" y="541"/>
      <point x="397" y="409" type="curve"/>
      <point x="402" y="409" type="line"/>
      <point x="377" y="463"/>
      <point x="331" y="493"/>
      <point x="273" y="493" type="curve" smooth="yes"/>
      <point x="135" y="493"/>
      <point x="25" y="354"/>
      <point x="25" y="204" type="curve" smooth="yes"/>
      <point x="25" y="76"/>
      <point x="110" y="-12"/>
      <point x="245" y="-12" type="curve" smooth="yes"/>
      <point x="434" y="-12"/>
      <point x="535" y="155"/>
    </contour>
    <contour>
      <point x="186" y="502" type="line"/>
      <point x="529" y="626" type="line"/>
      <point x="507" y="693" type="line"/>
      <point x="164" y="569" type="line"/>
    </contour>
  </outline>
</glyph>
<glyph name="oslash" format="2">
  <advance width="550"/>
  <unicode hex="00F8"/>
  <outline>
    <contour>
      <point x="-14" y="28" type="line"/>
      <point x="47" y="-32" type="line"/>
      <point x="564" y="462" type="line"/>
      <point x="503" y="522" type="line"/>
    </contour>
    <contour>
      <point x="242" y="-12" type="curve" smooth="yes"/>
      <point x="418" y="-12"/>
      <point x="525" y="137"/>
      <point x="525" y="292" type="curve" smooth="yes"/>
      <point x="525" y="427"/>
      <point x="436" y="512"/>
      <point x="308" y="512" type="curve" smooth="yes"/>
      <point x="132" y="512"/>
      <point x="25" y="363"/>
      <point x="25" y="208" type="curve" smooth="yes"/>
      <point x="25" y="73"/>
      <point x="114" y="-12"/>
    </contour>
    <contour>
      <point x="297" y="396" type="curve" smooth="yes"/>
      <point x="352" y="396"/>
      <point x="384" y="358"/>
      <point x="384" y="285" type="curve" smooth="yes"/>
      <point x="384" y="201"/>
      <point x="343" y="104"/>
      <point x="253" y="104" type="curve" smooth="yes"/>
      <point x="198" y="104"/>
      <point x="166" y="142"/>
      <point x="166" y="215" type="curve" smooth="yes"/>
      <point x="166" y="299"/>
      <point x="207" y="396"/>
    </contour>
  </outline>
</glyph>
<glyph name="aogonek" format="2">
  <advance width="550"/>
  <unicode hex="0105"/>
  <outline>
    <contour>
      <point x="388" y="-209" type="curve" smooth="yes"/>
      <point x="410" y="-209"/>
      <point x="439" y="-207"/>
      <point x="461" y="-202" type="curve"/>
      <point x="476" y="-115" type="line"/>
      <point x="455" y="-119"/>
      <point x="439" y="-121"/>
      <point x="421" y="-121" type="curve" smooth="yes"/>
      <point x="394" y="-120"/>
      <point x="381" y="-111"/>
      <point x="381" y="-95" type="curve" smooth="yes"/>
      <point x="381" y="-63"/>
      <point x="425" y="-36"/>
      <point x="482" y="-5" type="curve"/>
      <point x="391" y="9" type="line"/>
      <point x="352" y="-6"/>
      <point x="261" y="-56"/>
      <point x="261" y="-133" type="curve" smooth="yes"/>
      <point x="261" y="-180"/>
      <point x="306" y="-209"/>
    </contour>
    <component base="a"/>
  </outline>
</glyph>
<glyph name="dcroat" format="2">
  <advance width="600"/>
  <unicode hex="0111"/>
  <outline>
    <contour>
      <point x="325" y="547" type="line"/>
      <point x="643" y="547" type="line"/>
      <point x="657" y="627" type="line"/>
      <point x="339" y="627" type="line"/>
    </contour>
    <component base="d" xOffset="-10" identifier="32840735"/>
  </outline>
</glyph>
<glyph name="eogonek" format="2">
  <advance width="550"/>
  <unicode hex="0119"/>
  <outline>
    <contour>
      <point x="34" y="206" type="curve" smooth="yes"/>
      <point x="34" y="73"/>
      <point x="117" y="-12"/>
      <point x="249" y="-12" type="curve" smooth="yes"/>
      <point x="257" y="-12"/>
      <point x="266" y="-12"/>
      <point x="274" y="-12" type="curve"/>
      <point x="223" y="10" type="line"/>
      <point x="182" y="-7"/>
      <point x="101" y="-56"/>
      <point x="101" y="-128" type="curve" smooth="yes"/>
      <point x="101" y="-175"/>
      <point x="146" y="-204"/>
      <point x="228" y="-204" type="curve" smooth="yes"/>
      <point x="250" y="-204"/>
      <point x="279" y="-202"/>
      <point x="301" y="-197" type="curve"/>
      <point x="316" y="-110" type="line"/>
      <point x="295" y="-114"/>
      <point x="279" y="-116"/>
      <point x="261" y="-116" type="curve" smooth="yes"/>
      <point x="234" y="-115"/>
      <point x="221" y="-106"/>
      <point x="221" y="-90" type="curve" smooth="yes"/>
      <point x="221" y="-60"/>
      <point x="258" y="-24"/>
      <point x="314" y="-9" type="curve" smooth="yes"/>
      <point x="397" y="14"/>
      <point x="460" y="62"/>
      <point x="493" y="130" type="curve"/>
      <point x="374" y="168" type="line"/>
      <point x="350" y="123"/>
      <point x="316" y="98"/>
      <point x="265" y="98" type="curve" smooth="yes"/>
      <point x="208" y="98"/>
      <point x="174" y="132"/>
      <point x="174" y="204" type="curve"/>
      <point x="513" y="204" type="line"/>
      <point x="519" y="236" type="line" smooth="yes"/>
      <point x="523" y="258"/>
      <point x="525" y="278"/>
      <point x="525" y="299" type="curve" smooth="yes"/>
      <point x="525" y="425"/>
      <point x="450" y="512"/>
      <point x="320" y="512" type="curve" smooth="yes"/>
      <point x="148" y="512"/>
      <point x="34" y="371"/>
    </contour>
    <contour>
      <point x="192" y="308" type="line"/>
      <point x="212" y="360"/>
      <point x="250" y="400"/>
      <point x="307" y="400" type="curve" smooth="yes"/>
      <point x="359" y="400"/>
      <point x="386" y="368"/>
      <point x="388" y="308" type="curve"/>
    </contour>
  </outline>
</glyph>
<glyph name="hbar" format="2">
  <advance width="550"/>
  <unicode hex="0127"/>
  <outline>
    <contour>
      <point x="361" y="547" type="line"/>
      <point x="375" y="627" type="line"/>
      <point x="57" y="627" type="line"/>
      <point x="43" y="547" type="line"/>
    </contour>
    <component base="h" identifier="C7CEF58A"/>
  </outline>
</glyph>
<glyph name="itilde" format="2">
  <advance width="300"/>
  <unicode hex="0129"/>
  <outline>
    <contour>
      <point x="158" y="694" type="curve" smooth="yes"/>
      <point x="102" y="694"/>
      <point x="61" y="646"/>
      <point x="44" y="564" type="curve"/>
      <point x="134" y="564" type="line"/>
      <point x="140" y="584"/>
      <point x="147" y="599"/>
      <point x="162" y="599" type="curve" smooth="yes"/>
      <point x="184" y="599"/>
      <point x="235" y="569"/>
      <point x="274" y="569" type="curve"/>
      <point x="330" y="569"/>
      <point x="370" y="617"/>
      <point x="388" y="699" type="curve"/>
      <point x="297" y="699" type="line"/>
      <point x="291" y="679"/>
      <point x="285" y="664"/>
      <point x="270" y="664" type="curve" smooth="yes"/>
      <point x="248" y="664"/>
      <point x="197" y="694"/>
    </contour>
    <component base="dotlessi" identifier="446688D8"/>
  </outline>
</glyph>
<glyph name="Imacron" format="2">
  <advance width="300"/>
  <unicode hex="012A"/>
  <outline>
    <contour>
      <point x="111" y="760" type="line"/>
      <point x="425" y="760" type="line"/>
      <point x="443" y="860" type="line"/>
      <point x="129" y="860" type="line"/>
    </contour>
    <component base="I" xOffset="25" identifier="576E3B2F"/>
  </outline>
</glyph>
<glyph name="imacron" format="2">
  <advance width="300"/>
  <unicode hex="012B"/>
  <outline>
    <contour>
      <point x="52" y="587" type="line"/>
      <point x="362" y="587" type="line"/>
      <point x="380" y="688" type="line"/>
      <point x="70" y="688" type="line"/>
    </contour>
    <component base="dotlessi" identifier="54963B34"/>
  </outline>
</glyph>
<glyph name="Ibreve" format="2">
  <advance width="300"/>
  <unicode hex="012C"/>
  <outline>
    <contour>
      <point x="128" y="895" type="line"/>
      <point x="115" y="824"/>
      <point x="161" y="754"/>
      <point x="271" y="754" type="curve" smooth="yes"/>
      <point x="378" y="754"/>
      <point x="440" y="823"/>
      <point x="452" y="895" type="curve"/>
      <point x="344" y="895" type="line"/>
      <point x="339" y="865"/>
      <point x="316" y="844"/>
      <point x="282" y="844" type="curve" smooth="yes"/>
      <point x="248" y="844"/>
      <point x="230" y="866"/>
      <point x="236" y="895" type="curve"/>
    </contour>
    <component base="I" xOffset="25" identifier="179DF5DB"/>
  </outline>
</glyph>
<glyph name="ibreve" format="2">
  <advance width="300"/>
  <unicode hex="012D"/>
  <outline>
    <contour>
      <point x="70" y="700" type="line"/>
      <point x="58" y="629"/>
      <point x="100" y="559"/>
      <point x="211" y="559" type="curve" smooth="yes"/>
      <point x="320" y="559"/>
      <point x="374" y="623"/>
      <point x="386" y="700" type="curve"/>
      <point x="279" y="700" type="line"/>
      <point x="275" y="670"/>
      <point x="253" y="648"/>
      <point x="220" y="648" type="curve" smooth="yes"/>
      <point x="187" y="648"/>
      <point x="173" y="670"/>
      <point x="177" y="700" type="curve"/>
    </contour>
    <component base="dotlessi" identifier="27DF8585"/>
  </outline>
</glyph>
<glyph name="dotlessi" format="2">
  <advance width="300"/>
  <unicode hex="0131"/>
  <outline>
    <contour>
      <point x="55" y="107" type="line"/>
      <point x="36" y="0" type="line"/>
      <point x="176" y="0" type="line"/>
      <point x="195" y="107" type="line"/>
    </contour>
    <contour>
      <point x="124" y="500" type="line"/>
      <point x="105" y="393" type="line"/>
      <point x="245" y="393" type="line"/>
      <point x="264" y="500" type="line"/>
    </contour>
    <contour>
      <point x="124" y="500" type="line"/>
      <point x="36" y="0" type="line"/>
      <point x="176" y="0" type="line"/>
      <point x="264" y="500" type="line"/>
    </contour>
  </outline>
</glyph>
<glyph name="ij" format="2">
  <advance width="500"/>
  <unicode hex="0133"/>
  <outline>
    <contour>
      <point x="30" y="107" type="line"/>
      <point x="11" y="0" type="line"/>
      <point x="151" y="0" type="line"/>
      <point x="170" y="107" type="line"/>
    </contour>
    <contour>
      <point x="99" y="500" type="line"/>
      <point x="80" y="393" type="line"/>
      <point x="220" y="393" type="line"/>
      <point x="239" y="500" type="line"/>
    </contour>
    <contour>
      <point x="99" y="500" type="line"/>
      <point x="11" y="0" type="line"/>
      <point x="151" y="0" type="line"/>
      <point x="239" y="500" type="line"/>
    </contour>
    <contour>
      <point x="132" y="700" type="line"/>
      <point x="108" y="564" type="line"/>
      <point x="252" y="564" type="line"/>
      <point x="276" y="700" type="line"/>
    </contour>
    <contour>
      <point x="388" y="-74" type="curve" smooth="yes"/>
      <point x="489" y="500" type="line"/>
      <point x="349" y="500" type="line"/>
      <point x="255" y="-35" type="line" smooth="yes"/>
      <point x="249" y="-68"/>
      <point x="237" y="-81"/>
      <point x="209" y="-81" type="curve" smooth="yes"/>
      <point x="200" y="-81"/>
      <point x="192" y="-80"/>
      <point x="178" y="-78" type="curve"/>
      <point x="161" y="-180" type="line"/>
      <point x="175" y="-185"/>
      <point x="206" y="-190"/>
      <point x="234" y="-190" type="curve" smooth="yes"/>
      <point x="299" y="-190"/>
      <point x="372" y="-163"/>
    </contour>
    <contour>
      <point x="330" y="393" type="line"/>
      <point x="399" y="393" type="line"/>
      <point x="418" y="500" type="line"/>
      <point x="349" y="500" type="line"/>
    </contour>
    <contour>
      <point x="382" y="700" type="line"/>
      <point x="358" y="564" type="line"/>
      <point x="502" y="564" type="line"/>
      <point x="526" y="700" type="line"/>
    </contour>
  </outline>
</glyph>
<glyph name="jcircumflex" format="2">
  <advance width="300"/>
  <unicode hex="0135"/>
  <outline>
    <contour>
      <point x="161" y="700" type="line"/>
      <point x="27" y="564" type="line"/>
      <point x="144" y="564" type="line"/>
      <point x="277" y="662" type="line"/>
      <point x="171" y="662" type="line"/>
      <point x="270" y="564" type="line"/>
      <point x="381" y="564" type="line"/>
      <point x="295" y="700" type="line"/>
    </contour>
    <component base="dotlessj" identifier="1FFD356B"/>
  </outline>
</glyph>
<glyph name="ldot" format="2">
  <advance width="300"/>
  <unicode hex="0140"/>
  <outline>
    <contour>
      <point x="263" y="446" type="line"/>
      <point x="237" y="303" type="line"/>
      <point x="357" y="303" type="line"/>
      <point x="383" y="446" type="line"/>
    </contour>
    <component base="l" xOffset="-25" identifier="E0C90A44"/>
  </outline>
</glyph>
<glyph name="Lslash" format="2">
  <advance width="600"/>
  <unicode hex="0141"/>
  <outline>
    <contour>
      <point x="8" y="174" type="line"/>
      <point x="438" y="353" type="line"/>
      <point x="462" y="488" type="line"/>
      <point x="31" y="309" type="line"/>
    </contour>
    <component base="L" xOffset="21" identifier="C47543E5"/>
  </outline>
</glyph>
<glyph name="lslash" format="2">
  <advance width="300"/>
  <unicode hex="0142"/>
  <outline>
    <contour>
      <point x="9" y="324" type="line"/>
      <point x="-9" y="219" type="line"/>
      <point x="333" y="412" type="line"/>
      <point x="351" y="517" type="line"/>
    </contour>
    <component base="l" identifier="B24F051E"/>
  </outline>
</glyph>
<glyph name="Eng" format="2">
  <advance width="760"/>
  <unicode hex="014A"/>
  <outline>
    <contour>
      <point x="306" y="-55" type="curve"/>
      <point x="286" y="-171" type="line"/>
      <point x="321" y="-183"/>
      <point x="368" y="-192"/>
      <point x="416" y="-192" type="curve" smooth="yes"/>
      <point x="541" y="-192"/>
      <point x="616" y="-133"/>
      <point x="638" y="-11" type="curve" smooth="yes"/>
      <point x="764" y="700" type="line"/>
      <point x="619" y="700" type="line"/>
      <point x="538" y="245" type="line"/>
      <point x="342" y="700" type="line"/>
      <point x="154" y="700" type="line"/>
      <point x="30" y="0" type="line"/>
      <point x="176" y="0" type="line"/>
      <point x="268" y="522" type="line"/>
      <point x="493" y="3" type="line"/>
      <point x="491" y="-7" type="line" smooth="yes"/>
      <point x="484" y="-43"/>
      <point x="462" y="-71"/>
      <point x="400" y="-71" type="curve" smooth="yes"/>
      <point x="361" y="-71"/>
      <point x="329" y="-62"/>
    </contour>
  </outline>
</glyph>
<glyph name="eng" format="2">
  <advance width="550"/>
  <unicode hex="014B"/>
  <outline>
    <contour>
      <point x="446" y="-74" type="curve" smooth="yes"/>
      <point x="517" y="327" type="line" smooth="yes"/>
      <point x="520" y="342"/>
      <point x="521" y="355"/>
      <point x="521" y="369" type="curve" smooth="yes"/>
      <point x="521" y="455"/>
      <point x="465" y="512"/>
      <point x="374" y="512" type="curve" smooth="yes"/>
      <point x="309" y="512"/>
      <point x="262" y="481"/>
      <point x="226" y="442" type="curve"/>
      <point x="236" y="500" type="line"/>
      <point x="96" y="500" type="line"/>
      <point x="8" y="0" type="line"/>
      <point x="148" y="0" type="line"/>
      <point x="200" y="293" type="line" smooth="yes"/>
      <point x="211" y="353"/>
      <point x="249" y="391"/>
      <point x="304" y="391" type="curve" smooth="yes"/>
      <point x="352" y="391"/>
      <point x="373" y="361"/>
      <point x="373" y="320" type="curve" smooth="yes"/>
      <point x="373" y="312"/>
      <point x="372" y="304"/>
      <point x="371" y="296" type="curve" smooth="yes"/>
      <point x="313" y="-35" type="line" smooth="yes"/>
      <point x="307" y="-68"/>
      <point x="295" y="-81"/>
      <point x="267" y="-81" type="curve" smooth="yes"/>
      <point x="258" y="-81"/>
      <point x="250" y="-80"/>
      <point x="236" y="-78" type="curve"/>
      <point x="219" y="-180" type="line"/>
      <point x="233" y="-185"/>
      <point x="264" y="-190"/>
      <point x="292" y="-190" type="curve" smooth="yes"/>
      <point x="357" y="-190"/>
      <point x="430" y="-164"/>
    </contour>
  </outline>
</glyph>
<glyph name="OE" format="2">
  <advance width="760"/>
  <unicode hex="0152"/>
  <outline>
    <contour>
      <point x="60" y="370" type="curve" smooth="yes"/>
      <point x="24" y="190"/>
      <point x="50" y="-12"/>
      <point x="223" y="-12" type="curve" smooth="yes"/>
      <point x="281" y="-12"/>
      <point x="327" y="13"/>
      <point x="364" y="61" type="curve"/>
      <point x="353" y="0" type="line"/>
      <point x="686" y="0" type="line"/>
      <point x="708" y="124" type="line"/>
      <point x="491" y="124" type="line"/>
      <point x="521" y="294" type="line"/>
      <point x="654" y="294" type="line"/>
      <point x="675" y="417" type="line"/>
      <point x="543" y="417" type="line"/>
      <point x="571" y="576" type="line"/>
      <point x="773" y="576" type="line"/>
      <point x="795" y="700" type="line"/>
      <point x="476" y="700" type="line"/>
      <point x="461" y="614" type="line"/>
      <point x="440" y="672"/>
      <point x="398" y="712"/>
      <point x="325" y="712" type="curve" smooth="yes"/>
      <point x="171" y="712"/>
      <point x="92" y="531"/>
    </contour>
    <contour>
      <point x="400" y="335" type="curve" smooth="yes"/>
      <point x="380" y="229"/>
      <point x="337" y="112"/>
      <point x="262" y="112" type="curve" smooth="yes"/>
      <point x="185" y="112"/>
      <point x="163.46429" y="198.53571"/>
      <point x="194" y="358" type="curve" smooth="yes"/>
      <point x="214" y="464"/>
      <point x="259" y="588"/>
      <point x="335" y="588" type="curve" smooth="yes"/>
      <point x="415" y="588"/>
      <point x="430" y="492"/>
    </contour>
  </outline>
</glyph>
<glyph name="tbar" format="2">
  <advance width="450"/>
  <unicode hex="0167"/>
  <outline>
    <contour>
      <point x="13" y="223" type="line"/>
      <point x="406" y="223" type="line"/>
      <point x="425" y="330" type="line"/>
      <point x="32" y="330" type="line"/>
    </contour>
    <component base="t" identifier="9EB1961D"/>
  </outline>
</glyph>
<glyph name="Uogonek" format="2">
  <advance width="760"/>
  <unicode hex="0172"/>
  <outline>
    <contour>
      <point x="685" y="258" type="curve" smooth="yes"/>
      <point x="763" y="700" type="line"/>
      <point x="618" y="700" type="line"/>
      <point x="542" y="271" type="line" smooth="yes"/>
      <point x="525" y="177"/>
      <point x="463" y="117"/>
      <point x="366" y="117" type="curve" smooth="yes"/>
      <point x="277" y="117"/>
      <point x="224" y="169"/>
      <point x="224" y="247" type="curve" smooth="yes"/>
      <point x="224" y="258"/>
      <point x="225" y="270"/>
      <point x="227" y="283" type="curve" smooth="yes"/>
      <point x="301" y="700" type="line"/>
      <point x="155" y="700" type="line"/>
      <point x="81" y="280" type="line" smooth="yes"/>
      <point x="77" y="259"/>
      <point x="75" y="238"/>
      <point x="75" y="219" type="curve" smooth="yes"/>
      <point x="75" y="93"/>
      <point x="155" y="7"/>
      <point x="301" y="-9" type="curve"/>
      <point x="261" y="-34"/>
      <point x="217" y="-74"/>
      <point x="217" y="-128" type="curve" smooth="yes"/>
      <point x="217" y="-175"/>
      <point x="262" y="-204"/>
      <point x="344" y="-204" type="curve" smooth="yes"/>
      <point x="366" y="-204"/>
      <point x="395" y="-202"/>
      <point x="417" y="-197" type="curve"/>
      <point x="432" y="-110" type="line"/>
      <point x="411" y="-114"/>
      <point x="395" y="-116"/>
      <point x="377" y="-116" type="curve" smooth="yes"/>
      <point x="350" y="-115"/>
      <point x="337" y="-106"/>
      <point x="337" y="-90" type="curve" smooth="yes"/>
      <point x="337" y="-60"/>
      <point x="383" y="-22"/>
      <point x="439" y="-7" type="curve" smooth="yes"/>
      <point x="585" y="31"/>
      <point x="660" y="115"/>
    </contour>
  </outline>
</glyph>
<glyph name="Oopen" format="2">
  <advance width="760"/>
  <unicode hex="0186"/>
  <outline>
    <contour>
      <point x="333" y="-12" type="curve" smooth="yes"/>
      <point x="577" y="-12"/>
      <point x="718" y="200"/>
      <point x="718" y="414" type="curve" smooth="yes"/>
      <point x="718" y="595"/>
      <point x="606" y="712"/>
      <point x="424" y="712" type="curve" smooth="yes"/>
      <point x="273" y="712"/>
      <point x="145" y="623"/>
      <point x="90" y="498" type="curve"/>
      <point x="221" y="451" type="line"/>
      <point x="263" y="542"/>
      <point x="337" y="584"/>
      <point x="411" y="584" type="curve" smooth="yes"/>
      <point x="505" y="584"/>
      <point x="564" y="522"/>
      <point x="564" y="408" type="curve" smooth="yes"/>
      <point x="564" y="261"/>
      <point x="483" y="116"/>
      <point x="346" y="116" type="curve" smooth="yes"/>
      <point x="263" y="116"/>
      <point x="199" y="164"/>
      <point x="185" y="263" type="curve"/>
      <point x="42" y="226" type="line"/>
      <point x="53" y="85"/>
      <point x="170" y="-12"/>
    </contour>
  </outline>
</glyph>
<glyph name="Schwa" format="2">
  <advance width="760"/>
  <unicode hex="018F"/>
  <outline>
    <contour>
      <point x="349" y="-12" type="curve" smooth="yes"/>
      <point x="598" y="-12"/>
      <point x="743" y="200"/>
      <point x="743" y="415" type="curve" smooth="yes"/>
      <point x="743" y="598"/>
      <point x="627" y="712"/>
      <point x="443" y="712" type="curve" smooth="yes"/>
      <point x="296" y="712"/>
      <point x="174" y="635"/>
      <point x="110" y="521" type="curve"/>
      <point x="241" y="471" type="line"/>
      <point x="281" y="539"/>
      <point x="346" y="585"/>
      <point x="429" y="585" type="curve" smooth="yes"/>
      <point x="527" y="585"/>
      <point x="589" y="525"/>
      <point x="589" y="409" type="curve" smooth="yes"/>
      <point x="589" y="280"/>
      <point x="519" y="116"/>
      <point x="364" y="116" type="curve" smooth="yes"/>
      <point x="266" y="116"/>
      <point x="210" y="173"/>
      <point x="210" y="275" type="curve" smooth="yes"/>
      <point x="210" y="293"/>
      <point x="214" y="320"/>
      <point x="217" y="341" type="curve"/>
      <point x="172" y="280" type="line"/>
      <point x="633" y="280" type="line"/>
      <point x="654" y="403" type="line"/>
      <point x="76" y="403" type="line"/>
      <point x="69" y="365" type="line" smooth="yes"/>
      <point x="64" y="336"/>
      <point x="62" y="308"/>
      <point x="62" y="282" type="curve" smooth="yes"/>
      <point x="62" y="104"/>
      <point x="172" y="-12"/>
    </contour>
  </outline>
</glyph>
<glyph name="fhook" format="2">
  <advance width="500"/>
  <unicode hex="0192"/>
  <outline>
    <contour>
      <point x="122" y="366" type="line"/>
      <point x="464" y="366" type="line"/>
      <point x="482" y="470" type="line"/>
      <point x="140" y="470" type="line"/>
    </contour>
    <contour>
      <point x="260" y="149" type="curve" smooth="yes"/>
      <point x="420" y="542" type="line" smooth="yes"/>
      <point x="437" y="583"/>
      <point x="461" y="600"/>
      <point x="498" y="600" type="curve" smooth="yes"/>
      <point x="510" y="600"/>
      <point x="527" y="598"/>
      <point x="543" y="595" type="curve"/>
      <point x="562" y="705" type="line"/>
      <point x="540" y="710"/>
      <point x="516" y="712"/>
      <point x="496" y="712" type="curve" smooth="yes"/>
      <point x="393" y="712"/>
      <point x="321" y="663"/>
      <point x="277" y="554" type="curve" smooth="yes"/>
      <point x="116" y="158" type="line" smooth="yes"/>
      <point x="100" y="118"/>
      <point x="81" y="100"/>
      <point x="37" y="100" type="curve" smooth="yes"/>
      <point x="25" y="100"/>
      <point x="9" y="102"/>
      <point x="-7" y="105" type="curve"/>
      <point x="-27" y="-6" type="line"/>
      <point x="-10" y="-10"/>
      <point x="14" y="-12"/>
      <point x="35" y="-12" type="curve"/>
      <point x="135" y="-12"/>
      <point x="214" y="36"/>
    </contour>
  </outline>
</glyph>
<glyph name="khook" format="2">
  <advance width="550"/>
  <unicode hex="0199"/>
  <outline>
    <contour>
      <point x="140" y="259" type="line"/>
      <point x="112" y="93" type="line"/>
      <point x="290" y="248" type="line"/>
      <point x="332" y="271" type="line"/>
      <point x="594" y="500" type="line"/>
      <point x="416" y="500" type="line"/>
    </contour>
    <contour>
      <point x="219" y="263" type="line"/>
      <point x="356" y="0" type="line"/>
      <point x="506" y="0" type="line"/>
      <point x="326" y="347" type="line"/>
    </contour>
    <contour>
      <point x="253" y="543" type="line" smooth="yes"/>
      <point x="260" y="582"/>
      <point x="286" y="600"/>
      <point x="314" y="600" type="curve" smooth="yes"/>
      <point x="332" y="600"/>
      <point x="348" y="595"/>
      <point x="367" y="586" type="curve"/>
      <point x="388" y="691" type="line"/>
      <point x="365" y="703"/>
      <point x="326" y="712"/>
      <point x="285" y="712" type="curve" smooth="yes"/>
      <point x="204" y="712"/>
      <point x="133" y="660"/>
      <point x="114" y="553" type="curve" smooth="yes"/>
      <point x="17" y="0" type="line"/>
      <point x="157" y="0" type="line"/>
    </contour>
  </outline>
</glyph>
<glyph name="Nhookleft" format="2">
  <advance width="760"/>
  <unicode hex="019D"/>
  <outline>
    <contour>
      <point x="-103" y="-69" type="curve"/>
      <point x="-122" y="-180" type="line"/>
      <point x="-96" y="-187"/>
      <point x="-67" y="-192"/>
      <point x="-30" y="-192" type="curve" smooth="yes"/>
      <point x="79" y="-192"/>
      <point x="151" y="-138"/>
      <point x="171" y="-32" type="curve" smooth="yes"/>
      <point x="269" y="521" type="line"/>
      <point x="485" y="0" type="line"/>
      <point x="641" y="0" type="line"/>
      <point x="765" y="700" type="line"/>
      <point x="620" y="700" type="line"/>
      <point x="537" y="231" type="line"/>
      <point x="342" y="700" type="line"/>
      <point x="154" y="700" type="line"/>
      <point x="28" y="-15" type="line" smooth="yes"/>
      <point x="19" y="-60"/>
      <point x="-18" y="-76"/>
      <point x="-57" y="-76" type="curve" smooth="yes"/>
      <point x="-69" y="-76"/>
      <point x="-85" y="-75"/>
    </contour>
  </outline>
</glyph>
<glyph name="yhook" format="2">
  <advance width="550"/>
  <unicode hex="01B4"/>
  <outline>
    <contour>
      <point x="180" y="-61" type="line"/>
      <point x="284" y="116" type="line"/>
      <point x="201" y="500" type="line"/>
      <point x="52" y="500" type="line"/>
    </contour>
    <contour>
      <point x="493" y="338" type="line" smooth="yes"/>
      <point x="515" y="376"/>
      <point x="537" y="394"/>
      <point x="562" y="394" type="curve" smooth="yes"/>
      <point x="571" y="394"/>
      <point x="582" y="393"/>
      <point x="591" y="387" type="curve"/>
      <point x="614" y="495" type="line"/>
      <point x="588" y="507"/>
      <point x="564" y="512"/>
      <point x="539" y="512" type="curve" smooth="yes"/>
      <point x="469" y="512"/>
      <point x="415" y="468"/>
      <point x="375" y="396" type="curve" smooth="yes"/>
      <point x="188" y="58" type="line"/>
      <point x="167" y="32" type="line"/>
      <point x="38" y="-180" type="line"/>
      <point x="195" y="-180" type="line"/>
    </contour>
  </outline>
</glyph>
<glyph name="Icaron" format="2">
  <advance width="300"/>
  <unicode hex="01CF"/>
  <outline>
    <contour>
      <point x="335" y="760" type="line"/>
      <point x="479" y="892" type="line"/>
      <point x="352" y="892" type="line"/>
      <point x="216" y="807" type="line"/>
      <point x="324" y="807" type="line"/>
      <point x="218" y="892" type="line"/>
      <point x="99" y="892" type="line"/>
      <point x="195" y="760" type="line"/>
    </contour>
    <component base="I" xOffset="25" identifier="C44B8A6E"/>
  </outline>
</glyph>
<glyph name="icaron" format="2">
  <advance width="300"/>
  <unicode hex="01D0"/>
  <outline>
    <contour>
      <point x="271" y="564" type="line"/>
      <point x="405" y="700" type="line"/>
      <point x="288" y="700" type="line"/>
      <point x="155" y="602" type="line"/>
      <point x="261" y="602" type="line"/>
      <point x="162" y="700" type="line"/>
      <point x="51" y="700" type="line"/>
      <point x="137" y="564" type="line"/>
    </contour>
    <component base="dotlessi" identifier="094F4E48"/>
  </outline>
</glyph>
<glyph name="eturned" format="2">
  <advance width="550"/>
  <unicode hex="01DD"/>
  <outline>
    <contour>
      <point x="525" y="294" type="curve" smooth="yes"/>
      <point x="525" y="428"/>
      <point x="441" y="512"/>
      <point x="308" y="512" type="curve" smooth="yes"/>
      <point x="201" y="512"/>
      <point x="103" y="454"/>
      <point x="61" y="370" type="curve"/>
      <point x="185" y="332" type="line"/>
      <point x="210" y="377"/>
      <point x="248" y="400"/>
      <point x="295" y="400" type="curve" smooth="yes"/>
      <point x="351" y="400"/>
      <point x="385" y="367"/>
      <point x="385" y="293" type="curve" smooth="yes"/>
      <point x="385" y="203"/>
      <point x="348" y="102"/>
      <point x="253" y="102" type="curve" smooth="yes"/>
      <point x="201" y="102"/>
      <point x="170" y="134"/>
      <point x="170" y="201" type="curve" smooth="yes"/>
      <point x="170" y="215"/>
      <point x="171" y="233"/>
      <point x="175" y="252" type="curve"/>
      <point x="109" y="192" type="line"/>
      <point x="442" y="192" type="line"/>
      <point x="460" y="296" type="line"/>
      <point x="40" y="296" type="line"/>
      <point x="35" y="264" type="line" smooth="yes"/>
      <point x="32" y="245"/>
      <point x="29" y="225"/>
      <point x="29" y="204" type="curve" smooth="yes"/>
      <point x="29" y="72"/>
      <point x="110" y="-12"/>
      <point x="240" y="-12" type="curve" smooth="yes"/>
      <point x="427" y="-12"/>
      <point x="525" y="138"/>
    </contour>
  </outline>
</glyph>
<glyph name="oogonek" format="2">
  <advance width="550"/>
  <unicode hex="01EB"/>
  <outline>
    <contour>
      <point x="25" y="208" type="curve" smooth="yes"/>
      <point x="25" y="94"/>
      <point x="88" y="16"/>
      <point x="185" y="-6" type="curve"/>
      <point x="143" y="-30"/>
      <point x="95" y="-72"/>
      <point x="95" y="-128" type="curve" smooth="yes"/>
      <point x="95" y="-175"/>
      <point x="140" y="-204"/>
      <point x="222" y="-204" type="curve" smooth="yes"/>
      <point x="244" y="-204"/>
      <point x="273" y="-202"/>
      <point x="295" y="-197" type="curve"/>
      <point x="310" y="-110" type="line"/>
      <point x="289" y="-114"/>
      <point x="273" y="-116"/>
      <point x="255" y="-116" type="curve" smooth="yes"/>
      <point x="228" y="-115"/>
      <point x="215" y="-106"/>
      <point x="215" y="-90" type="curve" smooth="yes"/>
      <point x="215" y="-60"/>
      <point x="249" y="-24"/>
      <point x="307" y="-8" type="curve" smooth="yes"/>
      <point x="446" y="31"/>
      <point x="525" y="157"/>
      <point x="525" y="292" type="curve" smooth="yes"/>
      <point x="525" y="427"/>
      <point x="436" y="512"/>
      <point x="308" y="512" type="curve" smooth="yes"/>
      <point x="132" y="512"/>
      <point x="25" y="363"/>
    </contour>
    <contour>
      <point x="297" y="396" type="curve" smooth="yes"/>
      <point x="352" y="396"/>
      <point x="384" y="358"/>
      <point x="384" y="285" type="curve" smooth="yes"/>
      <point x="384" y="201"/>
      <point x="343" y="104"/>
      <point x="253" y="104" type="curve" smooth="yes"/>
      <point x="198" y="104"/>
      <point x="166" y="142"/>
      <point x="166" y="215" type="curve" smooth="yes"/>
      <point x="166" y="299"/>
      <point x="207" y="396"/>
    </contour>
  </outline>
</glyph>
<glyph name="dotlessj" format="2">
  <advance width="300"/>
  <unicode hex="0237"/>
  <guideline x="126" y="490" angle="90" name="center"/>
  <outline>
    <contour>
      <point x="163" y="-74" type="curve" smooth="yes"/>
      <point x="264" y="500" type="line"/>
      <point x="124" y="500" type="line"/>
      <point x="30" y="-35" type="line" smooth="yes"/>
      <point x="24" y="-68"/>
      <point x="12" y="-81"/>
      <point x="-16" y="-81" type="curve" smooth="yes"/>
      <point x="-25" y="-81"/>
      <point x="-33" y="-80"/>
      <point x="-47" y="-78" type="curve"/>
      <point x="-64" y="-180" type="line"/>
      <point x="-50" y="-185"/>
      <point x="-19" y="-190"/>
      <point x="9" y="-190" type="curve" smooth="yes"/>
      <point x="74" y="-190"/>
      <point x="147" y="-163"/>
    </contour>
    <contour>
      <point x="105" y="393" type="line"/>
      <point x="174" y="393" type="line"/>
      <point x="193" y="500" type="line"/>
      <point x="124" y="500" type="line"/>
    </contour>
  </outline>
</glyph>
<glyph name="bhook" format="2">
  <advance width="600"/>
  <unicode hex="0253"/>
  <outline>
    <contour>
      <point x="289" y="104" type="curve" smooth="yes"/>
      <point x="228" y="104"/>
      <point x="190" y="143"/>
      <point x="190" y="214" type="curve" smooth="yes"/>
      <point x="190" y="302"/>
      <point x="234" y="396"/>
      <point x="328" y="396" type="curve" smooth="yes"/>
      <point x="389" y="396"/>
      <point x="427" y="355"/>
      <point x="427" y="283" type="curve" smooth="yes"/>
      <point x="427" y="195"/>
      <point x="383" y="104"/>
    </contour>
    <contour>
      <point x="251" y="546" type="line" smooth="yes"/>
      <point x="257" y="578"/>
      <point x="282" y="596"/>
      <point x="313" y="596" type="curve" smooth="yes"/>
      <point x="331" y="596"/>
      <point x="345" y="592"/>
      <point x="364" y="584" type="curve"/>
      <point x="385" y="689" type="line"/>
      <point x="365" y="699"/>
      <point x="333" y="707"/>
      <point x="298" y="707" type="curve" smooth="yes"/>
      <point x="211" y="707"/>
      <point x="132" y="664"/>
      <point x="113" y="554" type="curve" smooth="yes"/>
      <point x="15" y="0" type="line"/>
      <point x="155" y="0" type="line"/>
      <point x="177" y="123" type="line"/>
      <point x="144" y="124" type="line"/>
      <point x="161" y="40"/>
      <point x="224" y="-13"/>
      <point x="317" y="-13" type="curve" smooth="yes"/>
      <point x="472" y="-13"/>
      <point x="571" y="142"/>
      <point x="571" y="305" type="curve" smooth="yes"/>
      <point x="571" y="436"/>
      <point x="494" y="512"/>
      <point x="394" y="512" type="curve" smooth="yes"/>
      <point x="309" y="512"/>
      <point x="234" y="462"/>
      <point x="190" y="384" type="curve"/>
      <point x="223" y="383" type="line"/>
    </contour>
  </outline>
</glyph>
<glyph name="oopen" format="2">
  <advance width="550"/>
  <unicode hex="0254"/>
  <outline>
    <contour>
      <point x="49" y="360" type="curve"/>
      <point x="177" y="320" type="line"/>
      <point x="197" y="379"/>
      <point x="243" y="398"/>
      <point x="285" y="398" type="curve" smooth="yes"/>
      <point x="341" y="398"/>
      <point x="376" y="365"/>
      <point x="376" y="288" type="curve" smooth="yes"/>
      <point x="376" y="203"/>
      <point x="337" y="102"/>
      <point x="243" y="102" type="curve" smooth="yes"/>
      <point x="199" y="102"/>
      <point x="154" y="123"/>
      <point x="151" y="186" type="curve"/>
      <point x="16" y="157" type="line"/>
      <point x="24" y="55"/>
      <point x="111" y="-12"/>
      <point x="230" y="-12" type="curve" smooth="yes"/>
      <point x="415" y="-12"/>
      <point x="517" y="133"/>
      <point x="517" y="294" type="curve" smooth="yes"/>
      <point x="517" y="430"/>
      <point x="433" y="512"/>
      <point x="300" y="512" type="curve" smooth="yes"/>
      <point x="186" y="512"/>
      <point x="89" y="453"/>
    </contour>
  </outline>
</glyph>
<glyph name="dhook" format="2">
  <advance width="600"/>
  <unicode hex="0257"/>
  <outline>
    <contour>
      <point x="589" y="547" type="line" smooth="yes"/>
      <point x="594" y="579"/>
      <point x="612" y="596"/>
      <point x="641" y="596" type="curve" smooth="yes"/>
      <point x="653" y="596"/>
      <point x="670" y="592"/>
      <point x="679" y="589" type="curve"/>
      <point x="700" y="694" type="line"/>
      <point x="686" y="700"/>
      <point x="650" y="707"/>
      <point x="616" y="707" type="curve" smooth="yes"/>
      <point x="526" y="707"/>
      <point x="468" y="657"/>
      <point x="451" y="564" type="curve" smooth="yes"/>
      <point x="419" y="377" type="line"/>
      <point x="452" y="376" type="line"/>
      <point x="435" y="460"/>
      <point x="370" y="513"/>
      <point x="279" y="513" type="curve" smooth="yes"/>
      <point x="124" y="513"/>
      <point x="26" y="363"/>
      <point x="26" y="198" type="curve" smooth="yes"/>
      <point x="26" y="66"/>
      <point x="107" y="-12"/>
      <point x="207" y="-12" type="curve" smooth="yes"/>
      <point x="294" y="-12"/>
      <point x="362" y="38"/>
      <point x="402" y="116" type="curve"/>
      <point x="373" y="117" type="line"/>
      <point x="353" y="0" type="line"/>
      <point x="493" y="0" type="line"/>
    </contour>
    <contour>
      <point x="169" y="217" type="curve" smooth="yes"/>
      <point x="169" y="305"/>
      <point x="213" y="396"/>
      <point x="307" y="396" type="curve" smooth="yes"/>
      <point x="368" y="396"/>
      <point x="406" y="357"/>
      <point x="406" y="286" type="curve" smooth="yes"/>
      <point x="406" y="198"/>
      <point x="362" y="104"/>
      <point x="268" y="104" type="curve" smooth="yes"/>
      <point x="207" y="104"/>
      <point x="169" y="145"/>
    </contour>
  </outline>
</glyph>
<glyph name="eopen" format="2">
  <advance width="500"/>
  <unicode hex="025B"/>
  <outline>
    <contour>
      <point x="470" y="158" type="curve"/>
      <point x="330" y="152" type="line"/>
      <point x="320" y="115"/>
      <point x="299" y="88"/>
      <point x="238" y="88" type="curve" smooth="yes"/>
      <point x="171" y="88"/>
      <point x="146" y="116"/>
      <point x="146" y="148" type="curve" smooth="yes"/>
      <point x="146" y="183"/>
      <point x="177" y="208"/>
      <point x="243" y="208" type="curve" smooth="yes"/>
      <point x="292" y="208" type="line"/>
      <point x="309" y="308" type="line"/>
      <point x="273" y="308" type="line" smooth="yes"/>
      <point x="227" y="308"/>
      <point x="195" y="320"/>
      <point x="195" y="353" type="curve" smooth="yes"/>
      <point x="195" y="380"/>
      <point x="216" y="412"/>
      <point x="280" y="412" type="curve" smooth="yes"/>
      <point x="336" y="412"/>
      <point x="360" y="390"/>
      <point x="360" y="357" type="curve" smooth="yes"/>
      <point x="360" y="353"/>
      <point x="360" y="347"/>
      <point x="359" y="342" type="curve"/>
      <point x="498" y="335" type="line"/>
      <point x="500" y="344"/>
      <point x="501" y="356"/>
      <point x="501" y="368" type="curve" smooth="yes"/>
      <point x="501" y="460"/>
      <point x="418" y="512"/>
      <point x="286" y="512" type="curve" smooth="yes"/>
      <point x="141" y="512"/>
      <point x="54" y="439"/>
      <point x="54" y="356" type="curve" smooth="yes"/>
      <point x="54" y="301"/>
      <point x="98" y="275"/>
      <point x="128" y="263" type="curve"/>
      <point x="129" y="268" type="line"/>
      <point x="66" y="257"/>
      <point x="2" y="210"/>
      <point x="2" y="133" type="curve" smooth="yes"/>
      <point x="2" y="46"/>
      <point x="90" y="-12"/>
      <point x="230" y="-12" type="curve" smooth="yes"/>
      <point x="368" y="-12"/>
      <point x="452" y="40"/>
    </contour>
  </outline>
</glyph>
<glyph name="nhookleft" format="2">
  <advance width="550"/>
  <unicode hex="0272"/>
  <outline>
    <contour>
      <point x="-89" y="-180" type="line"/>
      <point x="-74" y="-186"/>
      <point x="-48" y="-190"/>
      <point x="-22" y="-190" type="curve" smooth="yes"/>
      <point x="44" y="-190"/>
      <point x="119" y="-166"/>
      <point x="135" y="-75" type="curve" smooth="yes"/>
      <point x="200" y="293" type="line" smooth="yes"/>
      <point x="211" y="353"/>
      <point x="249" y="391"/>
      <point x="304" y="391" type="curve" smooth="yes"/>
      <point x="352" y="391"/>
      <point x="373" y="361"/>
      <point x="373" y="320" type="curve" smooth="yes"/>
      <point x="373" y="312"/>
      <point x="372" y="304"/>
      <point x="371" y="296" type="curve" smooth="yes"/>
      <point x="319" y="0" type="line"/>
      <point x="459" y="0" type="line"/>
      <point x="517" y="327" type="line" smooth="yes"/>
      <point x="520" y="342"/>
      <point x="521" y="355"/>
      <point x="521" y="369" type="curve" smooth="yes"/>
      <point x="521" y="455"/>
      <point x="465" y="512"/>
      <point x="374" y="512" type="curve" smooth="yes"/>
      <point x="309" y="512"/>
      <point x="262" y="481"/>
      <point x="226" y="442" type="curve"/>
      <point x="236" y="500" type="line"/>
      <point x="96" y="500" type="line"/>
      <point x="2" y="-35" type="line" smooth="yes"/>
      <point x="-4" y="-67"/>
      <point x="-15" y="-81"/>
      <point x="-43" y="-81" type="curve" smooth="yes"/>
      <point x="-52" y="-81"/>
      <point x="-61" y="-80"/>
      <point x="-71" y="-78" type="curve"/>
    </contour>
  </outline>
</glyph>
<glyph name="nretroflex" format="2">
  <advance width="550"/>
  <unicode hex="0273"/>
  <outline>
    <contour>
      <point x="96" y="500" type="line"/>
      <point x="8" y="0" type="line"/>
      <point x="148" y="0" type="line"/>
      <point x="200" y="293" type="line" smooth="yes"/>
      <point x="211" y="353"/>
      <point x="249" y="391"/>
      <point x="304" y="391" type="curve" smooth="yes"/>
      <point x="352" y="391"/>
      <point x="373" y="361"/>
      <point x="373" y="320" type="curve" smooth="yes"/>
      <point x="373" y="312"/>
      <point x="372" y="304"/>
      <point x="371" y="296" type="curve" smooth="yes"/>
      <point x="307" y="-65" type="line" smooth="yes"/>
      <point x="305" y="-76"/>
      <point x="305" y="-82"/>
      <point x="305" y="-90" type="curve" smooth="yes"/>
      <point x="305" y="-168"/>
      <point x="375" y="-189"/>
      <point x="441" y="-189" type="curve" smooth="yes"/>
      <point x="461" y="-189"/>
      <point x="481" y="-187"/>
      <point x="493" y="-185" type="curve"/>
      <point x="511" y="-80" type="line"/>
      <point x="502" y="-81"/>
      <point x="494" y="-82"/>
      <point x="486" y="-82" type="curve" smooth="yes"/>
      <point x="464" y="-82"/>
      <point x="451" y="-72"/>
      <point x="451" y="-51" type="curve" smooth="yes"/>
      <point x="451" y="-46"/>
      <point x="452" y="-40"/>
      <point x="453" y="-34" type="curve" smooth="yes"/>
      <point x="517" y="327" type="line" smooth="yes"/>
      <point x="520" y="342"/>
      <point x="521" y="355"/>
      <point x="521" y="369" type="curve" smooth="yes"/>
      <point x="521" y="455"/>
      <point x="465" y="512"/>
      <point x="374" y="512" type="curve" smooth="yes"/>
      <point x="309" y="512"/>
      <point x="262" y="481"/>
      <point x="226" y="442" type="curve"/>
      <point x="236" y="500" type="line"/>
    </contour>
  </outline>
</glyph>
<glyph name="vturned" format="2">
  <advance width="550"/>
  <unicode hex="028C"/>
  <outline>
    <contour>
      <point x="396" y="500" type="line"/>
      <point x="241" y="500" type="line"/>
      <point x="-37" y="0" type="line"/>
      <point x="114" y="0" type="line"/>
      <point x="359" y="461" type="line"/>
      <point x="271" y="461" type="line"/>
      <point x="356" y="0" type="line"/>
      <point x="499" y="0" type="line"/>
    </contour>
  </outline>
</glyph>
<glyph name="ringhalfleftmod" format="2">
  <advance width="300"/>
  <unicode hex="02BF"/>
  <outline>
    <contour>
      <point x="294" y="601" type="curve" smooth="yes"/>
      <point x="313" y="601" type="line"/>
      <point x="330" y="700" type="line"/>
      <point x="306" y="700" type="line" smooth="yes"/>
      <point x="166" y="700"/>
      <point x="98" y="609"/>
      <point x="98" y="509" type="curve" smooth="yes"/>
      <point x="98" y="429"/>
      <point x="144" y="370"/>
      <point x="258" y="370" type="curve" smooth="yes"/>
      <point x="272" y="370" type="line"/>
      <point x="289" y="469" type="line"/>
      <point x="274" y="469" type="line"/>
      <point x="233" y="469"/>
      <point x="211" y="492"/>
      <point x="211" y="527" type="curve" smooth="yes"/>
      <point x="211" y="572"/>
      <point x="246" y="601"/>
    </contour>
  </outline>
</glyph>
<glyph name="acutecmb" format="2">
  <advance width="600"/>
  <unicode hex="0301"/>
  <outline>
    <contour>
      <point x="349" y="700" type="line"/>
      <point x="486" y="700" type="line"/>
      <point x="374" y="564" type="line"/>
      <point x="265" y="564" type="line"/>
    </contour>
  </outline>
</glyph>
<glyph name="macroncmb" format="2">
  <advance width="600"/>
  <unicode hex="0304"/>
  <outline>
    <contour>
      <point x="202" y="587" type="line"/>
      <point x="512" y="587" type="line"/>
      <point x="530" y="688" type="line"/>
      <point x="220" y="688" type="line"/>
    </contour>
  </outline>
</glyph>
<glyph name="brevecmb" format="2">
  <advance width="600"/>
  <unicode hex="0306"/>
  <outline>
    <contour>
      <point x="223" y="700" type="line"/>
      <point x="211" y="629"/>
      <point x="253" y="559"/>
      <point x="364" y="559" type="curve" smooth="yes"/>
      <point x="473" y="559"/>
      <point x="527" y="623"/>
      <point x="539" y="700" type="curve"/>
      <point x="432" y="700" type="line"/>
      <point x="428" y="670"/>
      <point x="406" y="648"/>
      <point x="373" y="648" type="curve" smooth="yes"/>
      <point x="340" y="648"/>
      <point x="326" y="670"/>
      <point x="330" y="700" type="curve"/>
    </contour>
  </outline>
</glyph>
<glyph name="hookabovecmb" format="2">
  <advance width="600"/>
  <unicode hex="0309"/>
  <outline>
    <contour>
      <point x="464" y="683" type="curve" smooth="yes"/>
      <point x="464" y="736"/>
      <point x="429" y="779"/>
      <point x="366" y="779" type="curve" smooth="yes"/>
      <point x="318" y="779"/>
      <point x="274" y="754"/>
      <point x="246" y="715" type="curve"/>
      <point x="297" y="667" type="line"/>
      <point x="308" y="683"/>
      <point x="324" y="698"/>
      <point x="347" y="698" type="curve" smooth="yes"/>
      <point x="364" y="698"/>
      <point x="378" y="691"/>
      <point x="378" y="672" type="curve" smooth="yes"/>
      <point x="378" y="647"/>
      <point x="353" y="626"/>
      <point x="299" y="615" type="curve"/>
      <point x="340" y="554" type="line"/>
      <point x="402" y="566"/>
      <point x="464" y="610"/>
    </contour>
  </outline>
</glyph>
<glyph name="ringabovecmb" format="2">
  <advance width="600"/>
  <unicode hex="030A"/>
  <outline>
    <contour>
      <point x="404" y="673" type="curve" smooth="yes"/>
      <point x="404" y="651"/>
      <point x="388" y="628"/>
      <point x="363" y="628" type="curve"/>
      <point x="345" y="628"/>
      <point x="330" y="639"/>
      <point x="330" y="659" type="curve" smooth="yes"/>
      <point x="330" y="681"/>
      <point x="346" y="704"/>
      <point x="371" y="704" type="curve" smooth="yes"/>
      <point x="388" y="704"/>
      <point x="404" y="693"/>
    </contour>
    <contour>
      <point x="256" y="652" type="curve" smooth="yes"/>
      <point x="256" y="598"/>
      <point x="294" y="558"/>
      <point x="354" y="558" type="curve" smooth="yes"/>
      <point x="420" y="558"/>
      <point x="478" y="607"/>
      <point x="478" y="680" type="curve" smooth="yes"/>
      <point x="478" y="734"/>
      <point x="439" y="774"/>
      <point x="380" y="774" type="curve" smooth="yes"/>
      <point x="314" y="774"/>
      <point x="256" y="725"/>
    </contour>
  </outline>
</glyph>
<glyph name="caroncmb" format="2">
  <advance width="600"/>
  <unicode hex="030C"/>
  <outline>
    <contour>
      <point x="421" y="564" type="line"/>
      <point x="555" y="700" type="line"/>
      <point x="438" y="700" type="line"/>
      <point x="305" y="602" type="line"/>
      <point x="411" y="602" type="line"/>
      <point x="312" y="700" type="line"/>
      <point x="201" y="700" type="line"/>
      <point x="287" y="564" type="line"/>
    </contour>
  </outline>
</glyph>
<glyph name="commaturnedabovecmb" format="2">
  <advance width="600"/>
  <unicode hex="0312"/>
  <outline>
    <contour>
      <point x="429" y="564" type="line"/>
      <point x="453" y="700" type="line"/>
      <point x="387" y="700" type="line"/>
      <point x="388" y="702" type="line" smooth="yes"/>
      <point x="394" y="741"/>
      <point x="413" y="771"/>
      <point x="478" y="771" type="curve"/>
      <point x="489" y="834" type="line"/>
      <point x="372" y="834"/>
      <point x="322" y="773"/>
      <point x="310" y="702" type="curve" smooth="yes"/>
      <point x="285" y="564" type="line"/>
    </contour>
  </outline>
</glyph>
<glyph name="cedillacmb" format="2">
  <advance width="600"/>
  <unicode hex="0327"/>
  <outline>
    <contour>
      <point x="77" y="-212" type="line"/>
      <point x="115" y="-228"/>
      <point x="156" y="-235"/>
      <point x="198" y="-235" type="curve" smooth="yes"/>
      <point x="302" y="-235"/>
      <point x="368" y="-180"/>
      <point x="368" y="-116" type="curve" smooth="yes"/>
      <point x="368" y="-61"/>
      <point x="320" y="-39"/>
      <point x="258" y="-39" type="curve" smooth="yes"/>
      <point x="241" y="-39"/>
      <point x="224" y="-42"/>
      <point x="200" y="-51" type="curve"/>
      <point x="231" y="-65" type="line"/>
      <point x="296" y="10" type="line"/>
      <point x="213" y="10" type="line"/>
      <point x="143" y="-71" type="line"/>
      <point x="161" y="-112" type="line"/>
      <point x="187" y="-107"/>
      <point x="201" y="-106"/>
      <point x="216" y="-106" type="curve" smooth="yes"/>
      <point x="240" y="-107"/>
      <point x="258" y="-111"/>
      <point x="258" y="-126" type="curve" smooth="yes"/>
      <point x="258" y="-139"/>
      <point x="243" y="-154"/>
      <point x="198" y="-154" type="curve" smooth="yes"/>
      <point x="168" y="-154"/>
      <point x="139" y="-147"/>
      <point x="91" y="-132" type="curve"/>
    </contour>
  </outline>
</glyph>
<glyph name="ogonekcmb" format="2">
  <advance width="600"/>
  <unicode hex="0328"/>
  <outline>
    <contour>
      <point x="233" y="-204" type="curve" smooth="yes"/>
      <point x="255" y="-204"/>
      <point x="284" y="-202"/>
      <point x="306" y="-197" type="curve"/>
      <point x="321" y="-110" type="line"/>
      <point x="300" y="-114"/>
      <point x="284" y="-116"/>
      <point x="266" y="-116" type="curve" smooth="yes"/>
      <point x="239" y="-115"/>
      <point x="226" y="-106"/>
      <point x="226" y="-90" type="curve" smooth="yes"/>
      <point x="226" y="-58"/>
      <point x="270" y="-31"/>
      <point x="327" y="0" type="curve"/>
      <point x="206" y="0" type="line"/>
      <point x="163" y="-23"/>
      <point x="106" y="-67"/>
      <point x="106" y="-128" type="curve" smooth="yes"/>
      <point x="106" y="-175"/>
      <point x="151" y="-204"/>
    </contour>
  </outline>
</glyph>
<glyph name="lmacrondot" format="2">
  <advance width="300"/>
  <unicode hex="1E39"/>
  <outline>
    <contour>
      <point x="86" y="760" type="line"/>
      <point x="400" y="760" type="line"/>
      <point x="418" y="860" type="line"/>
      <point x="104" y="860" type="line"/>
    </contour>
    <component base="l" identifier="F1C1B3E5"/>
    <component base="dotbelowcmb" xOffset="-150" identifier="93156863"/>
  </outline>
</glyph>
<glyph name="rlinebelow" format="2">
  <advance width="450"/>
  <unicode hex="1E5F"/>
  <outline>
    <contour>
      <point x="-60" y="-178" type="line"/>
      <point x="186" y="-178" type="line"/>
      <point x="204" y="-77" type="line"/>
      <point x="-42" y="-77" type="line"/>
    </contour>
    <component base="r" identifier="DC2CF47E"/>
  </outline>
</glyph>
<glyph name="Germandbls" format="2">
  <advance width="760"/>
  <unicode hex="1E9E"/>
  <outline>
    <contour>
      <point x="147" y="700" type="line"/>
      <point x="23" y="0" type="line"/>
      <point x="174" y="0" type="line"/>
      <point x="298" y="700" type="line"/>
    </contour>
    <contour>
      <point x="741" y="577" type="line"/>
      <point x="763" y="700" type="line"/>
      <point x="212" y="700" type="line"/>
      <point x="190" y="577" type="line"/>
      <point x="637" y="581" type="line"/>
      <point x="607" y="613" type="line"/>
      <point x="341" y="418" type="line"/>
      <point x="323" y="314" type="line"/>
      <point x="445" y="314" type="line" smooth="yes"/>
      <point x="527" y="314"/>
      <point x="576" y="283"/>
      <point x="576" y="227" type="curve" smooth="yes"/>
      <point x="576" y="165"/>
      <point x="519" y="109"/>
      <point x="413" y="109" type="curve" smooth="yes"/>
      <point x="372" y="109"/>
      <point x="325" y="116"/>
      <point x="277" y="133" type="curve"/>
      <point x="256" y="13" type="line"/>
      <point x="309" y="-4"/>
      <point x="364" y="-12"/>
      <point x="419" y="-12" type="curve" smooth="yes"/>
      <point x="636" y="-12"/>
      <point x="731" y="114"/>
      <point x="731" y="245" type="curve" smooth="yes"/>
      <point x="731" y="352"/>
      <point x="657" y="422"/>
      <point x="481" y="428" type="curve" smooth="yes"/>
      <point x="400" y="431" type="line"/>
      <point x="495" y="401" type="line"/>
    </contour>
  </outline>
</glyph>
<glyph name="endash" format="2">
  <advance width="680"/>
  <unicode hex="2013"/>
  <outline>
    <contour>
      <point x="113" y="238" type="line"/>
      <point x="563" y="238" type="line"/>
      <point x="583" y="354" type="line"/>
      <point x="133" y="354" type="line"/>
    </contour>
  </outline>
</glyph>
<glyph name="emdash" format="2">
  <advance width="880"/>
  <unicode hex="2014"/>
  <outline>
    <contour>
      <point x="53" y="238" type="line"/>
      <point x="825" y="238" type="line"/>
      <point x="845" y="354" type="line"/>
      <point x="73" y="354" type="line"/>
    </contour>
  </outline>
</glyph>
<glyph name="quotedblleft" format="2">
  <advance width="500"/>
  <unicode hex="201C"/>
  <outline>
    <contour>
      <point x="439" y="394" type="line"/>
      <point x="467" y="552" type="line"/>
      <point x="390" y="552" type="line"/>
      <point x="392" y="565" type="line" smooth="yes"/>
      <point x="401" y="616"/>
      <point x="438" y="651"/>
      <point x="507" y="651" type="curve"/>
      <point x="517" y="712" type="line"/>
      <point x="386" y="712"/>
      <point x="331" y="618"/>
      <point x="321" y="564" type="curve" smooth="yes"/>
      <point x="291" y="394" type="line"/>
    </contour>
    <contour>
      <point x="242" y="394" type="line"/>
      <point x="270" y="552" type="line"/>
      <point x="193" y="552" type="line"/>
      <point x="195" y="565" type="line" smooth="yes"/>
      <point x="204" y="616"/>
      <point x="241" y="651"/>
      <point x="310" y="651" type="curve"/>
      <point x="320" y="712" type="line"/>
      <point x="189" y="712"/>
      <point x="134" y="618"/>
      <point x="124" y="564" type="curve" smooth="yes"/>
      <point x="94" y="394" type="line"/>
    </contour>
  </outline>
</glyph>
<glyph name="quotedblright" format="2">
  <advance width="500"/>
  <unicode hex="201D"/>
  <outline>
    <contour>
      <point x="167" y="700" type="line"/>
      <point x="139" y="542" type="line"/>
      <point x="216" y="542" type="line"/>
      <point x="214" y="529" type="line" smooth="yes"/>
      <point x="205" y="478"/>
      <point x="168" y="443"/>
      <point x="99" y="443" type="curve"/>
      <point x="89" y="382" type="line"/>
      <point x="220" y="382"/>
      <point x="275" y="476"/>
      <point x="285" y="530" type="curve" smooth="yes"/>
      <point x="315" y="700" type="line"/>
    </contour>
    <contour>
      <point x="364" y="700" type="line"/>
      <point x="336" y="542" type="line"/>
      <point x="413" y="542" type="line"/>
      <point x="411" y="529" type="line" smooth="yes"/>
      <point x="402" y="478"/>
      <point x="365" y="443"/>
      <point x="296" y="443" type="curve"/>
      <point x="286" y="382" type="line"/>
      <point x="417" y="382"/>
      <point x="472" y="476"/>
      <point x="482" y="530" type="curve" smooth="yes"/>
      <point x="512" y="700" type="line"/>
    </contour>
  </outline>
</glyph>
<glyph name="quotedblbase" format="2">
  <advance width="500"/>
  <unicode hex="201E"/>
  <outline>
    <contour>
      <point x="72" y="158" type="line"/>
      <point x="44" y="0" type="line"/>
      <point x="121" y="0" type="line"/>
      <point x="119" y="-13" type="line" smooth="yes"/>
      <point x="110" y="-64"/>
      <point x="73" y="-99"/>
      <point x="4" y="-99" type="curve"/>
      <point x="-6" y="-160" type="line"/>
      <point x="125" y="-160"/>
      <point x="180" y="-66"/>
      <point x="190" y="-12" type="curve" smooth="yes"/>
      <point x="220" y="158" type="line"/>
    </contour>
    <contour>
      <point x="269" y="158" type="line"/>
      <point x="241" y="0" type="line"/>
      <point x="318" y="0" type="line"/>
      <point x="316" y="-13" type="line" smooth="yes"/>
      <point x="307" y="-64"/>
      <point x="270" y="-99"/>
      <point x="201" y="-99" type="curve"/>
      <point x="191" y="-160" type="line"/>
      <point x="322" y="-160"/>
      <point x="377" y="-66"/>
      <point x="387" y="-12" type="curve" smooth="yes"/>
      <point x="417" y="158" type="line"/>
    </contour>
  </outline>
</glyph>
<glyph name="dagger" format="2">
  <advance width="300"/>
  <unicode hex="2020"/>
  <outline>
    <contour>
      <point x="117" y="341" type="line"/>
      <point x="215" y="341" type="line"/>
      <point x="278" y="700" type="line"/>
      <point x="180" y="700" type="line"/>
    </contour>
    <contour>
      <point x="81" y="614" type="line"/>
      <point x="66" y="526" type="line"/>
      <point x="332" y="526" type="line"/>
      <point x="347" y="614" type="line"/>
    </contour>
  </outline>
</glyph>
<glyph name="daggerdbl" format="2">
  <advance width="300"/>
  <unicode hex="2021"/>
  <outline>
    <contour>
      <point x="117" y="341" type="line"/>
      <point x="215" y="341" type="line"/>
      <point x="278" y="700" type="line"/>
      <point x="180" y="700" type="line"/>
    </contour>
    <contour>
      <point x="85" y="637" type="line"/>
      <point x="70" y="549" type="line"/>
      <point x="336" y="549" type="line"/>
      <point x="351" y="637" type="line"/>
    </contour>
    <contour>
      <point x="60" y="493" type="line"/>
      <point x="44" y="405" type="line"/>
      <point x="310" y="405" type="line"/>
      <point x="326" y="493" type="line"/>
    </contour>
  </outline>
</glyph>
<glyph name="bullet" format="2">
  <advance width="500"/>
  <unicode hex="2022"/>
  <outline>
    <contour>
      <point x="247" y="116" type="curve" smooth="yes"/>
      <point x="371" y="116"/>
      <point x="454" y="221"/>
      <point x="454" y="326" type="curve" smooth="yes"/>
      <point x="454" y="424"/>
      <point x="379" y="502"/>
      <point x="275" y="502" type="curve" smooth="yes"/>
      <point x="151" y="502"/>
      <point x="68" y="397"/>
      <point x="68" y="292" type="curve" smooth="yes"/>
      <point x="68" y="194"/>
      <point x="143" y="116"/>
    </contour>
  </outline>
</glyph>
<glyph name="minute" format="2">
  <advance width="300"/>
  <unicode hex="2032"/>
  <outline>
    <contour>
      <point x="178" y="700" type="line"/>
      <point x="62" y="363" type="line"/>
      <point x="170" y="363" type="line"/>
      <point x="338" y="700" type="line"/>
    </contour>
  </outline>
</glyph>
<glyph name="second" format="2">
  <advance width="450"/>
  <unicode hex="2033"/>
  <outline>
    <contour>
      <point x="151" y="700" type="line"/>
      <point x="35" y="363" type="line"/>
      <point x="143" y="363" type="line"/>
      <point x="311" y="700" type="line"/>
    </contour>
    <contour>
      <point x="354" y="700" type="line"/>
      <point x="238" y="363" type="line"/>
      <point x="346" y="363" type="line"/>
      <point x="514" y="700" type="line"/>
    </contour>
  </outline>
</glyph>
<glyph name="guilsinglleft" format="2">
  <advance width="300"/>
  <unicode hex="2039"/>
  <outline>
    <contour>
      <point x="328" y="450" type="line"/>
      <point x="183" y="450" type="line"/>
      <point x="13" y="276" type="line"/>
      <point x="5" y="234" type="line"/>
      <point x="115" y="60" type="line"/>
      <point x="246" y="60" type="line"/>
      <point x="107" y="280" type="line"/>
      <point x="113" y="230" type="line"/>
    </contour>
  </outline>
</glyph>
<glyph name="interrobang" format="2">
  <advance width="500"/>
  <unicode hex="203D"/>
  <outline>
    <contour>
      <point x="378" y="678" type="line"/>
      <point x="250" y="682" type="line"/>
      <point x="183" y="217" type="line"/>
      <point x="271" y="217" type="line"/>
    </contour>
    <contour>
      <point x="196" y="217" type="line"/>
      <point x="302" y="217" type="line"/>
      <point x="306" y="235" type="line" smooth="yes"/>
      <point x="316" y="282"/>
      <point x="337" y="305"/>
      <point x="390" y="338" type="curve" smooth="yes"/>
      <point x="464" y="386"/>
      <point x="529" y="447"/>
      <point x="529" y="545" type="curve" smooth="yes"/>
      <point x="529" y="646"/>
      <point x="445" y="712"/>
      <point x="323" y="712" type="curve" smooth="yes"/>
      <point x="191" y="712"/>
      <point x="92" y="638"/>
      <point x="53" y="524" type="curve"/>
      <point x="168" y="492" type="line"/>
      <point x="187" y="553"/>
      <point x="226" y="603"/>
      <point x="303" y="603" type="curve" smooth="yes"/>
      <point x="358" y="603"/>
      <point x="393" y="576"/>
      <point x="393" y="529" type="curve" smooth="yes"/>
      <point x="393" y="496"/>
      <point x="377" y="461"/>
      <point x="308" y="410" type="curve" smooth="yes"/>
      <point x="239" y="359"/>
      <point x="216" y="325"/>
      <point x="201" y="244" type="curve" smooth="yes"/>
    </contour>
    <contour>
      <point x="129" y="0" type="line"/>
      <point x="276" y="0" type="line"/>
      <point x="302" y="149" type="line"/>
      <point x="155" y="149" type="line"/>
    </contour>
  </outline>
</glyph>
<glyph name="naira" format="2">
  <advance width="680"/>
  <unicode hex="20A6"/>
  <outline>
    <contour>
      <point x="60" y="392" type="line"/>
      <point x="187" y="392" type="line"/>
      <point x="205" y="492" type="line"/>
      <point x="78" y="492" type="line"/>
    </contour>
    <contour>
      <point x="511" y="229" type="line"/>
      <point x="640" y="229" type="line"/>
      <point x="657" y="329" type="line"/>
      <point x="528" y="329" type="line"/>
    </contour>
    <contour>
      <point x="350" y="392" type="line"/>
      <point x="668" y="392" type="line"/>
      <point x="686" y="492" type="line"/>
      <point x="331" y="492" type="line"/>
    </contour>
    <contour>
      <point x="32" y="229" type="line"/>
      <point x="398" y="229" type="line"/>
      <point x="376" y="329" type="line"/>
      <point x="49" y="329" type="line"/>
    </contour>
    <contour>
      <point x="483" y="118" type="line"/>
      <point x="360" y="700" type="line"/>
      <point x="182" y="700" type="line"/>
      <point x="58" y="0" type="line"/>
      <point x="191" y="0" type="line"/>
      <point x="294" y="580" type="line"/>
      <point x="261" y="580" type="line"/>
      <point x="382" y="0" type="line"/>
      <point x="529" y="0" type="line"/>
      <point x="653" y="700" type="line"/>
      <point x="521" y="700" type="line"/>
      <point x="418" y="118" type="line"/>
    </contour>
  </outline>
</glyph>
<glyph name="trademark" format="2">
  <advance width="760"/>
  <unicode hex="2122"/>
  <outline>
    <contour>
      <point x="202" y="677" type="line"/>
      <point x="303" y="677" type="line"/>
      <point x="245" y="347" type="line"/>
      <point x="144" y="347" type="line"/>
    </contour>
    <contour>
      <point x="96" y="610" type="line"/>
      <point x="112" y="700" type="line"/>
      <point x="402" y="700" type="line"/>
      <point x="386" y="610" type="line"/>
    </contour>
    <contour>
      <point x="499" y="676" type="line"/>
      <point x="529" y="347" type="line"/>
      <point x="579" y="347" type="line"/>
      <point x="727" y="675" type="line"/>
      <point x="699" y="675" type="line"/>
      <point x="641" y="347" type="line"/>
      <point x="732" y="347" type="line"/>
      <point x="794" y="700" type="line"/>
      <point x="660" y="700" type="line"/>
      <point x="556" y="472" type="line"/>
      <point x="594" y="472" type="line"/>
      <point x="571" y="700" type="line"/>
      <point x="440" y="700" type="line"/>
      <point x="378" y="347" type="line"/>
      <point x="469" y="347" type="line"/>
      <point x="527" y="676" type="line"/>
    </contour>
  </outline>
</glyph>
<glyph name="onetenth" format="2">
  <advance width="760"/>
  <unicode hex="2152"/>
  <outline>
    <contour>
      <point x="340" y="0" type="line"/>
      <point x="416" y="0" type="line"/>
      <point x="466" y="274" type="line"/>
      <point x="395" y="274" type="line"/>
      <point x="387" y="226"/>
      <point x="370" y="211"/>
      <point x="318" y="211" type="curve"/>
      <point x="308" y="153" type="line"/>
      <point x="410" y="153" type="line"/>
      <point x="376" y="205" type="line"/>
    </contour>
    <contour>
      <point x="577" y="-6" type="curve" smooth="yes"/>
      <point x="667" y="-6"/>
      <point x="716" y="81"/>
      <point x="716" y="167" type="curve" smooth="yes"/>
      <point x="716" y="236"/>
      <point x="677" y="276"/>
      <point x="617" y="276" type="curve" smooth="yes"/>
      <point x="527" y="276"/>
      <point x="478" y="189"/>
      <point x="478" y="102" type="curve" smooth="yes"/>
      <point x="478" y="34"/>
      <point x="516" y="-6"/>
    </contour>
    <contour>
      <point x="119" y="386" type="line"/>
      <point x="207" y="386" type="line"/>
      <point x="264" y="700" type="line"/>
      <point x="182" y="700" type="line"/>
      <point x="173" y="646"/>
      <point x="154" y="629"/>
      <point x="94" y="629" type="curve"/>
      <point x="82" y="561" type="line"/>
      <point x="200" y="561" type="line"/>
      <point x="161" y="621" type="line"/>
    </contour>
    <contour>
      <point x="21" y="0" type="line"/>
      <point x="110" y="0" type="line"/>
      <point x="574" y="700" type="line"/>
      <point x="485" y="700" type="line"/>
    </contour>
    <contour>
      <point x="584" y="58" type="curve" smooth="yes"/>
      <point x="566" y="58"/>
      <point x="556" y="73"/>
      <point x="556" y="105" type="curve" smooth="yes"/>
      <point x="556" y="150"/>
      <point x="572" y="212"/>
      <point x="610" y="212" type="curve" smooth="yes"/>
      <point x="628" y="212"/>
      <point x="638" y="197"/>
      <point x="638" y="165" type="curve" smooth="yes"/>
      <point x="638" y="120"/>
      <point x="622" y="58"/>
    </contour>
  </outline>
</glyph>
<glyph name="notequal" format="2">
  <advance width="600"/>
  <unicode hex="2260"/>
  <outline>
    <contour>
      <point x="48" y="70" type="line"/>
      <point x="177" y="70" type="line"/>
      <point x="584" y="610" type="line"/>
      <point x="455" y="610" type="line"/>
    </contour>
    <component base="equal" identifier="DF7BF239"/>
  </outline>
</glyph>
<glyph name="lessequal" format="2">
  <advance width="600"/>
  <unicode hex="2264"/>
  <outline>
    <contour>
      <point x="498" y="0" type="line"/>
      <point x="519" y="120" type="line"/>
      <point x="31" y="120" type="line"/>
      <point x="10" y="0" type="line"/>
    </contour>
    <contour>
      <point x="95" y="483" type="line"/>
      <point x="73" y="358" type="line"/>
      <point x="526" y="158" type="line"/>
      <point x="547" y="277" type="line"/>
      <point x="157" y="447" type="line"/>
      <point x="145" y="378" type="line"/>
      <point x="595" y="548" type="line"/>
      <point x="618" y="683" type="line"/>
    </contour>
  </outline>
</glyph>
<glyph name="circlewhite" format="2">
  <advance width="760"/>
  <unicode hex="25CB"/>
  <outline>
    <contour>
      <point x="671" y="394" type="curve" smooth="yes"/>
      <point x="671" y="213"/>
      <point x="537" y="73"/>
      <point x="360" y="73" type="curve" smooth="yes"/>
      <point x="219" y="73"/>
      <point x="125" y="170"/>
      <point x="125" y="308" type="curve" smooth="yes"/>
      <point x="125" y="489"/>
      <point x="259" y="627"/>
      <point x="436" y="627" type="curve" smooth="yes"/>
      <point x="577" y="627"/>
      <point x="671" y="532"/>
    </contour>
    <contour>
      <point x="33" y="303" type="curve" smooth="yes"/>
      <point x="33" y="125"/>
      <point x="163" y="-12"/>
      <point x="350" y="-12" type="curve" smooth="yes"/>
      <point x="592" y="-12"/>
      <point x="763" y="174"/>
      <point x="763" y="399" type="curve" smooth="yes"/>
      <point x="763" y="577"/>
      <point x="633" y="712"/>
      <point x="446" y="712" type="curve" smooth="yes"/>
      <point x="204" y="712"/>
      <point x="33" y="528"/>
    </contour>
  </outline>
</glyph>
<glyph name="circleblack" format="2">
  <advance width="760"/>
  <unicode hex="25CF"/>
  <outline>
    <contour>
      <point x="33" y="303" type="curve" smooth="yes"/>
      <point x="33" y="125"/>
      <point x="163" y="-12"/>
      <point x="350" y="-12" type="curve" smooth="yes"/>
      <point x="592" y="-12"/>
      <point x="763" y="174"/>
      <point x="763" y="399" type="curve" smooth="yes"/>
      <point x="763" y="577"/>
      <point x="633" y="712"/>
      <point x="446" y="712" type="curve" smooth="yes"/>
      <point x="204" y="712"/>
      <point x="33" y="528"/>
    </contour>
  </outline>
</glyph>
<glyph name="onesanscircled" format="2">
  <advance width="760"/>
  <unicode hex="2780"/>
  <outline>
    <contour>
      <point x="399" y="546" type="line"/>
      <point x="387" y="478"/>
      <point x="364" y="457"/>
      <point x="278" y="457" type="curve"/>
      <point x="263" y="373" type="line"/>
      <point x="359" y="373" type="line"/>
      <point x="320" y="154" type="line"/>
      <point x="430" y="154" type="line"/>
      <point x="500" y="546" type="line"/>
    </contour>
    <component base="circlewhite" identifier="7E482CA6"/>
  </outline>
</glyph>
<glyph name="threesanscircled" format="2">
  <advance width="760"/>
  <unicode hex="2782"/>
  <outline>
    <contour>
      <point x="227" y="294" type="line"/>
      <point x="224" y="282"/>
      <point x="222" y="271"/>
      <point x="222" y="260" type="curve" smooth="yes"/>
      <point x="222" y="186"/>
      <point x="287" y="148"/>
      <point x="373" y="148" type="curve" smooth="yes"/>
      <point x="482" y="148"/>
      <point x="543" y="208"/>
      <point x="543" y="281" type="curve" smooth="yes"/>
      <point x="543" y="320"/>
      <point x="520" y="344"/>
      <point x="483" y="356" type="curve"/>
      <point x="522" y="367"/>
      <point x="563" y="399"/>
      <point x="563" y="454" type="curve" smooth="yes"/>
      <point x="563" y="505"/>
      <point x="525" y="552"/>
      <point x="424" y="552" type="curve" smooth="yes"/>
      <point x="334" y="552"/>
      <point x="263" y="505"/>
      <point x="254" y="413" type="curve"/>
      <point x="362" y="420" type="line"/>
      <point x="363" y="447"/>
      <point x="383" y="467"/>
      <point x="412" y="467" type="curve" smooth="yes"/>
      <point x="428" y="467"/>
      <point x="449" y="459"/>
      <point x="449" y="435" type="curve" smooth="yes"/>
      <point x="449" y="412"/>
      <point x="431" y="395"/>
      <point x="406" y="395" type="curve" smooth="yes"/>
      <point x="370" y="395" type="line"/>
      <point x="357" y="317" type="line"/>
      <point x="391" y="317" type="line" smooth="yes"/>
      <point x="416" y="317"/>
      <point x="432" y="306"/>
      <point x="432" y="282" type="curve" smooth="yes"/>
      <point x="432" y="256"/>
      <point x="415" y="233"/>
      <point x="379" y="233" type="curve" smooth="yes"/>
      <point x="351" y="233"/>
      <point x="333" y="247"/>
      <point x="333" y="269" type="curve" smooth="yes"/>
      <point x="333" y="274"/>
      <point x="334" y="280"/>
      <point x="336" y="287" type="curve"/>
    </contour>
    <component base="circlewhite" identifier="021C4F4B"/>
  </outline>
</glyph>
<glyph name="eightsanscircled" format="2">
  <advance width="760"/>
  <unicode hex="2787"/>
  <outline>
    <contour>
      <point x="546" y="279" type="curve" smooth="yes"/>
      <point x="546" y="320"/>
      <point x="521" y="347"/>
      <point x="487" y="360" type="curve"/>
      <point x="528" y="372"/>
      <point x="563" y="404"/>
      <point x="563" y="455" type="curve" smooth="yes"/>
      <point x="563" y="511"/>
      <point x="514" y="552"/>
      <point x="422" y="552" type="curve" smooth="yes"/>
      <point x="318" y="552"/>
      <point x="264" y="497"/>
      <point x="264" y="435" type="curve" smooth="yes"/>
      <point x="264" y="399"/>
      <point x="283" y="377"/>
      <point x="311" y="366" type="curve"/>
      <point x="261" y="352"/>
      <point x="220" y="315"/>
      <point x="220" y="257" type="curve" smooth="yes"/>
      <point x="220" y="192"/>
      <point x="274" y="148"/>
      <point x="373" y="148" type="curve" smooth="yes"/>
      <point x="492" y="148"/>
      <point x="546" y="218"/>
    </contour>
    <contour>
      <point x="369" y="434" type="curve" smooth="yes"/>
      <point x="369" y="454"/>
      <point x="386" y="474"/>
      <point x="416" y="474" type="curve" smooth="yes"/>
      <point x="441" y="474"/>
      <point x="456" y="460"/>
      <point x="456" y="441" type="curve" smooth="yes"/>
      <point x="456" y="421"/>
      <point x="439" y="400"/>
      <point x="409" y="400" type="curve" smooth="yes"/>
      <point x="384" y="400"/>
      <point x="369" y="415"/>
    </contour>
    <contour>
      <point x="438" y="282" type="curve" smooth="yes"/>
      <point x="438" y="256"/>
      <point x="418" y="226"/>
      <point x="380" y="226" type="curve" smooth="yes"/>
      <point x="350" y="226"/>
      <point x="330" y="244"/>
      <point x="330" y="269" type="curve" smooth="yes"/>
      <point x="330" y="295"/>
      <point x="350" y="324"/>
      <point x="388" y="324" type="curve" smooth="yes"/>
      <point x="418" y="324"/>
      <point x="438" y="307"/>
    </contour>
    <component base="circlewhite" identifier="451D0157"/>
  </outline>
</glyph>
<glyph name="onesansnegativecircled" format="2">
  <advance width="760"/>
  <unicode hex="278A"/>
  <outline>
    <contour>
      <point x="399" y="546" type="curve"/>
      <point x="500" y="546" type="line"/>
      <point x="430" y="154" type="line"/>
      <point x="320" y="154" type="line"/>
      <point x="359" y="373" type="line"/>
      <point x="263" y="373" type="line"/>
      <point x="278" y="457" type="line"/>
      <point x="364" y="457"/>
      <point x="387" y="478"/>
    </contour>
    <component base="circleblack" identifier="F69A737F"/>
  </outline>
</glyph>
<glyph name="twosansnegativecircled" format="2">
  <advance width="760"/>
  <unicode hex="278B"/>
  <outline>
    <contour>
      <point x="229" y="242" type="line"/>
      <point x="390" y="349"/>
      <point x="451" y="382"/>
      <point x="451" y="428" type="curve" smooth="yes"/>
      <point x="451" y="452"/>
      <point x="435" y="465"/>
      <point x="414" y="465" type="curve" smooth="yes"/>
      <point x="384" y="465"/>
      <point x="366" y="442"/>
      <point x="366" y="415" type="curve" smooth="yes"/>
      <point x="366" y="407"/>
      <point x="368" y="398"/>
      <point x="371" y="389" type="curve"/>
      <point x="267" y="380" type="line"/>
      <point x="262" y="393"/>
      <point x="260" y="405"/>
      <point x="260" y="419" type="curve" smooth="yes"/>
      <point x="260" y="482"/>
      <point x="311" y="552"/>
      <point x="423" y="552" type="curve" smooth="yes"/>
      <point x="526" y="552"/>
      <point x="565" y="496"/>
      <point x="565" y="438" type="curve" smooth="yes"/>
      <point x="565" y="358"/>
      <point x="493" y="306"/>
      <point x="390" y="245" type="curve"/>
      <point x="533" y="245" type="line"/>
      <point x="517" y="154" type="line"/>
      <point x="214" y="154" type="line"/>
    </contour>
    <component base="circleblack" identifier="0A9A2EE4"/>
  </outline>
</glyph>
<glyph name="sevensansnegativecircled" format="2">
  <advance width="760"/>
  <unicode hex="2790"/>
  <outline>
    <contour>
      <point x="275" y="546" type="line"/>
      <point x="601" y="546" type="line"/>
      <point x="589" y="480" type="line"/>
      <point x="484" y="375"/>
      <point x="414" y="285"/>
      <point x="380" y="154" type="curve"/>
      <point x="262" y="154" type="line"/>
      <point x="288" y="270"/>
      <point x="358" y="361"/>
      <point x="453" y="456" type="curve"/>
      <point x="360" y="456" type="line"/>
      <point x="347" y="385" type="line"/>
      <point x="246" y="385" type="line"/>
    </contour>
    <component base="circleblack" identifier="339BCEE6"/>
  </outline>
</glyph>
<glyph name="eightsansnegativecircled" format="2">
  <advance width="760"/>
  <unicode hex="2791"/>
  <outline>
    <contour>
      <point x="546" y="279" type="curve" smooth="yes"/>
      <point x="546" y="218"/>
      <point x="492" y="148"/>
      <point x="373" y="148" type="curve" smooth="yes"/>
      <point x="274" y="148"/>
      <point x="220" y="192"/>
      <point x="220" y="257" type="curve" smooth="yes"/>
      <point x="220" y="315"/>
      <point x="261" y="352"/>
      <point x="311" y="366" type="curve"/>
      <point x="283" y="377"/>
      <point x="264" y="399"/>
      <point x="264" y="435" type="curve" smooth="yes"/>
      <point x="264" y="497"/>
      <point x="318" y="552"/>
      <point x="422" y="552" type="curve" smooth="yes"/>
      <point x="514" y="552"/>
      <point x="563" y="511"/>
      <point x="563" y="455" type="curve" smooth="yes"/>
      <point x="563" y="404"/>
      <point x="528" y="372"/>
      <point x="487" y="360" type="curve"/>
      <point x="521" y="347"/>
      <point x="546" y="320"/>
    </contour>
    <contour>
      <point x="369" y="434" type="curve" smooth="yes"/>
      <point x="369" y="415"/>
      <point x="384" y="400"/>
      <point x="409" y="400" type="curve" smooth="yes"/>
      <point x="439" y="400"/>
      <point x="456" y="421"/>
      <point x="456" y="441" type="curve" smooth="yes"/>
      <point x="456" y="460"/>
      <point x="441" y="474"/>
      <point x="416" y="474" type="curve" smooth="yes"/>
      <point x="386" y="474"/>
      <point x="369" y="454"/>
    </contour>
    <contour>
      <point x="438" y="282" type="curve" smooth="yes"/>
      <point x="438" y="307"/>
      <point x="418" y="324"/>
      <point x="388" y="324" type="curve" smooth="yes"/>
      <point x="350" y="324"/>
      <point x="330" y="295"/>
      <point x="330" y="269" type="curve" smooth="yes"/>
      <point x="330" y="244"/>
      <point x="350" y="226"/>
      <point x="380" y="226" type="curve" smooth="yes"/>
      <point x="418" y="226"/>
      <point x="438" y="256"/>
    </contour>
    <component base="circleblack" identifier="0EFBBEA9"/>
  </outline>
</glyph>
<glyph name="ninesansnegativecircled" format="2">
  <advance width="760"/>
  <unicode hex="2792"/>
  <outline>
    <contour>
      <point x="426" y="551" type="curve" smooth="yes"/>
      <point x="531" y="551"/>
      <point x="568" y="489"/>
      <point x="568" y="418" type="curve" smooth="yes"/>
      <point x="568" y="399"/>
      <point x="566" y="378"/>
      <point x="561" y="352" type="curve" smooth="yes"/>
      <point x="538" y="220"/>
      <point x="483" y="147"/>
      <point x="371" y="147" type="curve" smooth="yes"/>
      <point x="289" y="147"/>
      <point x="236" y="190"/>
      <point x="236" y="267" type="curve" smooth="yes"/>
      <point x="236" y="274"/>
      <point x="236" y="277"/>
      <point x="237" y="285" type="curve"/>
      <point x="349" y="269" type="line"/>
      <point x="345" y="244"/>
      <point x="356" y="227"/>
      <point x="379" y="227" type="curve" smooth="yes"/>
      <point x="412" y="227"/>
      <point x="432" y="267"/>
      <point x="444" y="315" type="curve"/>
      <point x="423" y="297"/>
      <point x="396" y="288"/>
      <point x="362" y="288" type="curve" smooth="yes"/>
      <point x="298" y="288"/>
      <point x="254" y="323"/>
      <point x="254" y="391" type="curve" smooth="yes"/>
      <point x="254" y="467"/>
      <point x="305" y="551"/>
    </contour>
    <contour>
      <point x="367" y="405" type="curve" smooth="yes"/>
      <point x="367" y="377"/>
      <point x="381" y="362"/>
      <point x="405" y="362" type="curve" smooth="yes"/>
      <point x="437" y="362"/>
      <point x="459" y="391"/>
      <point x="459" y="425" type="curve" smooth="yes"/>
      <point x="459" y="453"/>
      <point x="444" y="470"/>
      <point x="420" y="470" type="curve" smooth="yes"/>
      <point x="388" y="470"/>
      <point x="367" y="439"/>
    </contour>
    <component base="circleblack" identifier="603E0940"/>
  </outline>
</glyph>
<glyph name="aogonek.alt1" format="2">
  <advance width="550"/>
  <outline>
    <contour>
      <point x="308" y="512" type="curve" smooth="yes"/>
      <point x="163" y="512"/>
      <point x="93" y="432"/>
      <point x="75" y="357" type="curve"/>
      <point x="209" y="328" type="line"/>
      <point x="219" y="374"/>
      <point x="240" y="405"/>
      <point x="299" y="405" type="curve" smooth="yes"/>
      <point x="352" y="405"/>
      <point x="374" y="379"/>
      <point x="367" y="338" type="curve" smooth="yes"/>
      <point x="340" y="183" type="line" smooth="yes"/>
      <point x="331" y="129"/>
      <point x="279" y="91"/>
      <point x="223" y="91" type="curve" smooth="yes"/>
      <point x="182" y="91"/>
      <point x="158" y="112"/>
      <point x="158" y="145" type="curve" smooth="yes"/>
      <point x="158" y="179"/>
      <point x="185" y="205"/>
      <point x="260" y="211" type="curve" smooth="yes"/>
      <point x="417" y="223" type="line"/>
      <point x="434" y="317" type="line"/>
      <point x="217" y="301" type="line" smooth="yes"/>
      <point x="94" y="292"/>
      <point x="17" y="226"/>
      <point x="17" y="127" type="curve" smooth="yes"/>
      <point x="17" y="41"/>
      <point x="82" y="-12"/>
      <point x="180" y="-12" type="curve" smooth="yes"/>
      <point x="265" y="-12"/>
      <point x="325" y="29"/>
      <point x="371" y="96" type="curve"/>
      <point x="337" y="100" type="line"/>
      <point x="330" y="65"/>
      <point x="326" y="32"/>
      <point x="325" y="0" type="curve"/>
      <point x="453" y="0" type="line"/>
      <point x="453" y="36"/>
      <point x="457" y="67"/>
      <point x="465" y="114" type="curve" smooth="yes"/>
      <point x="505" y="338" type="line" smooth="yes"/>
      <point x="527" y="460"/>
      <point x="434.66667" y="512.0"/>
    </contour>
    <component base="ogonek" xOffset="126"/>
  </outline>
</glyph>
<glyph name="backslash.uc" format="2">
  <advance width="600"/>
  <outline>
    <contour>
      <point x="238" y="745" type="line"/>
      <point x="99" y="745" type="line"/>
      <point x="378" y="-83" type="line"/>
      <point x="517" y="-83" type="line"/>
    </contour>
  </outline>
</glyph>
<glyph name="bar.uc" format="2">
  <advance width="300"/>
  <outline>
    <contour>
      <point x="166" y="745" type="line"/>
      <point x="20" y="-83" type="line"/>
      <point x="163" y="-83" type="line"/>
      <point x="309" y="745" type="line"/>
    </contour>
  </outline>
</glyph>
<glyph name="brokenbar.uc" format="2">
  <advance width="300"/>
  <outline>
    <contour>
      <point x="166" y="745" type="line"/>
      <point x="102" y="382" type="line"/>
      <point x="245" y="382" type="line"/>
      <point x="309" y="745" type="line"/>
    </contour>
    <contour>
      <point x="84" y="280" type="line"/>
      <point x="20" y="-83" type="line"/>
      <point x="163" y="-83" type="line"/>
      <point x="227" y="280" type="line"/>
    </contour>
  </outline>
</glyph>
<glyph name="bullet.medium" format="2">
  <advance width="550"/>
  <outline>
    <contour>
      <point x="298" y="538" type="curve" smooth="yes"/>
      <point x="154" y="538"/>
      <point x="55" y="419"/>
      <point x="55" y="294" type="curve" smooth="yes"/>
      <point x="55" y="177"/>
      <point x="147" y="80"/>
      <point x="272" y="80" type="curve" smooth="yes"/>
      <point x="416" y="80"/>
      <point x="515" y="199"/>
      <point x="515" y="324" type="curve" smooth="yes"/>
      <point x="515" y="441"/>
      <point x="422" y="538"/>
    </contour>
  </outline>
</glyph>
<glyph name="caroncmb.alt" format="2">
  <advance width="600"/>
  <outline>
    <contour>
      <point x="309" y="700" type="line"/>
      <point x="273" y="540" type="line"/>
      <point x="357" y="540" type="line"/>
      <point x="413" y="700" type="line"/>
    </contour>
  </outline>
</glyph>
<glyph name="cent.tab" format="2">
  <advance width="600"/>
  <outline>
    <contour>
      <point x="177" y="-112" type="line"/>
      <point x="271" y="-112" type="line"/>
      <point x="396" y="597" type="line"/>
      <point x="302" y="597" type="line"/>
    </contour>
    <contour>
      <point x="539" y="341" type="line"/>
      <point x="531" y="441"/>
      <point x="448" y="512"/>
      <point x="328" y="512" type="curve" smooth="yes"/>
      <point x="147" y="512"/>
      <point x="38" y="356"/>
      <point x="38" y="205" type="curve" smooth="yes"/>
      <point x="38" y="69"/>
      <point x="124" y="-12"/>
      <point x="261" y="-12" type="curve" smooth="yes"/>
      <point x="369" y="-12"/>
      <point x="465" y="42"/>
      <point x="507" y="139" type="curve"/>
      <point x="377" y="178" type="line"/>
      <point x="353" y="121"/>
      <point x="318" y="102"/>
      <point x="274" y="102" type="curve" smooth="yes"/>
      <point x="217" y="102"/>
      <point x="179" y="134"/>
      <point x="179" y="210" type="curve" smooth="yes"/>
      <point x="179" y="306"/>
      <point x="226" y="398"/>
      <point x="318" y="398" type="curve" smooth="yes"/>
      <point x="361" y="398"/>
      <point x="403" y="377"/>
      <point x="403" y="312" type="curve"/>
    </contour>
  </outline>
</glyph>
<glyph name="circumflexcmb.uc" format="2">
  <advance width="600"/>
  <outline>
    <contour>
      <point x="344" y="892" type="line"/>
      <point x="200" y="760" type="line"/>
      <point x="327" y="760" type="line"/>
      <point x="463" y="845" type="line"/>
      <point x="355" y="845" type="line"/>
      <point x="461" y="760" type="line"/>
      <point x="580" y="760" type="line"/>
      <point x="484" y="892" type="line"/>
    </contour>
  </outline>
</glyph>
<glyph name="colon.tab" format="2">
  <advance width="600"/>
  <outline>
    <contour>
      <point x="212" y="179" type="line"/>
      <point x="181" y="0" type="line"/>
      <point x="332" y="0" type="line"/>
      <point x="363" y="179" type="line"/>
    </contour>
    <contour>
      <point x="268" y="500" type="line"/>
      <point x="237" y="321" type="line"/>
      <point x="388" y="321" type="line"/>
      <point x="419" y="500" type="line"/>
    </contour>
  </outline>
</glyph>
<glyph name="currency.tab" format="2">
  <advance width="600"/>
  <outline>
    <contour>
      <point x="204" y="327" type="curve" smooth="yes"/>
      <point x="204" y="389"/>
      <point x="253" y="456"/>
      <point x="328" y="456" type="curve" smooth="yes"/>
      <point x="385" y="456"/>
      <point x="420" y="417"/>
      <point x="420" y="363" type="curve" smooth="yes"/>
      <point x="420" y="301"/>
      <point x="371" y="234"/>
      <point x="296" y="234" type="curve" smooth="yes"/>
      <point x="239" y="234"/>
      <point x="204" y="273"/>
    </contour>
    <contour>
      <point x="164" y="439" type="line"/>
      <point x="253" y="511" type="line"/>
      <point x="169" y="617" type="line"/>
      <point x="80" y="544" type="line"/>
    </contour>
    <contour>
      <point x="282" y="122" type="curve" smooth="yes"/>
      <point x="426" y="122"/>
      <point x="536" y="240"/>
      <point x="536" y="378" type="curve" smooth="yes"/>
      <point x="536" y="487"/>
      <point x="455" y="568"/>
      <point x="342" y="568" type="curve" smooth="yes"/>
      <point x="198" y="568"/>
      <point x="88" y="450"/>
      <point x="88" y="312" type="curve" smooth="yes"/>
      <point x="88" y="203"/>
      <point x="169" y="122"/>
    </contour>
    <contour>
      <point x="455" y="73" type="line"/>
      <point x="544" y="146" type="line"/>
      <point x="460" y="251" type="line"/>
      <point x="371" y="179" type="line"/>
    </contour>
    <contour>
      <point x="425" y="509" type="line"/>
      <point x="494" y="423" type="line"/>
      <point x="614" y="522" type="line"/>
      <point x="545" y="607" type="line"/>
    </contour>
    <contour>
      <point x="10" y="168" type="line"/>
      <point x="79" y="83" type="line"/>
      <point x="199" y="181" type="line"/>
      <point x="130" y="267" type="line"/>
    </contour>
  </outline>
</glyph>
<glyph name="dieresiscmb.uc" format="2">
  <advance width="600"/>
  <outline>
    <contour>
      <point x="234" y="899" type="line"/>
      <point x="210" y="760" type="line"/>
      <point x="359" y="760" type="line"/>
      <point x="383" y="899" type="line"/>
    </contour>
    <contour>
      <point x="445" y="899" type="line"/>
      <point x="421" y="760" type="line"/>
      <point x="570" y="760" type="line"/>
      <point x="594" y="899" type="line"/>
    </contour>
  </outline>
</glyph>
<glyph name="dotaccentcmb.uc" format="2">
  <advance width="600"/>
  <outline>
    <contour>
      <point x="339" y="899" type="line"/>
      <point x="315" y="760" type="line"/>
      <point x="465" y="760" type="line"/>
      <point x="489" y="899" type="line"/>
    </contour>
  </outline>
</glyph>
<glyph name="eight.den" format="2">
  <advance width="300"/>
  <outline>
    <contour>
      <point x="152" y="270" type="curve" smooth="yes"/>
      <point x="173" y="270"/>
      <point x="186" y="258"/>
      <point x="186" y="242" type="curve" smooth="yes"/>
      <point x="186" y="225"/>
      <point x="171" y="207"/>
      <point x="146" y="207" type="curve" smooth="yes"/>
      <point x="125" y="207"/>
      <point x="112" y="220"/>
      <point x="112" y="236" type="curve" smooth="yes"/>
      <point x="112" y="253"/>
      <point x="126" y="270"/>
    </contour>
    <contour>
      <point x="157" y="336" type="curve" smooth="yes"/>
      <point x="68" y="336"/>
      <point x="23" y="289"/>
      <point x="23" y="237" type="curve" smooth="yes"/>
      <point x="23" y="200"/>
      <point x="46" y="181"/>
      <point x="78" y="173" type="curve"/>
      <point x="79" y="181" type="line"/>
      <point x="29" y="174"/>
      <point x="-15" y="141"/>
      <point x="-15" y="85" type="curve" smooth="yes"/>
      <point x="-15" y="30"/>
      <point x="31" y="-7"/>
      <point x="115" y="-7" type="curve" smooth="yes"/>
      <point x="216" y="-7"/>
      <point x="262" y="52"/>
      <point x="262" y="104" type="curve" smooth="yes"/>
      <point x="262" y="145"/>
      <point x="233" y="169"/>
      <point x="197" y="178" type="curve"/>
      <point x="195" y="170" type="line"/>
      <point x="238" y="175"/>
      <point x="277" y="204"/>
      <point x="277" y="254" type="curve" smooth="yes"/>
      <point x="277" y="301"/>
      <point x="235" y="336"/>
    </contour>
    <contour>
      <point x="128" y="142" type="curve" smooth="yes"/>
      <point x="153" y="142"/>
      <point x="170" y="128"/>
      <point x="170" y="107" type="curve" smooth="yes"/>
      <point x="170" y="85"/>
      <point x="153" y="59"/>
      <point x="121" y="59" type="curve" smooth="yes"/>
      <point x="96" y="59"/>
      <point x="79" y="74"/>
      <point x="79" y="96" type="curve" smooth="yes"/>
      <point x="79" y="118"/>
      <point x="96" y="142"/>
    </contour>
  </outline>
</glyph>
<glyph name="eight.num" format="2">
  <advance width="300"/>
  <outline>
    <contour>
      <point x="217" y="639" type="curve" smooth="yes"/>
      <point x="238" y="639"/>
      <point x="251" y="627"/>
      <point x="251" y="611" type="curve" smooth="yes"/>
      <point x="251" y="594"/>
      <point x="236" y="576"/>
      <point x="211" y="576" type="curve" smooth="yes"/>
      <point x="190" y="576"/>
      <point x="177" y="589"/>
      <point x="177" y="605" type="curve" smooth="yes"/>
      <point x="177" y="622"/>
      <point x="191" y="639"/>
    </contour>
    <contour>
      <point x="222" y="705" type="curve" smooth="yes"/>
      <point x="133" y="705"/>
      <point x="88" y="658"/>
      <point x="88" y="606" type="curve" smooth="yes"/>
      <point x="88" y="569"/>
      <point x="111" y="550"/>
      <point x="143" y="542" type="curve"/>
      <point x="144" y="550" type="line"/>
      <point x="94" y="543"/>
      <point x="50" y="510"/>
      <point x="50" y="454" type="curve" smooth="yes"/>
      <point x="50" y="399"/>
      <point x="96" y="362"/>
      <point x="180" y="362" type="curve" smooth="yes"/>
      <point x="281" y="362"/>
      <point x="327" y="421"/>
      <point x="327" y="473" type="curve" smooth="yes"/>
      <point x="327" y="514"/>
      <point x="298" y="538"/>
      <point x="262" y="547" type="curve"/>
      <point x="260" y="539" type="line"/>
      <point x="303" y="544"/>
      <point x="342" y="573"/>
      <point x="342" y="623" type="curve" smooth="yes"/>
      <point x="342" y="670"/>
      <point x="300" y="705"/>
    </contour>
    <contour>
      <point x="193" y="511" type="curve" smooth="yes"/>
      <point x="218" y="511"/>
      <point x="235" y="497"/>
      <point x="235" y="476" type="curve" smooth="yes"/>
      <point x="235" y="454"/>
      <point x="218" y="428"/>
      <point x="186" y="428" type="curve" smooth="yes"/>
      <point x="161" y="428"/>
      <point x="144" y="443"/>
      <point x="144" y="465" type="curve" smooth="yes"/>
      <point x="144" y="487"/>
      <point x="161" y="511"/>
    </contour>
  </outline>
</glyph>
<glyph name="eight.sub" format="2">
  <advance width="300"/>
  <outline>
    <contour>
      <point x="105" y="195" type="curve" smooth="yes"/>
      <point x="105" y="212"/>
      <point x="119" y="229"/>
      <point x="145" y="229" type="curve" smooth="yes"/>
      <point x="166" y="229"/>
      <point x="179" y="217"/>
      <point x="179" y="201" type="curve" smooth="yes"/>
      <point x="179" y="184"/>
      <point x="164" y="166"/>
      <point x="139" y="166" type="curve" smooth="yes"/>
      <point x="118" y="166"/>
      <point x="105" y="179"/>
    </contour>
    <contour>
      <point x="71" y="132" type="curve"/>
      <point x="72" y="140" type="line"/>
      <point x="22" y="133"/>
      <point x="-22" y="100"/>
      <point x="-22" y="44" type="curve" smooth="yes"/>
      <point x="-22" y="-11"/>
      <point x="24" y="-48"/>
      <point x="108" y="-48" type="curve" smooth="yes"/>
      <point x="209" y="-48"/>
      <point x="255" y="11"/>
      <point x="255" y="63" type="curve" smooth="yes"/>
      <point x="255" y="104"/>
      <point x="226" y="128"/>
      <point x="190" y="137" type="curve"/>
      <point x="188" y="129" type="line"/>
      <point x="231" y="134"/>
      <point x="270" y="163"/>
      <point x="270" y="213" type="curve" smooth="yes"/>
      <point x="270" y="260"/>
      <point x="228" y="295"/>
      <point x="150" y="295" type="curve" smooth="yes"/>
      <point x="61" y="295"/>
      <point x="16" y="248"/>
      <point x="16" y="196" type="curve" smooth="yes"/>
      <point x="16" y="159"/>
      <point x="39" y="140"/>
    </contour>
    <contour>
      <point x="114" y="18" type="curve" smooth="yes"/>
      <point x="89" y="18"/>
      <point x="72" y="33"/>
      <point x="72" y="55" type="curve" smooth="yes"/>
      <point x="72" y="77"/>
      <point x="89" y="101"/>
      <point x="121" y="101" type="curve" smooth="yes"/>
      <point x="146" y="101"/>
      <point x="163" y="87"/>
      <point x="163" y="66" type="curve" smooth="yes"/>
      <point x="163" y="44"/>
      <point x="146" y="18"/>
    </contour>
  </outline>
</glyph>
<glyph name="eight.sup" format="2">
  <advance width="300"/>
  <outline>
    <contour>
      <point x="235" y="739" type="curve" smooth="yes"/>
      <point x="256" y="739"/>
      <point x="269" y="727"/>
      <point x="269" y="711" type="curve" smooth="yes"/>
      <point x="269" y="694"/>
      <point x="254" y="676"/>
      <point x="229" y="676" type="curve" smooth="yes"/>
      <point x="208" y="676"/>
      <point x="195" y="689"/>
      <point x="195" y="705" type="curve" smooth="yes"/>
      <point x="195" y="722"/>
      <point x="209" y="739"/>
    </contour>
    <contour>
      <point x="240" y="805" type="curve" smooth="yes"/>
      <point x="151" y="805"/>
      <point x="106" y="758"/>
      <point x="106" y="706" type="curve" smooth="yes"/>
      <point x="106" y="669"/>
      <point x="129" y="650"/>
      <point x="161" y="642" type="curve"/>
      <point x="162" y="650" type="line"/>
      <point x="112" y="643"/>
      <point x="68" y="610"/>
      <point x="68" y="554" type="curve" smooth="yes"/>
      <point x="68" y="499"/>
      <point x="114" y="462"/>
      <point x="198" y="462" type="curve" smooth="yes"/>
      <point x="299" y="462"/>
      <point x="345" y="521"/>
      <point x="345" y="573" type="curve" smooth="yes"/>
      <point x="345" y="614"/>
      <point x="316" y="638"/>
      <point x="280" y="647" type="curve"/>
      <point x="278" y="639" type="line"/>
      <point x="321" y="644"/>
      <point x="360" y="673"/>
      <point x="360" y="723" type="curve" smooth="yes"/>
      <point x="360" y="770"/>
      <point x="318" y="805"/>
    </contour>
    <contour>
      <point x="211" y="611" type="curve" smooth="yes"/>
      <point x="236" y="611"/>
      <point x="253" y="597"/>
      <point x="253" y="576" type="curve" smooth="yes"/>
      <point x="253" y="554"/>
      <point x="236" y="528"/>
      <point x="204" y="528" type="curve" smooth="yes"/>
      <point x="179" y="528"/>
      <point x="162" y="543"/>
      <point x="162" y="565" type="curve" smooth="yes"/>
      <point x="162" y="587"/>
      <point x="179" y="611"/>
    </contour>
  </outline>
</glyph>
<glyph name="emdash.uc" format="2">
  <advance width="880"/>
  <outline>
    <contour>
      <point x="59" y="276" type="line"/>
      <point x="831" y="276" type="line"/>
      <point x="853" y="396" type="line"/>
      <point x="81" y="396" type="line"/>
    </contour>
  </outline>
</glyph>
<glyph name="endash.uc" format="2">
  <advance width="680"/>
  <outline>
    <contour>
      <point x="120" y="276" type="line"/>
      <point x="570" y="276" type="line"/>
      <point x="591" y="396" type="line"/>
      <point x="141" y="396" type="line"/>
    </contour>
  </outline>
</glyph>
<glyph name="fhook.tab" format="2">
  <advance width="600"/>
  <outline>
    <contour>
      <point x="172" y="366" type="line"/>
      <point x="514" y="366" type="line"/>
      <point x="532" y="470" type="line"/>
      <point x="190" y="470" type="line"/>
    </contour>
    <contour>
      <point x="310" y="149" type="curve" smooth="yes"/>
      <point x="470" y="542" type="line" smooth="yes"/>
      <point x="487" y="583"/>
      <point x="511" y="600"/>
      <point x="548" y="600" type="curve" smooth="yes"/>
      <point x="560" y="600"/>
      <point x="577" y="598"/>
      <point x="593" y="595" type="curve"/>
      <point x="612" y="705" type="line"/>
      <point x="590" y="710"/>
      <point x="566" y="712"/>
      <point x="546" y="712" type="curve" smooth="yes"/>
      <point x="443" y="712"/>
      <point x="371" y="663"/>
      <point x="327" y="554" type="curve" smooth="yes"/>
      <point x="166" y="158" type="line" smooth="yes"/>
      <point x="150" y="118"/>
      <point x="131" y="100"/>
      <point x="87" y="100" type="curve" smooth="yes"/>
      <point x="75" y="100"/>
      <point x="59" y="102"/>
      <point x="43" y="105" type="curve"/>
      <point x="23" y="-6" type="line"/>
      <point x="40" y="-10"/>
      <point x="64" y="-12"/>
      <point x="85" y="-12" type="curve"/>
      <point x="185" y="-12"/>
      <point x="264" y="36"/>
    </contour>
  </outline>
</glyph>
<glyph name="five.den" format="2">
  <advance width="300"/>
  <outline>
    <contour>
      <point x="143" y="312" type="line"/>
      <point x="88" y="253" type="line"/>
      <point x="266" y="253" type="line"/>
      <point x="279" y="331" type="line"/>
      <point x="63" y="331" type="line"/>
      <point x="15" y="145" type="line"/>
      <point x="103" y="136" type="line"/>
      <point x="110" y="146"/>
      <point x="118" y="155"/>
      <point x="133" y="155" type="curve" smooth="yes"/>
      <point x="150" y="155"/>
      <point x="157" y="145"/>
      <point x="157" y="124" type="curve" smooth="yes"/>
      <point x="157" y="98"/>
      <point x="144" y="65"/>
      <point x="121" y="65" type="curve" smooth="yes"/>
      <point x="102" y="65"/>
      <point x="91" y="81"/>
      <point x="94" y="105" type="curve"/>
      <point x="-1" y="117" type="line"/>
      <point x="-2" y="111"/>
      <point x="-2" y="103"/>
      <point x="-2" y="96" type="curve" smooth="yes"/>
      <point x="-2" y="28"/>
      <point x="47" y="-7"/>
      <point x="120" y="-7" type="curve" smooth="yes"/>
      <point x="218" y="-7"/>
      <point x="253" y="63"/>
      <point x="253" y="134" type="curve" smooth="yes"/>
      <point x="253" y="187"/>
      <point x="225" y="224"/>
      <point x="172" y="224" type="curve" smooth="yes"/>
      <point x="122" y="224"/>
      <point x="91" y="193"/>
      <point x="76" y="164" type="curve"/>
      <point x="101" y="167" type="line"/>
    </contour>
  </outline>
</glyph>
<glyph name="five.num" format="2">
  <advance width="300"/>
  <outline>
    <contour>
      <point x="208" y="681" type="line"/>
      <point x="153" y="622" type="line"/>
      <point x="331" y="622" type="line"/>
      <point x="344" y="700" type="line"/>
      <point x="128" y="700" type="line"/>
      <point x="80" y="514" type="line"/>
      <point x="168" y="505" type="line"/>
      <point x="175" y="515"/>
      <point x="183" y="524"/>
      <point x="198" y="524" type="curve" smooth="yes"/>
      <point x="215" y="524"/>
      <point x="222" y="514"/>
      <point x="222" y="493" type="curve" smooth="yes"/>
      <point x="222" y="467"/>
      <point x="209" y="434"/>
      <point x="186" y="434" type="curve" smooth="yes"/>
      <point x="167" y="434"/>
      <point x="156" y="450"/>
      <point x="159" y="474" type="curve"/>
      <point x="64" y="486" type="line"/>
      <point x="63" y="480"/>
      <point x="63" y="472"/>
      <point x="63" y="465" type="curve" smooth="yes"/>
      <point x="63" y="397"/>
      <point x="112" y="362"/>
      <point x="185" y="362" type="curve" smooth="yes"/>
      <point x="283" y="362"/>
      <point x="318" y="432"/>
      <point x="318" y="503" type="curve" smooth="yes"/>
      <point x="318" y="556"/>
      <point x="290" y="593"/>
      <point x="237" y="593" type="curve" smooth="yes"/>
      <point x="187" y="593"/>
      <point x="156" y="562"/>
      <point x="141" y="533" type="curve"/>
      <point x="166" y="536" type="line"/>
    </contour>
  </outline>
</glyph>
<glyph name="five.sub" format="2">
  <advance width="300"/>
  <outline>
    <contour>
      <point x="136" y="271" type="line"/>
      <point x="81" y="212" type="line"/>
      <point x="259" y="212" type="line"/>
      <point x="272" y="290" type="line"/>
      <point x="56" y="290" type="line"/>
      <point x="8" y="104" type="line"/>
      <point x="96" y="95" type="line"/>
      <point x="103" y="105"/>
      <point x="111" y="114"/>
      <point x="126" y="114" type="curve" smooth="yes"/>
      <point x="143" y="114"/>
      <point x="150" y="104"/>
      <point x="150" y="83" type="curve" smooth="yes"/>
      <point x="150" y="57"/>
      <point x="137" y="24"/>
      <point x="114" y="24" type="curve" smooth="yes"/>
      <point x="95" y="24"/>
      <point x="84" y="40"/>
      <point x="87" y="64" type="curve"/>
      <point x="-8" y="76" type="line"/>
      <point x="-9" y="70"/>
      <point x="-9" y="62"/>
      <point x="-9" y="55" type="curve" smooth="yes"/>
      <point x="-9" y="-13"/>
      <point x="40" y="-48"/>
      <point x="113" y="-48" type="curve" smooth="yes"/>
      <point x="211" y="-48"/>
      <point x="246" y="22"/>
      <point x="246" y="93" type="curve" smooth="yes"/>
      <point x="246" y="146"/>
      <point x="218" y="183"/>
      <point x="165" y="183" type="curve" smooth="yes"/>
      <point x="115" y="183"/>
      <point x="84" y="152"/>
      <point x="69" y="123" type="curve"/>
      <point x="94" y="126" type="line"/>
    </contour>
  </outline>
</glyph>
<glyph name="five.sup" format="2">
  <advance width="300"/>
  <outline>
    <contour>
      <point x="226" y="781" type="line"/>
      <point x="171" y="722" type="line"/>
      <point x="349" y="722" type="line"/>
      <point x="362" y="800" type="line"/>
      <point x="146" y="800" type="line"/>
      <point x="98" y="614" type="line"/>
      <point x="186" y="605" type="line"/>
      <point x="193" y="615"/>
      <point x="201" y="624"/>
      <point x="216" y="624" type="curve" smooth="yes"/>
      <point x="233" y="624"/>
      <point x="240" y="614"/>
      <point x="240" y="593" type="curve" smooth="yes"/>
      <point x="240" y="567"/>
      <point x="227" y="534"/>
      <point x="204" y="534" type="curve" smooth="yes"/>
      <point x="185" y="534"/>
      <point x="174" y="550"/>
      <point x="177" y="574" type="curve"/>
      <point x="82" y="586" type="line"/>
      <point x="81" y="580"/>
      <point x="81" y="572"/>
      <point x="81" y="565" type="curve" smooth="yes"/>
      <point x="81" y="497"/>
      <point x="130" y="462"/>
      <point x="203" y="462" type="curve" smooth="yes"/>
      <point x="301" y="462"/>
      <point x="336" y="532"/>
      <point x="336" y="603" type="curve" smooth="yes"/>
      <point x="336" y="656"/>
      <point x="308" y="693"/>
      <point x="255" y="693" type="curve" smooth="yes"/>
      <point x="205" y="693"/>
      <point x="174" y="662"/>
      <point x="159" y="633" type="curve"/>
      <point x="184" y="636" type="line"/>
    </contour>
  </outline>
</glyph>
<glyph name="four.den" format="2">
  <advance width="300"/>
  <outline>
    <contour>
      <point x="109" y="0" type="line"/>
      <point x="194" y="0" type="line"/>
      <point x="252" y="333" type="line"/>
      <point x="132" y="333" type="line"/>
      <point x="-3" y="136" type="line"/>
      <point x="-17" y="59" type="line"/>
      <point x="252" y="59" type="line"/>
      <point x="265" y="133" type="line"/>
      <point x="37" y="133" type="line"/>
      <point x="57" y="109" type="line"/>
      <point x="199" y="317" type="line"/>
      <point x="164" y="314" type="line"/>
    </contour>
  </outline>
</glyph>
<glyph name="four.num" format="2">
  <advance width="300"/>
  <outline>
    <contour>
      <point x="174" y="367" type="line"/>
      <point x="259" y="367" type="line"/>
      <point x="317" y="700" type="line"/>
      <point x="197" y="700" type="line"/>
      <point x="62" y="503" type="line"/>
      <point x="48" y="426" type="line"/>
      <point x="317" y="426" type="line"/>
      <point x="330" y="500" type="line"/>
      <point x="102" y="500" type="line"/>
      <point x="122" y="476" type="line"/>
      <point x="264" y="684" type="line"/>
      <point x="229" y="681" type="line"/>
    </contour>
  </outline>
</glyph>
<glyph name="four.sub" format="2">
  <advance width="300"/>
  <outline>
    <contour>
      <point x="102" y="-43" type="line"/>
      <point x="187" y="-43" type="line"/>
      <point x="245" y="290" type="line"/>
      <point x="125" y="290" type="line"/>
      <point x="-10" y="93" type="line"/>
      <point x="-24" y="16" type="line"/>
      <point x="245" y="16" type="line"/>
      <point x="258" y="90" type="line"/>
      <point x="30" y="90" type="line"/>
      <point x="50" y="66" type="line"/>
      <point x="192" y="274" type="line"/>
      <point x="157" y="271" type="line"/>
    </contour>
  </outline>
</glyph>
<glyph name="four.sup" format="2">
  <advance width="300"/>
  <outline>
    <contour>
      <point x="192" y="467" type="line"/>
      <point x="277" y="467" type="line"/>
      <point x="335" y="800" type="line"/>
      <point x="215" y="800" type="line"/>
      <point x="80" y="603" type="line"/>
      <point x="66" y="526" type="line"/>
      <point x="335" y="526" type="line"/>
      <point x="348" y="600" type="line"/>
      <point x="120" y="600" type="line"/>
      <point x="140" y="576" type="line"/>
      <point x="282" y="784" type="line"/>
      <point x="247" y="781" type="line"/>
    </contour>
  </outline>
</glyph>
<glyph name="greaterequal.tab" format="2">
  <advance width="600"/>
  <outline>
    <contour>
      <point x="10" y="0" type="line"/>
      <point x="31" y="120" type="line"/>
      <point x="519" y="120" type="line"/>
      <point x="498" y="0" type="line"/>
    </contour>
    <contour>
      <point x="561" y="358" type="line"/>
      <point x="583" y="483" type="line"/>
      <point x="130" y="683" type="line"/>
      <point x="109" y="564" type="line"/>
      <point x="499" y="394" type="line"/>
      <point x="511" y="463" type="line"/>
      <point x="61" y="293" type="line"/>
      <point x="38" y="158" type="line"/>
    </contour>
  </outline>
</glyph>
<glyph name="hookabovecmb.uc" format="2">
  <advance width="600"/>
  <outline>
    <contour>
      <point x="498" y="876" type="curve" smooth="yes"/>
      <point x="498" y="931"/>
      <point x="460" y="977"/>
      <point x="395" y="977" type="curve" smooth="yes"/>
      <point x="347" y="977"/>
      <point x="305" y="951"/>
      <point x="276" y="911" type="curve"/>
      <point x="328" y="862" type="line"/>
      <point x="340" y="878"/>
      <point x="357" y="894"/>
      <point x="380" y="894" type="curve" smooth="yes"/>
      <point x="399" y="894"/>
      <point x="410" y="883"/>
      <point x="410" y="865" type="curve" smooth="yes"/>
      <point x="410" y="838"/>
      <point x="385" y="819"/>
      <point x="331" y="807" type="curve"/>
      <point x="372" y="747" type="line"/>
      <point x="433" y="760"/>
      <point x="498" y="803"/>
    </contour>
  </outline>
</glyph>
<glyph name="hungarumlautcmb.uc" format="2">
  <advance width="600"/>
  <outline>
    <contour>
      <point x="282" y="892" type="line"/>
      <point x="429" y="892" type="line"/>
      <point x="320" y="760" type="line"/>
      <point x="204" y="760" type="line"/>
    </contour>
    <contour>
      <point x="458" y="892" type="line"/>
      <point x="605" y="892" type="line"/>
      <point x="496" y="760" type="line"/>
      <point x="380" y="760" type="line"/>
    </contour>
  </outline>
</glyph>
<glyph name="less.tab" format="2">
  <advance width="600"/>
  <outline>
    <contour>
      <point x="81" y="402" type="line"/>
      <point x="59" y="279" type="line"/>
      <point x="508" y="55" type="line"/>
      <point x="529" y="179" type="line"/>
      <point x="141" y="372" type="line"/>
      <point x="127" y="293" type="line"/>
      <point x="583" y="486" type="line"/>
      <point x="608" y="626" type="line"/>
    </contour>
  </outline>
</glyph>
<glyph name="macronbelowcmb.uc" format="2">
  <advance width="600"/>
  <outline>
    <contour>
      <point x="67" y="-177" type="line"/>
      <point x="381" y="-177" type="line"/>
      <point x="399" y="-77" type="line"/>
      <point x="85" y="-77" type="line"/>
    </contour>
  </outline>
</glyph>
<glyph name="macroncmb.uc" format="2">
  <advance width="600"/>
  <outline>
    <contour>
      <point x="236" y="760" type="line"/>
      <point x="550" y="760" type="line"/>
      <point x="568" y="860" type="line"/>
      <point x="254" y="860" type="line"/>
    </contour>
  </outline>
</glyph>
<glyph name="minus.sub" format="2">
  <advance width="450"/>
  <outline>
    <contour>
      <point x="69" y="84" type="line"/>
      <point x="323" y="84" type="line"/>
      <point x="337" y="166" type="line"/>
      <point x="83" y="166" type="line"/>
    </contour>
  </outline>
</glyph>
<glyph name="minus.tab" format="2">
  <advance width="600"/>
  <outline>
    <contour>
      <point x="549" y="280" type="line"/>
      <point x="571" y="400" type="line"/>
      <point x="83" y="400" type="line"/>
      <point x="61" y="280" type="line"/>
    </contour>
  </outline>
</glyph>
<glyph name="multiply.tab" format="2">
  <advance width="600"/>
  <outline>
    <contour>
      <point x="45" y="187" type="line"/>
      <point x="116" y="101" type="line"/>
      <point x="577" y="493" type="line"/>
      <point x="506" y="579" type="line"/>
    </contour>
    <contour>
      <point x="427" y="105" type="line"/>
      <point x="518" y="183" type="line"/>
      <point x="195" y="575" type="line"/>
      <point x="104" y="497" type="line"/>
    </contour>
  </outline>
</glyph>
<glyph name="naira.tab" format="2">
  <advance width="600"/>
  <outline>
    <contour>
      <point x="37" y="392" type="line"/>
      <point x="154" y="392" type="line"/>
      <point x="172" y="492" type="line"/>
      <point x="55" y="492" type="line"/>
    </contour>
    <contour>
      <point x="467" y="229" type="line"/>
      <point x="583" y="229" type="line"/>
      <point x="600" y="329" type="line"/>
      <point x="484" y="329" type="line"/>
    </contour>
    <contour>
      <point x="314" y="392" type="line"/>
      <point x="611" y="392" type="line"/>
      <point x="629" y="492" type="line"/>
      <point x="298" y="492" type="line"/>
    </contour>
    <contour>
      <point x="9" y="229" type="line"/>
      <point x="350" y="229" type="line"/>
      <point x="340" y="329" type="line"/>
      <point x="26" y="329" type="line"/>
    </contour>
    <contour>
      <point x="432" y="117" type="line"/>
      <point x="312" y="700" type="line"/>
      <point x="162" y="700" type="line"/>
      <point x="38" y="0" type="line"/>
      <point x="147" y="0" type="line"/>
      <point x="250" y="581" type="line"/>
      <point x="235" y="581" type="line"/>
      <point x="353" y="0" type="line"/>
      <point x="472" y="0" type="line"/>
      <point x="596" y="700" type="line"/>
      <point x="487" y="700" type="line"/>
      <point x="384" y="117" type="line"/>
    </contour>
  </outline>
</glyph>
<glyph name="newsheqel.tab" format="2">
  <advance width="600"/>
  <outline>
    <contour>
      <point x="326" y="700" type="line" smooth="yes"/>
      <point x="436" y="700"/>
      <point x="490" y="650"/>
      <point x="469" y="533" type="curve" smooth="yes"/>
      <point x="399" y="136" type="line"/>
      <point x="299" y="136" type="line"/>
      <point x="369" y="532" type="line" smooth="yes"/>
      <point x="377" y="575"/>
      <point x="365" y="601"/>
      <point x="317" y="601" type="curve" smooth="yes"/>
      <point x="205" y="601" type="line"/>
      <point x="99" y="0" type="line"/>
      <point x="-1" y="0" type="line"/>
      <point x="123" y="700" type="line"/>
    </contour>
    <contour>
      <point x="310" y="0" type="line" smooth="yes"/>
      <point x="200" y="0"/>
      <point x="146" y="46"/>
      <point x="167" y="167" type="curve" smooth="yes"/>
      <point x="237" y="564" type="line"/>
      <point x="337" y="564" type="line"/>
      <point x="267" y="168" type="line" smooth="yes"/>
      <point x="259" y="125"/>
      <point x="271" y="99"/>
      <point x="321" y="99" type="curve" smooth="yes"/>
      <point x="431" y="99" type="line"/>
      <point x="537" y="700" type="line"/>
      <point x="637" y="700" type="line"/>
      <point x="513" y="0" type="line"/>
    </contour>
  </outline>
</glyph>
